<?xml version="1.0" encoding="utf-8"?>
<!-- Generator: Adobe Illustrator 19.2.1, SVG Export Plug-In . SVG Version: 6.00 Build 0)  -->
<svg version="1.1" id="Layer_1" xmlns="http://www.w3.org/2000/svg" xmlns:xlink="http://www.w3.org/1999/xlink" x="0px" y="0px"
	 viewBox="0 0 42 42" style="enable-background:new 0 0 42 42;" xml:space="preserve">
<style type="text/css">
	.st0{fill:#B0C3C6;}
	.st1{fill:none;stroke:#DEE7E8;stroke-miterlimit:10;}
	.st2{fill:#00A6E2;}
	.st3{fill:none;stroke:#B0C3C6;stroke-width:2;stroke-miterlimit:10;}
	.st4{fill:#666666;}
	.st5{fill:none;stroke:#B0C3C6;stroke-width:2;stroke-linejoin:round;stroke-miterlimit:10;}
	.st6{fill:#00C9ED;}
	.st7{fill:#FFFFFF;stroke:#B0C3C6;stroke-width:2;stroke-linejoin:round;stroke-miterlimit:10;}
	.st8{fill:#303030;}
	.st9{opacity:0.4;fill:#F6F6F6;}
	.st10{fill:none;stroke:#999999;stroke-width:2;stroke-miterlimit:10;}
	.st11{fill:#999999;}
	.st12{fill:#FFFFFF;}
	.st13{clip-path:url(#SVGID_2_);fill:#2F3537;}
	.st14{opacity:0.3;fill:none;stroke:#9FB1B3;stroke-width:2;stroke-miterlimit:10;}
	.st15{fill:none;stroke:#FFFFFF;stroke-miterlimit:10;}
	.st16{fill:#FFFFFF;stroke:#FFFFFF;stroke-miterlimit:10;}
	.st17{fill:none;stroke:#303030;stroke-miterlimit:10;}
	.st18{opacity:0.8;fill:#B0C3C6;}
	.st19{opacity:0.7;}
	.st20{opacity:0.8;clip-path:url(#SVGID_4_);fill:#00A6E2;}
	.st21{opacity:0.8;fill:#00A6E2;}
	.st22{opacity:0.8;clip-path:url(#SVGID_6_);fill:#00A6E2;}
	.st23{clip-path:url(#SVGID_8_);}
	.st24{clip-path:url(#SVGID_10_);}
	.st25{fill:none;stroke:#B0C3C6;stroke-width:3;stroke-linejoin:round;stroke-miterlimit:10;}
	.st26{opacity:0.3;fill:none;stroke:#9FB1B3;stroke-width:3;stroke-miterlimit:10;}
	.st27{fill:#FFFFFF;stroke:#B0C3C6;stroke-width:3;stroke-linejoin:round;stroke-miterlimit:10;}
	.st28{clip-path:url(#SVGID_12_);fill:#2F3537;}
	.st29{clip-path:url(#SVGID_14_);fill:#B0C3C6;}
	.st30{fill:#33B8E8;}
	.st31{fill:#238DB4;}
	.st32{fill:#E2E7E8;}
	.st33{clip-path:url(#SVGID_16_);}
	.st34{fill:#FFFFFF;stroke:#B0C3C6;stroke-width:2;stroke-miterlimit:10;}
	.st35{fill:#B4CBCE;}
	.st36{fill:#003147;}
	.st37{fill:#FFD62B;}
	.st38{fill:#00B78E;}
	.st39{fill:#FF7824;}
	.st40{fill:#FF3223;}
	.st41{fill:#7955DF;}
	.st42{fill:none;stroke:#FF3223;stroke-width:2;stroke-miterlimit:10;}
	.st43{fill:none;stroke:#00A6E2;stroke-width:2;stroke-miterlimit:10;}
	.st44{clip-path:url(#SVGID_18_);fill:#303030;}
	.st45{fill:#F5C81F;}
	.st46{fill:#F49F90;}
	.st47{fill:#F3EEDE;}
</style>
<g>
	<path class="st5" d="M36,3.4H6c-1.7,0-3,1.3-3,3v21.9c0,1.7,1.3,3,3,3h18.2l6.1,7.3v-7.3H36c1.7,0,3-1.3,3-3V6.4
		C39,4.7,37.7,3.4,36,3.4z"/>
	<g>
		<path class="st0" d="M22.2,20.8h-2.7v-1.5c0-0.6,0.1-1.1,0.2-1.4c0.2-0.3,0.5-0.7,1-1.2l1.8-1.8c0.4-0.4,0.6-0.9,0.6-1.5
			c0-0.6-0.2-1.1-0.6-1.5c-0.4-0.4-0.9-0.6-1.5-0.6c-0.6,0-1.1,0.2-1.5,0.6c-0.4,0.4-0.6,0.9-0.7,1.5h-2.9c0.2-1.4,0.7-2.5,1.7-3.3
			c1-0.8,2.1-1.2,3.6-1.2c1.4,0,2.6,0.4,3.5,1.2c0.9,0.8,1.3,1.9,1.3,3.3c0,1-0.3,1.8-0.8,2.4c-0.3,0.4-0.5,0.7-0.7,0.8
			c-0.2,0.2-0.4,0.4-0.6,0.6c-0.3,0.2-0.5,0.5-0.7,0.6c-0.2,0.2-0.3,0.3-0.4,0.5c-0.3,0.4-0.4,0.8-0.4,1.5V20.8z M20.8,26.1
			c-0.5,0-0.9-0.2-1.3-0.5c-0.4-0.3-0.6-0.8-0.6-1.2c0-0.5,0.2-0.9,0.5-1.3c0.4-0.4,0.8-0.5,1.3-0.5s0.9,0.2,1.3,0.5
			c0.4,0.3,0.6,0.8,0.6,1.2c0,0.5-0.2,0.9-0.5,1.3C21.8,25.9,21.3,26.1,20.8,26.1z"/>
	</g>
</g>
</svg>
