<?xml version="1.0" encoding="utf-8"?>
<!-- Generator: Adobe Illustrator 19.2.1, SVG Export Plug-In . SVG Version: 6.00 Build 0)  -->
<svg version="1.1" id="Layer_1" xmlns="http://www.w3.org/2000/svg" xmlns:xlink="http://www.w3.org/1999/xlink" x="0px" y="0px"
	 viewBox="0 0 36 36" style="enable-background:new 0 0 36 36;" xml:space="preserve">
<style type="text/css">
	.st0{fill:#B0C3C6;}
	.st1{fill:none;stroke:#DEE7E8;stroke-miterlimit:10;}
	.st2{fill:#00A6E2;}
	.st3{fill:none;stroke:#B0C3C6;stroke-width:2;stroke-miterlimit:10;}
	.st4{fill:#666666;}
	.st5{fill:none;stroke:#B0C3C6;stroke-width:2;stroke-linejoin:round;stroke-miterlimit:10;}
	.st6{fill:#00C9ED;}
	.st7{fill:#FFFFFF;stroke:#B0C3C6;stroke-width:2;stroke-linejoin:round;stroke-miterlimit:10;}
	.st8{fill:#303030;}
	.st9{opacity:0.4;fill:#F6F6F6;}
	.st10{fill:none;stroke:#999999;stroke-width:2;stroke-miterlimit:10;}
	.st11{fill:#999999;}
	.st12{fill:#FFFFFF;}
	.st13{clip-path:url(#SVGID_2_);fill:#2F3537;}
	.st14{opacity:0.3;fill:none;stroke:#9FB1B3;stroke-width:2;stroke-miterlimit:10;}
	.st15{fill:none;stroke:#FFFFFF;stroke-miterlimit:10;}
	.st16{fill:#FFFFFF;stroke:#FFFFFF;stroke-miterlimit:10;}
	.st17{fill:none;stroke:#303030;stroke-miterlimit:10;}
	.st18{opacity:0.8;fill:#B0C3C6;}
	.st19{opacity:0.7;}
	.st20{opacity:0.8;clip-path:url(#SVGID_4_);fill:#00A6E2;}
	.st21{opacity:0.8;fill:#00A6E2;}
	.st22{opacity:0.8;clip-path:url(#SVGID_6_);fill:#00A6E2;}
	.st23{clip-path:url(#SVGID_8_);}
	.st24{clip-path:url(#SVGID_10_);}
	.st25{fill:none;stroke:#B0C3C6;stroke-width:3;stroke-linejoin:round;stroke-miterlimit:10;}
	.st26{opacity:0.3;fill:none;stroke:#9FB1B3;stroke-width:3;stroke-miterlimit:10;}
	.st27{fill:#FFFFFF;stroke:#B0C3C6;stroke-width:3;stroke-linejoin:round;stroke-miterlimit:10;}
	.st28{clip-path:url(#SVGID_12_);fill:#2F3537;}
	.st29{clip-path:url(#SVGID_14_);fill:#B0C3C6;}
	.st30{fill:#33B8E8;}
	.st31{fill:#238DB4;}
	.st32{fill:#E2E7E8;}
	.st33{clip-path:url(#SVGID_16_);}
	.st34{fill:#FFFFFF;stroke:#B0C3C6;stroke-width:2;stroke-miterlimit:10;}
	.st35{fill:#B4CBCE;}
	.st36{fill:#003147;}
	.st37{fill:#FFD62B;}
	.st38{fill:#00B78E;}
	.st39{fill:#FF7824;}
	.st40{fill:#FF3223;}
	.st41{fill:#7955DF;}
	.st42{fill:none;stroke:#FF3223;stroke-width:2;stroke-miterlimit:10;}
	.st43{fill:none;stroke:#00A6E2;stroke-width:2;stroke-miterlimit:10;}
	.st44{clip-path:url(#SVGID_18_);fill:#303030;}
	.st45{fill:#F5C81F;}
	.st46{fill:#F49F90;}
	.st47{fill:#F3EEDE;}
	.st48{fill-rule:evenodd;clip-rule:evenodd;fill:#FFFFFF;}
</style>
<g>
	<path class="st48" d="M18,1.4C8.6,1.4,1,9,1,18.4c0,7.5,4.9,13.9,11.6,16.1c0.8,0.2,1.2-0.4,1.2-0.8c0-0.4,0-1.5,0-2.9
		C9,31.9,8,28.6,8,28.6c-0.8-2-1.9-2.5-1.9-2.5c-1.5-1.1,0.1-1,0.1-1c1.7,0.1,2.6,1.8,2.6,1.8c1.5,2.6,4,1.8,4.9,1.4
		c0.2-1.1,0.6-1.8,1.1-2.3c-3.8-0.4-7.7-1.9-7.7-8.4c0-1.9,0.7-3.4,1.7-4.6c-0.2-0.4-0.8-2.2,0.2-4.5c0,0,1.4-0.5,4.7,1.7
		c1.4-0.4,2.8-0.6,4.3-0.6c1.4,0,2.9,0.2,4.3,0.6c3.2-2.2,4.7-1.7,4.7-1.7c0.9,2.3,0.3,4.1,0.2,4.5c1.1,1.2,1.7,2.7,1.7,4.6
		c0,6.5-4,8-7.8,8.4c0.6,0.5,1.2,1.6,1.2,3.1c0,2.3,0,4.1,0,4.7c0,0.5,0.3,1,1.2,0.8C30.1,32.3,35,25.9,35,18.4
		C35,9,27.4,1.4,18,1.4"/>
</g>
</svg>
