<?xml version="1.0" encoding="utf-8"?>
<!-- Generator: Adobe Illustrator 19.2.1, SVG Export Plug-In . SVG Version: 6.00 Build 0)  -->
<svg version="1.1" id="Layer_1" xmlns="http://www.w3.org/2000/svg" xmlns:xlink="http://www.w3.org/1999/xlink" x="0px" y="0px"
	 viewBox="0 0 430 240" style="enable-background:new 0 0 430 240;" xml:space="preserve">
<style type="text/css">
	.st0{fill:none;stroke:#FFD62B;stroke-width:3;stroke-miterlimit:10;}
	.st1{fill:#B0C3C6;}
	.st2{fill:none;stroke:#DEE7E8;stroke-miterlimit:10;}
	.st3{fill:#00A6E2;}
	.st4{fill:none;stroke:#B0C3C6;stroke-width:2;stroke-miterlimit:10;}
	.st5{fill:#666666;}
	.st6{fill:none;stroke:#B0C3C6;stroke-width:2;stroke-linejoin:round;stroke-miterlimit:10;}
	.st7{fill:#00C9ED;}
	.st8{fill:#FFFFFF;stroke:#B0C3C6;stroke-width:2;stroke-linejoin:round;stroke-miterlimit:10;}
	.st9{fill:#303030;}
	.st10{opacity:0.4;fill:#F6F6F6;}
	.st11{fill:none;stroke:#999999;stroke-width:2;stroke-miterlimit:10;}
	.st12{fill:#999999;}
	.st13{fill:#FFFFFF;}
	.st14{clip-path:url(#SVGID_3_);fill:#2F3537;}
	.st15{opacity:0.3;fill:none;stroke:#9FB1B3;stroke-width:2;stroke-miterlimit:10;}
	.st16{fill:none;stroke:#FFFFFF;stroke-miterlimit:10;}
	.st17{fill:#FFFFFF;stroke:#FFFFFF;stroke-miterlimit:10;}
	.st18{fill:none;stroke:#303030;stroke-miterlimit:10;}
	.st19{opacity:0.8;fill:#B0C3C6;}
	.st20{opacity:0.7;}
	.st21{opacity:0.8;clip-path:url(#SVGID_5_);fill:#00A6E2;}
	.st22{opacity:0.8;fill:#00A6E2;}
	.st23{opacity:0.8;clip-path:url(#SVGID_7_);fill:#00A6E2;}
	.st24{clip-path:url(#SVGID_9_);}
	.st25{clip-path:url(#SVGID_11_);}
	.st26{fill:none;stroke:#B0C3C6;stroke-width:3;stroke-linejoin:round;stroke-miterlimit:10;}
	.st27{opacity:0.3;fill:none;stroke:#9FB1B3;stroke-width:3;stroke-miterlimit:10;}
	.st28{fill:#FFFFFF;stroke:#B0C3C6;stroke-width:3;stroke-linejoin:round;stroke-miterlimit:10;}
	.st29{clip-path:url(#SVGID_13_);fill:#2F3537;}
	.st30{clip-path:url(#SVGID_14_);fill:#2F3537;}
	.st31{clip-path:url(#SVGID_16_);fill:#B0C3C6;}
	.st32{fill:#33B8E8;}
	.st33{fill:#238DB4;}
	.st34{fill:#E2E7E8;}
	.st35{clip-path:url(#SVGID_20_);}
	.st36{fill:#FFFFFF;stroke:#B0C3C6;stroke-width:2;stroke-miterlimit:10;}
	.st37{fill:#B4CBCE;}
	.st38{fill:#003147;}
	.st39{fill:#FFD62B;}
	.st40{fill:#00B78E;}
	.st41{fill:#FF7824;}
	.st42{fill:#FF3223;}
	.st43{fill:#7955DF;}
	.st44{fill:none;stroke:#FF3223;stroke-width:2;stroke-miterlimit:10;}
	.st45{fill:none;stroke:#00A6E2;stroke-width:2;stroke-miterlimit:10;}
	.st46{clip-path:url(#SVGID_22_);fill:#303030;}
	.st47{fill:#F5C81F;}
	.st48{fill:#F49F90;}
	.st49{fill:#F3EEDE;}
	.st50{fill-rule:evenodd;clip-rule:evenodd;fill:#FFFFFF;}
	.st51{fill:#00131F;}
	.st52{clip-path:url(#SVGID_24_);fill:#303030;}
	.st53{fill:none;stroke:#FFFFFF;stroke-width:2;stroke-miterlimit:10;}
	.st54{clip-path:url(#SVGID_25_);fill:#303030;}
	.st55{clip-path:url(#SVGID_26_);fill:#303030;}
	.st56{opacity:0.3;fill:#B0C3C6;stroke:#B0C3C6;stroke-width:3;stroke-miterlimit:10;}
	.st57{fill:#FBFFFF;stroke:#9FB1B3;stroke-width:2;stroke-miterlimit:10;}
	.st58{fill:none;stroke:#666666;stroke-width:2;stroke-miterlimit:10;}
	.st59{clip-path:url(#SVGID_28_);fill:#2F3537;}
	.st60{fill-rule:evenodd;clip-rule:evenodd;fill:#00131F;}
	.st61{fill:#BBBBBB;}
	.st62{fill:#FF6434;}
	.st63{fill:#B5F0F5;}
	.st64{fill:none;stroke:#B0C3C6;stroke-width:3;stroke-miterlimit:10;}
	.st65{fill:#B0C3C6;stroke:#B0C3C6;stroke-width:2;stroke-miterlimit:10;}
	.st66{fill:#EBFAFB;}
	.st67{clip-path:url(#SVGID_30_);}
	.st68{fill:#DEE7E8;}
	.st69{fill:none;}
	.st70{fill:#757575;}
	.st71{fill:#FFFFFF;stroke:#808184;stroke-width:2;stroke-linejoin:round;stroke-miterlimit:10;}
	.st72{fill:none;stroke:#808184;stroke-width:2;stroke-linejoin:round;stroke-miterlimit:10;}
	.st73{fill:#333435;}
	.st74{clip-path:url(#SVGID_32_);fill:#303030;}
	.st75{clip-path:url(#SVGID_34_);fill:#303030;}
	.st76{opacity:0.8;}
	.st77{fill:#576263;}
	.st78{opacity:0.2;fill:#9FB1B3;}
	.st79{opacity:0.2;fill:none;stroke:#9FB1B3;stroke-miterlimit:10;}
	.st80{opacity:0.3;}
	.st81{fill:#FBFBFB;}
	.st82{clip-path:url(#SVGID_36_);fill:#303030;}
	.st83{fill:#A4A4A4;}
	.st84{clip-path:url(#SVGID_38_);fill:#303030;}
	.st85{fill:none;stroke:#808184;stroke-width:2;stroke-miterlimit:10;}
	.st86{clip-path:url(#SVGID_40_);fill:#303030;}
	.st87{clip-path:url(#SVGID_42_);fill:#303030;}
	.st88{clip-path:url(#SVGID_44_);fill:#B0C3C6;}
	.st89{clip-path:url(#SVGID_46_);}
	.st90{clip-path:url(#SVGID_48_);fill:#303030;}
	.st91{fill:#1A1A1B;}
	.st92{clip-path:url(#SVGID_50_);fill:#303030;}
</style>
<g>
	<g>
		<path class="st73" d="M344.7,194.4L318,176.7c-0.5-0.5-1.1-0.7-1.8-0.7c0,0,0,0,0,0c0,0,0,0,0,0c-0.6,0-1.3,0.2-1.8,0.7
			l-26.7,17.7c-0.3,0.2-0.4,0.5-0.4,0.8v26.9v3.2c0,1.4,1.2,2.6,2.6,2.6h52.6c1.4,0,2.6-1.2,2.6-2.6v-3.2v-26.9
			C345.2,194.9,345,194.6,344.7,194.4z M315.6,178.3l0.2-0.1c0.1-0.1,0.3-0.2,0.4-0.2c0.2,0,0.3,0.1,0.4,0.2l0.2,0.1l25.8,17
			l-21.8,13.2l-2.8-2c-0.3-0.2-0.6-0.3-0.8-0.4c-0.3-0.1-0.6-0.1-0.9-0.1s-0.6,0-0.9,0.1c-0.3,0.1-0.6,0.2-0.8,0.4l-2.7,2
			l-21.9-13.1L315.6,178.3z M289.3,197.4l20.8,12.4l-17.1,12.4l-3.6,2.6v-2.6V197.4z M290.7,226.2l5.6-4.1l19.3-14l0,0l0,0
			c0,0,0.3-0.1,0.5-0.1c0,0,0,0,0,0c0.1,0,0.3,0,0.4,0l0.1,0l0,0l0,0l0,0l19.3,14l5.6,4.1L290.7,226.2z M343.2,224.8l-3.7-2.7
			l-17-12.3l20.6-12.5v24.8V224.8z"/>
		<polygon class="st73" points="335.1,195.7 297.3,195.7 297.3,196.7 297.3,197.7 335.1,197.7 		"/>
	</g>
	<path class="st73" d="M123.7,50.4c-1.8,0-3.2-1.4-3.2-3.2V16.5c0-1.8,1.4-3.2,3.2-3.2h41.9c1.8,0,3.2,1.4,3.2,3.2v30.6
		c0,1.8-1.4,3.2-3.2,3.2h-7.9c-0.3,0-0.5,0.1-0.7,0.3c-0.2,0.2-0.3,0.4-0.3,0.7v7.4l-6.8-8.1c-0.2-0.2-0.5-0.4-0.8-0.4H123.7
		 M165.6,11.3h-41.9c-2.9,0-5.2,2.3-5.2,5.2v30.6c0,2.9,2.3,5.2,5.2,5.2h25l8.3,9.8c0.2,0.2,0.5,0.4,0.8,0.4c0.1,0,0.2,0,0.3-0.1
		c0.4-0.1,0.7-0.5,0.7-0.9v-9.2h6.9c2.9,0,5.2-2.3,5.2-5.2V16.5C170.8,13.7,168.5,11.3,165.6,11.3L165.6,11.3"/>
	<path class="st73" d="M407.3,112c0-0.1-0.1-0.3-0.2-0.5c-0.1-0.1-0.1-0.3-0.2-0.4c1.9-4,2.9-8.3,2.9-12.7c0-4.3-1-8.7-2.9-12.7
		c0.1-0.2,0.2-0.3,0.3-0.4c0.1-0.2,0.1-0.4,0.2-0.5l0,0l0.2-0.9c0.1-0.3,0-0.5-0.1-0.8l-0.4-0.7c-1.3-2.1-2.8-4-4.6-5.8
		c-1.8-1.8-3.8-3.4-6-4.7l0,0l-0.5-0.3c-0.2-0.1-0.3-0.1-0.5-0.1h-0.6c-0.2,0-0.4,0-0.7,0c-0.2,0-0.5,0.1-0.8,0.3
		c-0.1,0.1-0.2,0.1-0.3,0.2c-4-1.9-8.3-2.9-12.7-2.9c0,0,0,0,0,0c-4.3,0-8.7,1-12.7,2.9c-0.1-0.1-0.2-0.1-0.3-0.2
		c-0.3-0.2-0.6-0.3-0.9-0.3c-0.3,0-0.5,0-0.7,0h0l-0.6,0c-0.2,0-0.4,0.1-0.5,0.1l-0.5,0.3c-2.1,1.3-4,2.8-5.8,4.6
		c-1.8,1.8-3.4,3.8-4.7,6l0,0l-0.4,0.8c-0.1,0.2-0.2,0.5-0.1,0.8l0.2,0.8c0,0.1,0.1,0.3,0.2,0.5c0.1,0.1,0.1,0.3,0.2,0.4
		c-1.9,4-2.9,8.3-2.9,12.7c0,4.3,1,8.7,2.9,12.7c-0.1,0.2-0.2,0.3-0.3,0.4c-0.1,0.2-0.1,0.4-0.2,0.5l0,0l-0.2,0.9
		c-0.1,0.3,0,0.5,0.1,0.8l0.4,0.7c1.3,2.1,2.8,4,4.6,5.8c1.8,1.8,3.8,3.4,6,4.7l0,0l0.5,0.3c0.2,0.1,0.3,0.1,0.5,0.1h0.6
		c0,0,0.1,0,0.1,0c0.2,0,0.3,0,0.6,0c0.2,0,0.5-0.1,0.8-0.3c0.1-0.1,0.2-0.1,0.3-0.2c4,1.9,8.3,2.9,12.7,2.9c4.3,0,8.7-1,12.7-2.9
		c0.1,0.1,0.2,0.1,0.3,0.2c0.3,0.2,0.6,0.3,0.9,0.3c0.3,0,0.5,0,0.7,0h0l0.6,0c0.2,0,0.4-0.1,0.5-0.1l0.5-0.3c2.1-1.3,4-2.8,5.8-4.6
		c1.8-1.8,3.4-3.8,4.7-6l0,0l0.4-0.8c0.1-0.2,0.2-0.5,0.1-0.8L407.3,112z M407.7,98.4c0,3.9-0.8,7.7-2.4,11.3
		c-0.7-0.5-1.7-1.1-3.1-2c-2.1-1.2-5.1-2.8-9.4-5.1c0.5-1.4,0.7-2.8,0.7-4.2c0-1.4-0.2-2.7-0.6-4c6.7-3.6,10.2-5.6,12-6.9
		c0.2-0.1,0.3-0.2,0.5-0.3C406.9,90.8,407.7,94.6,407.7,98.4z M383.8,107.7c-0.4,0.3-0.6,0.9-0.4,1.3l0,0.1c-1,0.3-2,0.4-3,0.4
		c-1.1,0-2.2-0.2-3.2-0.5l0.1-0.2c0.2-0.5,0.1-1-0.4-1.3l-1.6-1c-0.6-0.4-1.2-0.9-1.8-1.4c-0.5-0.5-1-1.1-1.4-1.7l-1-1.6
		c-0.2-0.3-0.5-0.5-0.8-0.5c-0.2,0-0.3,0-0.5,0.1l-0.1,0c-0.3-1-0.4-2-0.4-3c0-1.1,0.2-2.2,0.5-3.2l0.2,0.1c0.1,0.1,0.3,0.1,0.5,0.1
		c0.3,0,0.7-0.2,0.9-0.5l1-1.6c0.4-0.6,0.9-1.2,1.4-1.8c0.5-0.5,1.1-1,1.7-1.4l1.6-1c0.4-0.3,0.6-0.9,0.4-1.3l0-0.1
		c1-0.3,2-0.4,3-0.4c1.1,0,2.2,0.2,3.2,0.5l-0.1,0.2c-0.2,0.5-0.1,1,0.4,1.3l1.6,1c0.6,0.4,1.2,0.9,1.8,1.4c0.5,0.5,1,1.1,1.4,1.7
		l0.9-0.5l-0.9,0.5l1,1.6c0.2,0.3,0.5,0.5,0.9,0.5c0.2,0,0.3,0,0.5-0.1l0.1,0c0.3,1,0.4,2,0.4,3c0,1.1-0.2,2.2-0.5,3.2l-0.2-0.1
		c-0.1-0.1-0.3-0.1-0.5-0.1c-0.3,0-0.7,0.2-0.9,0.5l-1,1.6c-0.4,0.6-0.9,1.2-1.4,1.8c-0.5,0.5-1.1,1-1.7,1.4L383.8,107.7z
		 M393.2,74.9c0.6-0.9,1-1.2,1.1-1.3l0.2-0.1c0.1,0,0.1,0,0.3,0h0.3l0.3,0.2l0,0c2,1.2,3.9,2.7,5.6,4.4c1.6,1.6,3.1,3.5,4.3,5.4
		l0.2,0.4l-0.1,0.5l0,0c0,0.1,0,0.2-0.1,0.2c0,0.1-0.1,0.2-0.4,0.5c-0.5,0.5-1.6,1.2-3.6,2.5c-2.1,1.2-5.1,2.9-9.6,5.3l-0.8,0.4
		l-0.5-0.8c-0.5-0.7-1-1.4-1.6-2.1c-0.6-0.6-1.4-1.2-2.2-1.7l-0.8-0.5l0.4-0.8C390,80.2,392,76.6,393.2,74.9z M380.4,71.1
		c3.9,0,7.7,0.8,11.3,2.4c-0.6,0.8-1.3,2-2.3,3.7c-1.2,2.1-2.7,4.9-4.8,8.9c-1.3-0.5-2.8-0.7-4.2-0.7c0,0,0,0,0,0
		c-1.4,0-2.7,0.2-4,0.6c-3.8-7-5.8-10.5-7.2-12.4c0,0-0.1-0.1-0.1-0.1C372.7,71.9,376.6,71.1,380.4,71.1z M355.6,83.5L355.6,83.5
		c1.2-2,2.7-3.9,4.4-5.6c1.6-1.6,3.5-3.1,5.4-4.3l0.2-0.2l0.3,0v0c0,0,0,0,0,0c0.1,0,0.2,0,0.3,0l0.1,0.1c0.1,0.1,0.4,0.2,0.7,0.7
		c0.6,0.7,1.4,1.9,2.6,3.9c1.2,2.1,2.8,5,5,9.1l0.4,0.8l-0.8,0.5c-0.7,0.5-1.4,1-2.1,1.6c-0.7,0.7-1.2,1.4-1.7,2.2l-0.5,0.8
		l-0.8-0.4c-6.9-3.6-10.4-5.6-12.2-6.8c-0.9-0.6-1.3-1-1.5-1.2c-0.1-0.1-0.1-0.1-0.1-0.2c0,0,0-0.1-0.1-0.2l-0.1-0.4L355.6,83.5z
		 M353.1,98.4c0-3.9,0.8-7.7,2.4-11.3c0.7,0.5,1.7,1.1,3.1,2c2.1,1.2,5.1,2.8,9.4,5.1c-0.5,1.4-0.7,2.8-0.7,4.2c0,1.4,0.2,2.7,0.6,4
		c-6.7,3.6-10.2,5.6-12,6.9c-0.2,0.1-0.3,0.2-0.5,0.3C353.9,106.1,353.1,102.3,353.1,98.4z M367.6,122c-0.6,0.9-1,1.2-1.1,1.3
		l-0.2,0.1c0,0-0.1,0-0.3,0h-0.3l-0.3-0.1v0c-2-1.2-3.9-2.7-5.6-4.4c-1.6-1.6-3.1-3.5-4.3-5.4l-0.2-0.4l0.1-0.5l0,0
		c0-0.1,0-0.2,0.1-0.2c0-0.1,0.1-0.2,0.4-0.5c0.5-0.5,1.6-1.2,3.6-2.4c2.1-1.2,5.1-2.9,9.6-5.3l0.8-0.4l0.5,0.8
		c0.5,0.7,1,1.4,1.6,2.1c0.7,0.7,1.4,1.2,2.2,1.7l0.8,0.5l-0.4,0.8C370.9,116.7,368.8,120.3,367.6,122z M380.4,125.8
		c-3.9,0-7.7-0.8-11.3-2.4c0.6-0.8,1.3-2,2.3-3.7c1.2-2.1,2.7-4.9,4.8-8.9c1.3,0.5,2.8,0.7,4.2,0.7c0,0,0,0,0,0c1.4,0,2.7-0.2,4-0.6
		c3.8,7,5.8,10.5,7.2,12.4c0,0,0.1,0.1,0.1,0.1C388.1,125,384.3,125.8,380.4,125.8z M405.2,113.4c-1.2,2-2.7,3.9-4.4,5.6
		c-1.6,1.6-3.5,3.1-5.4,4.3l-0.2,0.2l-0.3,0c-0.2,0-0.3,0-0.3,0l-0.1,0c-0.1-0.1-0.4-0.2-0.7-0.7c-0.6-0.7-1.4-1.9-2.6-3.9
		c-1.2-2.1-2.8-5-5-9.1l-0.4-0.8l0.8-0.5c0.7-0.5,1.4-1,2.1-1.6c0.7-0.7,1.2-1.4,1.7-2.2l0.5-0.8l0.8,0.4c6.9,3.6,10.4,5.6,12.2,6.8
		c0.9,0.6,1.3,1,1.5,1.2c0.1,0.1,0.1,0.1,0.1,0.2c0,0,0,0.1,0.1,0.2l0.1,0.4L405.2,113.4z"/>
	<path class="st73" d="M87.5,161.5c4.7,0,8.9-2,11.8-5.2c3,3.2,7.2,5.2,11.8,5.2l0,0c3.9,0,7.4-1.4,10.9-3.6V191
		c-0.2,0.6-1.2,3.3-4.2,6.6c-3.3,3.6-8.9,7.9-18.5,10.7c-9.8-2.8-15.5-7.2-18.7-10.8c-1.6-1.8-2.7-3.5-3.3-4.7
		c-0.3-0.6-0.5-1.1-0.6-1.4c-0.1-0.1-0.1-0.3-0.1-0.3v-33.1C80.1,160.1,83.6,161.5,87.5,161.5 M99.3,153.8L99.3,153.8
		c-0.3,0-0.6,0.1-0.8,0.4c-2.6,3.2-6.6,5.3-11,5.3c-3.9,0-7.5-1.6-11.3-4.3c-0.2-0.1-0.4-0.2-0.6-0.2c-0.2,0-0.3,0-0.5,0.1
		c-0.3,0.2-0.5,0.5-0.5,0.9v35.1c0,0.1,0,0.2,0,0.3c0,0.1,1,3.4,4.5,7.4c3.5,4,9.6,8.6,19.9,11.5c0.1,0,0.2,0,0.3,0
		c0.1,0,0.2,0,0.3,0c10.3-2.9,16.4-7.5,19.9-11.5c3.5-4,4.4-7.2,4.5-7.4c0-0.1,0-0.2,0-0.3v-35.1c0-0.4-0.2-0.7-0.5-0.9
		c-0.1-0.1-0.3-0.1-0.5-0.1c-0.2,0-0.4,0.1-0.6,0.2c-3.9,2.7-7.4,4.3-11.3,4.3l0,0c-4.5,0-8.4-2.1-11-5.3
		C99.9,154,99.6,153.8,99.3,153.8"/>
	<path class="st73" d="M110.2,176.2h1H110.2 M88.5,184.7v-7.5h6.1c0.3,0,0.5-0.1,0.7-0.3c0.2-0.2,0.3-0.4,0.3-0.7v-6.1h7.5v6.1
		c0,0.3,0.1,0.5,0.3,0.7c0.2,0.2,0.4,0.3,0.7,0.3h6.1v7.5h-6.1c-0.3,0-0.5,0.1-0.7,0.3c-0.2,0.2-0.3,0.4-0.3,0.7v6.1h-7.5l0-6.1
		c0-0.3-0.1-0.5-0.3-0.7c-0.2-0.2-0.4-0.3-0.7-0.3H88.5 M104.1,168.1h-9.5c-0.3,0-0.5,0.1-0.7,0.3c-0.2,0.2-0.3,0.4-0.3,0.7v6.1
		h-6.1c-0.3,0-0.5,0.1-0.7,0.3c-0.2,0.2-0.3,0.4-0.3,0.7v9.5c0,0.3,0.1,0.5,0.3,0.7c0.2,0.2,0.4,0.3,0.7,0.3h6.1v6.1
		c0,0.3,0.1,0.5,0.3,0.7c0.2,0.2,0.4,0.3,0.7,0.3h9.5c0.3,0,0.5-0.1,0.7-0.3c0.2-0.2,0.3-0.4,0.3-0.7v-6.1h6.1
		c0.3,0,0.5-0.1,0.7-0.3c0.2-0.2,0.3-0.4,0.3-0.7v-9.5c0-0.3-0.1-0.5-0.3-0.7c-0.2-0.2-0.4-0.3-0.7-0.3l0,0h-6.1l0-6.1
		c0-0.3-0.1-0.5-0.3-0.7C104.6,168.2,104.3,168.1,104.1,168.1"/>
	<g>
		<path class="st73" d="M33.6,54C19.7,54,8.4,65.3,8.4,79.3c0,13.9,11.3,25.2,25.2,25.2c13.9,0,25.2-11.3,25.2-25.2
			C58.9,65.3,47.5,54,33.6,54z M50,95.7c-4.2,4.2-10,6.8-16.4,6.8c-6.4,0-12.2-2.6-16.4-6.8c-4.2-4.2-6.8-10-6.8-16.4
			c0-6.4,2.6-12.2,6.8-16.4c4.2-4.2,10-6.8,16.4-6.8c6.4,0,12.2,2.6,16.4,6.8c4.2,4.2,6.8,10,6.8,16.4C56.9,85.7,54.2,91.5,50,95.7z
			"/>
		<path class="st73" d="M42.8,78.4l-7.1-4.1l-7.1-4.1c-0.2-0.1-0.3-0.1-0.5-0.1c-0.2,0-0.3,0-0.5,0.1c-0.3,0.2-0.5,0.5-0.5,0.9v8.1
			v8.1c0,0.4,0.2,0.7,0.5,0.9c0.2,0.1,0.3,0.1,0.5,0.1c0.2,0,0.3,0,0.5-0.1l7.1-4.1l7.1-4.1c0.3-0.2,0.5-0.5,0.5-0.9
			C43.3,78.9,43.1,78.6,42.8,78.4z M34.7,82.5l-5.6,3.2v-6.4v-6.4l5.6,3.2l5.6,3.2L34.7,82.5z"/>
	</g>
	<path class="st3" d="M271.5,147.9c-4.4,0-8.2-3-9.3-7.1c2.7,1,5.7,1.6,8.8,1.6c4.4,0,7.9-3.5,7.9-7.9s-3.5-7.9-7.9-7.9
		c-5.3,0-9.6-4.3-9.6-9.6c0-0.7-0.1-1.4-0.3-2.1v-6.1c0-19.4-15.7-35.1-35.1-35.1c-19.4,0-35.1,15.7-35.1,35.1v6.1
		c-0.2,0.7-0.3,1.3-0.3,2.1c0,5.3-4.3,9.6-9.6,9.6c-4.4,0-7.9,3.5-7.9,7.9s3.5,7.9,7.9,7.9c3.5,0,6.8-0.7,9.8-2
		c-1,4.3-4.8,7.5-9.4,7.5c-4.4,0-7.9,3.5-7.9,7.9c0,4.4,3.5,7.9,7.9,7.9c6.9,0,13.2-2.8,17.8-7.3v10.4c0,4.4,3.5,7.9,7.9,7.9
		c4.4,0,7.9-3.5,7.9-7.9v-14.8h3.1v18.7c0,4.4,3.5,7.9,7.9,7.9s7.9-3.5,7.9-7.9v-18.7h3.1v14.8c0,4.4,3.5,7.9,7.9,7.9
		c4.4,0,7.9-3.5,7.9-7.9v-11.3c4.6,5,11.3,8.2,18.7,8.2c4.4,0,7.9-3.5,7.9-7.9C279.4,151.4,275.8,147.9,271.5,147.9z"/>
	<circle class="st13" cx="226" cy="111.6" r="17.5"/>
	<circle class="st13" cx="226" cy="111.6" r="17.5"/>
	<g>
		<defs>
			<path id="SVGID_31_" d="M226,94.1c9.7,0,17.5,7.9,17.5,17.5c0,9.7-7.9,17.5-17.5,17.5c-9.7,0-17.5-7.9-17.5-17.5
				C208.5,102,216.3,94.1,226,94.1"/>
		</defs>
		<clipPath id="SVGID_3_">
			<use xlink:href="#SVGID_31_"  style="overflow:visible;"/>
		</clipPath>
		<path style="clip-path:url(#SVGID_3_);fill:#303030;" d="M243.5,106.3c0,6.7-5.5,12.2-12.2,12.2c-6.7,0-12.2-5.5-12.2-12.2
			c0-6.7,5.5-12.2,12.2-12.2C238.1,94.1,243.5,99.6,243.5,106.3z"/>
	</g>
	<path class="st13" d="M294.3,80.4h-9v-4.5c0-1.6,0.2-2.8,0.6-3.6c0.4-0.8,1.3-1.9,2.6-3.3l4-4.2c0.6-0.7,0.9-1.6,0.9-2.8
		c0-1.1-0.3-2.1-0.9-2.8c-0.6-0.8-1.5-1.1-2.5-1.1c-1,0-1.9,0.4-2.6,1.3c-0.7,0.9-1.1,2.1-1.3,3.5h-9.4c0.4-4,1.9-7.1,4.3-9.3
		c2.5-2.3,5.5-3.4,9.2-3.4c3.7,0,6.7,1,9,3c2.3,2,3.5,4.8,3.5,8.4c0,1.6-0.2,2.8-0.6,3.5c-0.4,0.8-0.7,1.3-0.8,1.7s-0.5,0.8-1.1,1.5
		c-0.6,0.7-1,1.1-1.2,1.3c-0.9,0.9-1.8,1.8-2.7,2.7c-0.9,0.8-1.4,1.5-1.7,2c-0.3,0.5-0.4,1.3-0.4,2.4V80.4z M286.2,91.7
		c-1-1-1.5-2.2-1.5-3.7c0-1.5,0.5-2.7,1.5-3.7c1-1,2.2-1.5,3.7-1.5s2.7,0.5,3.7,1.5s1.5,2.2,1.5,3.7c0,1.5-0.5,2.7-1.5,3.7
		s-2.2,1.5-3.7,1.5S287.2,92.7,286.2,91.7z"/>
</g>
</svg>
