<?xml version="1.0" encoding="utf-8"?>
<!-- Generator: Adobe Illustrator 19.2.1, SVG Export Plug-In . SVG Version: 6.00 Build 0)  -->
<svg version="1.1" id="Layer_1" xmlns="http://www.w3.org/2000/svg" xmlns:xlink="http://www.w3.org/1999/xlink" x="0px" y="0px"
	 viewBox="0 0 430 240" style="enable-background:new 0 0 430 240;" xml:space="preserve">
<style type="text/css">
	.st0{fill:none;stroke:#FFD62B;stroke-width:3;stroke-miterlimit:10;}
	.st1{fill:#B0C3C6;}
	.st2{fill:none;stroke:#DEE7E8;stroke-miterlimit:10;}
	.st3{fill:#00A6E2;}
	.st4{fill:none;stroke:#B0C3C6;stroke-width:2;stroke-miterlimit:10;}
	.st5{fill:#666666;}
	.st6{fill:none;stroke:#B0C3C6;stroke-width:2;stroke-linejoin:round;stroke-miterlimit:10;}
	.st7{fill:#00C9ED;}
	.st8{fill:#FFFFFF;stroke:#B0C3C6;stroke-width:2;stroke-linejoin:round;stroke-miterlimit:10;}
	.st9{fill:#303030;}
	.st10{opacity:0.4;fill:#F6F6F6;}
	.st11{fill:none;stroke:#999999;stroke-width:2;stroke-miterlimit:10;}
	.st12{fill:#999999;}
	.st13{fill:#FFFFFF;}
	.st14{clip-path:url(#SVGID_3_);fill:#2F3537;}
	.st15{opacity:0.3;fill:none;stroke:#9FB1B3;stroke-width:2;stroke-miterlimit:10;}
	.st16{fill:none;stroke:#FFFFFF;stroke-miterlimit:10;}
	.st17{fill:#FFFFFF;stroke:#FFFFFF;stroke-miterlimit:10;}
	.st18{fill:none;stroke:#303030;stroke-miterlimit:10;}
	.st19{opacity:0.8;fill:#B0C3C6;}
	.st20{opacity:0.7;}
	.st21{opacity:0.8;clip-path:url(#SVGID_5_);fill:#00A6E2;}
	.st22{opacity:0.8;fill:#00A6E2;}
	.st23{opacity:0.8;clip-path:url(#SVGID_7_);fill:#00A6E2;}
	.st24{clip-path:url(#SVGID_9_);}
	.st25{clip-path:url(#SVGID_11_);}
	.st26{fill:none;stroke:#B0C3C6;stroke-width:3;stroke-linejoin:round;stroke-miterlimit:10;}
	.st27{opacity:0.3;fill:none;stroke:#9FB1B3;stroke-width:3;stroke-miterlimit:10;}
	.st28{fill:#FFFFFF;stroke:#B0C3C6;stroke-width:3;stroke-linejoin:round;stroke-miterlimit:10;}
	.st29{clip-path:url(#SVGID_13_);fill:#2F3537;}
	.st30{clip-path:url(#SVGID_14_);fill:#2F3537;}
	.st31{clip-path:url(#SVGID_16_);fill:#B0C3C6;}
	.st32{fill:#33B8E8;}
	.st33{fill:#238DB4;}
	.st34{fill:#E2E7E8;}
	.st35{clip-path:url(#SVGID_20_);}
	.st36{fill:#FFFFFF;stroke:#B0C3C6;stroke-width:2;stroke-miterlimit:10;}
	.st37{fill:#B4CBCE;}
	.st38{fill:#003147;}
	.st39{fill:#FFD62B;}
	.st40{fill:#00B78E;}
	.st41{fill:#FF7824;}
	.st42{fill:#FF3223;}
	.st43{fill:#7955DF;}
	.st44{fill:none;stroke:#FF3223;stroke-width:2;stroke-miterlimit:10;}
	.st45{fill:none;stroke:#00A6E2;stroke-width:2;stroke-miterlimit:10;}
	.st46{clip-path:url(#SVGID_22_);fill:#303030;}
	.st47{fill:#F5C81F;}
	.st48{fill:#F49F90;}
	.st49{fill:#F3EEDE;}
	.st50{fill-rule:evenodd;clip-rule:evenodd;fill:#FFFFFF;}
	.st51{fill:#00131F;}
	.st52{clip-path:url(#SVGID_24_);fill:#303030;}
	.st53{fill:none;stroke:#FFFFFF;stroke-width:2;stroke-miterlimit:10;}
	.st54{clip-path:url(#SVGID_25_);fill:#303030;}
	.st55{clip-path:url(#SVGID_26_);fill:#303030;}
	.st56{opacity:0.3;fill:#B0C3C6;stroke:#B0C3C6;stroke-width:3;stroke-miterlimit:10;}
	.st57{fill:#FBFFFF;stroke:#9FB1B3;stroke-width:2;stroke-miterlimit:10;}
	.st58{fill:none;stroke:#666666;stroke-width:2;stroke-miterlimit:10;}
	.st59{clip-path:url(#SVGID_28_);fill:#2F3537;}
	.st60{fill-rule:evenodd;clip-rule:evenodd;fill:#00131F;}
	.st61{fill:#BBBBBB;}
	.st62{fill:#FF6434;}
	.st63{fill:#B5F0F5;}
	.st64{fill:none;stroke:#B0C3C6;stroke-width:3;stroke-miterlimit:10;}
	.st65{fill:#B0C3C6;stroke:#B0C3C6;stroke-width:2;stroke-miterlimit:10;}
	.st66{fill:#EBFAFB;}
	.st67{clip-path:url(#SVGID_30_);}
	.st68{fill:#DEE7E8;}
	.st69{fill:none;}
	.st70{fill:#757575;}
	.st71{fill:#FFFFFF;stroke:#808184;stroke-width:2;stroke-linejoin:round;stroke-miterlimit:10;}
	.st72{fill:none;stroke:#808184;stroke-width:2;stroke-linejoin:round;stroke-miterlimit:10;}
	.st73{fill:#333435;}
	.st74{clip-path:url(#SVGID_32_);fill:#303030;}
	.st75{clip-path:url(#SVGID_34_);fill:#303030;}
	.st76{opacity:0.8;}
	.st77{fill:#576263;}
	.st78{opacity:0.2;fill:#9FB1B3;}
	.st79{opacity:0.2;fill:none;stroke:#9FB1B3;stroke-miterlimit:10;}
	.st80{opacity:0.3;}
	.st81{fill:#FBFBFB;}
	.st82{clip-path:url(#SVGID_36_);fill:#303030;}
	.st83{fill:#A4A4A4;}
	.st84{clip-path:url(#SVGID_38_);fill:#303030;}
	.st85{fill:none;stroke:#808184;stroke-width:2;stroke-miterlimit:10;}
	.st86{clip-path:url(#SVGID_40_);fill:#303030;}
	.st87{clip-path:url(#SVGID_42_);fill:#303030;}
	.st88{clip-path:url(#SVGID_44_);fill:#B0C3C6;}
	.st89{clip-path:url(#SVGID_46_);}
	.st90{clip-path:url(#SVGID_48_);fill:#303030;}
	.st91{fill:#1A1A1B;}
	.st92{clip-path:url(#SVGID_50_);fill:#303030;}
</style>
<path class="st3" d="M270.1,145.9c-4.4,0-8.2-3-9.3-7.1c2.8,1,5.7,1.6,8.8,1.6c4.4,0,7.9-3.5,7.9-7.9c0-4.4-3.5-7.9-7.9-7.9
	c-5.3,0-9.9-4.3-9.9-9.6c0-0.7,0-2.1,0-2.1v-6.1c0-19.4-15.7-35.2-35.2-35.2s-35.2,15.7-35.2,35.2v6.1c0,0,0,1.3,0,2.1
	c0,5.3-4.6,9.6-9.9,9.6c-4.4,0-7.9,3.5-7.9,7.9c0,4.4,3.5,7.9,7.9,7.9c3.5,0,6.8-0.7,9.8-2c-1,4.3-4.8,7.5-9.4,7.5
	c-4.4,0-7.9,3.5-7.9,7.9c0,4.4,3.5,7.9,7.9,7.9c6.9,0,13.2-2.8,17.8-7.3v10.4c0,4.4,3.5,7.9,7.9,7.9c4.4,0,7.9-3.5,7.9-7.9v-14.8
	h3.1v18.7c0,4.4,3.5,7.9,7.9,7.9s7.9-3.5,7.9-7.9v-18.7h3.1v14.8c0,4.4,3.5,7.9,7.9,7.9s7.9-3.5,7.9-7.9v-11.4
	c4.7,5.1,11.3,8.2,18.7,8.2c4.4,0,7.9-3.5,7.9-7.9C278,149.5,274.4,145.9,270.1,145.9z"/>
<circle class="st13" cx="224.6" cy="109.7" r="17.5"/>
<path class="st9" d="M241.9,112.5c-1.1-5.5-6.1-9.7-11.9-9.7c-6.7,0-12.2,5.5-12.2,12.2c0,5.9,4.2,10.8,9.7,11.9
	C234.8,125.7,240.6,119.9,241.9,112.5z"/>
<g>
	<path class="st73" d="M58.1,64.1c-0.2-0.2-0.4-0.3-0.7-0.3h-51c-0.3,0-0.5,0.1-0.7,0.3c-0.2,0.2-0.3,0.4-0.3,0.7v51
		c0,0.3,0.1,0.5,0.3,0.7c0.2,0.2,0.4,0.3,0.7,0.3h51c0.3,0,0.5-0.1,0.7-0.3c0.2-0.2,0.3-0.4,0.3-0.7v-51
		C58.4,64.6,58.3,64.3,58.1,64.1z M7.3,65.8h49V76h-49V65.8z M56.4,114.9h-49V78h49V114.9z"/>
	<path class="st73" d="M13,67.5c-1.9,0-3.4,1.5-3.4,3.4s1.5,3.4,3.4,3.4c1.9,0,3.4-1.5,3.4-3.4S14.9,67.5,13,67.5z M13,72.3
		c-0.8,0-1.4-0.6-1.4-1.4c0-0.8,0.6-1.4,1.4-1.4c0.8,0,1.4,0.6,1.4,1.4C14.4,71.7,13.8,72.3,13,72.3z"/>
	<path class="st73" d="M22.1,67.5c-1.9,0-3.4,1.5-3.4,3.4s1.5,3.4,3.4,3.4c1.9,0,3.4-1.5,3.4-3.4C25.5,69,24,67.5,22.1,67.5z
		 M22.1,72.3c-0.8,0-1.4-0.6-1.4-1.4c0-0.8,0.6-1.4,1.4-1.4c0.8,0,1.4,0.6,1.4,1.4C23.5,71.7,22.9,72.3,22.1,72.3z"/>
	<path class="st73" d="M31.2,67.5c-1.9,0-3.4,1.5-3.4,3.4s1.5,3.4,3.4,3.4c1.9,0,3.4-1.5,3.4-3.4S33.1,67.5,31.2,67.5z M31.2,72.3
		c-0.8,0-1.4-0.6-1.4-1.4c0-0.8,0.6-1.4,1.4-1.4c0.8,0,1.4,0.6,1.4,1.4C32.7,71.7,32,72.3,31.2,72.3z"/>
	<path class="st73" d="M10.2,91.2l1.4,1.4l4.6-4.6c0.1-0.1,0.2-0.2,0.4-0.4c0.1-0.2,0.2-0.4,0.2-0.8c0-0.3-0.1-0.6-0.2-0.8
		c-0.1-0.2-0.2-0.3-0.4-0.4l-4.6-4.6l-0.7,0.7l-0.7,0.7l0.7,0.7l3.6,3.6l-3.6,3.6L10.2,91.2z"/>
	<polygon class="st73" points="16.6,92.2 16.6,93.2 25.8,93.2 25.8,91.2 16.6,91.2 	"/>
</g>
<path class="st73" d="M356.2,41.3c-15.9,0-28.8,12.9-28.8,28.8c0,15.9,12.9,28.8,28.8,28.8c15.9,0,28.8-12.9,28.8-28.8
	C385,54.2,372.1,41.3,356.2,41.3z M361.2,50.2c0.1,0.4,0.4,0.7,0.8,0.8c0.1,0,0.3,0,0.4,0.1c-0.1,0-0.2,0.1-0.3,0.1
	c-0.9,0.2-2,0.5-3.3,1.2c-0.3,0.2-0.5,0.4-0.8,0.6c-0.9,0.8-2,2.1-2.9,3.3c-0.4,0.5-0.7,0.9-1,1.3c-0.2-0.2-0.5-0.4-0.8-0.6
	c-0.4-0.3-1-0.5-1.6-0.5l-0.2,0h0c-0.9,0.1-1.8,0.1-2.7,0.4c-0.5,0.2-0.9,0.4-1.3,0.8c-0.4,0.4-0.7,0.9-0.9,1.5
	c-0.3,0.7-0.4,1.2-0.4,1.8c0,0.2,0,0.4,0.1,0.7c0,0,0,0,0,0c-0.6-0.2-1-0.4-1.3-0.7c0,0-0.1-0.1-0.1-0.3c-0.3-0.6-0.7-1.7-1.1-2.6
	c-0.2-0.5-0.4-0.9-0.7-1.3c-0.1-0.2-0.3-0.4-0.5-0.6c-0.2-0.2-0.5-0.3-0.9-0.4c-0.1,0-0.2,0-0.3,0c-0.2-0.8-0.3-1.7-0.3-2.4
	c0-0.2,0-0.4,0-0.5v0c0-0.2,0.1-0.3,0.2-0.6c0.2-0.3,0.7-0.7,1.1-1.2c0.2-0.3,0.5-0.6,0.6-0.9c0.2-0.4,0.3-0.8,0.3-1.3
	c0-0.5-0.1-1-0.3-1.5l0,0c0-0.1-0.1-0.2-0.1-0.2c2.8-1.6,5.8-2.7,9.1-3.3c2-0.1,4.7-0.2,6.9-0.2c-0.2,0.1-0.5,0.2-0.7,0.3
	c-0.7,0.3-1.4,0.7-1.9,1c-0.3,0.2-0.5,0.3-0.7,0.6c-0.1,0.1-0.2,0.2-0.3,0.4c-0.1,0.2-0.2,0.4-0.2,0.7c0,0,0,0.1,0,0.3
	c0,0.1,0.1,0.2,0.1,0.2c0.1,0.1,0.1,0.2,0.1,0.2l0.1,0.1c0.2,0.1,0.4,0.3,0.7,0.6c0.5,0.4,1,0.8,1.5,1.1c0.2,0.2,0.4,0.3,0.5,0.4
	l0.1,0.1c0.1,0.2,0.3,0.3,0.5,0.3c0.2,0,0.4,0.1,0.5,0.1c0.8,0,1.4-0.4,1.9-0.8c0.7-0.6,1.3-1.4,1.8-1.9c0.3-0.3,0.5-0.5,0.8-0.6
	c0.2-0.1,0.5-0.2,0.7-0.2c0.2,0,0.5,0,0.8,0.2c0.1,0.2,0.1,0.3,0.2,0.5c0.2,0.4,0.4,0.8,0.6,1.1c-0.1,0-0.1,0-0.2,0.1
	c-0.6,0.1-1.4,0.2-2.2,0.3c-0.4,0-0.7,0.1-1.1,0.2c-0.3,0.1-0.6,0.1-1,0.3C361.3,49.4,361.1,49.8,361.2,50.2z M341.1,48
	c0.5-0.3,1-0.6,1.5-0.9C342.1,47.4,341.6,47.7,341.1,48z M361.3,43.8c0.3,0.1,0.6,0.1,0.9,0.2C361.8,43.9,361.5,43.9,361.3,43.8z
	 M362.5,44.1c0.6,0.1,1.1,0.3,1.7,0.5c-0.7,0.1-1.3,0.4-1.8,0.7c-0.9,0.6-1.4,1.4-2,2c-0.3,0.3-0.5,0.5-0.7,0.6
	c-0.2,0.1-0.3,0.1-0.4,0.2c0,0,0,0,0,0c-0.4-0.3-1.1-0.8-1.7-1.3c-0.1-0.1-0.2-0.1-0.3-0.2c0.4-0.2,0.8-0.5,1.3-0.7
	c1-0.5,2.1-0.9,3-1.3C361.9,44.3,362.2,44.2,362.5,44.1z M358.2,43.4c0.3,0,0.7,0.1,1,0.1C358.9,43.5,358.6,43.5,358.2,43.4z
	 M359.8,43.6c0.3,0,0.6,0.1,0.9,0.1C360.4,43.7,360.1,43.6,359.8,43.6z M364.2,44.5c0.5,0.1,0.9,0.3,1.4,0.5
	C365.1,44.9,364.7,44.7,364.2,44.5z M366,45.2c0.3,0.1,0.7,0.3,1,0.4C366.6,45.4,366.3,45.3,366,45.2z M357.7,43.4c-0.5,0-1,0-1.5,0
	c-0.7,0-1.4,0-2,0.1c0.7,0,1.3-0.1,2-0.1C356.7,43.3,357.2,43.4,357.7,43.4z M351.9,43.7c0.6-0.1,1.3-0.2,1.9-0.2
	C353.2,43.5,352.6,43.6,351.9,43.7z M375.2,89.1c-4.9,4.8-11.5,7.8-18.9,7.8c-7.4,0-14.1-3-18.9-7.8c-4.8-4.9-7.8-11.5-7.8-18.9
	c0-7.4,3-14.1,7.8-18.9c1.1-1.1,2.4-2.2,3.7-3.1c0.1,0.3,0.2,0.5,0.2,0.7c0,0.2-0.1,0.4-0.2,0.6c-0.2,0.3-0.6,0.7-1.1,1.2
	c-0.2,0.2-0.5,0.5-0.7,0.9c-0.2,0.3-0.3,0.8-0.4,1.2l0,0c0,0.2,0,0.4,0,0.7c0,2.2,0.7,4.7,2.2,6.6c0.2,0.2,0.5,0.4,0.8,0.4
	c0.2,0,0.3,0,0.5-0.1c0.1,0.1,0.1,0.3,0.1,0.4c0.1,0.3,0.3,0.7,0.4,0.9c0.1,0.1,0.1,0.3,0.2,0.4c0.1,0.1,0.2,0.3,0.3,0.4
	c0.9,0.8,2.1,1.2,3.2,1.4c1.1,0.3,2.1,0.4,2.8,0.7c0.3,0.1,0.5,0.2,0.6,0.4c0.2,0.2,0.5,0.5,0.9,0.9c0.3,0.3,0.7,0.6,1.3,0.8
	c-0.6,1-0.9,2.2-0.9,3.5c0,0.9,0.2,1.8,0.5,2.7c0.3,0.6,0.7,1.1,1.1,1.6c0.6,0.6,1.3,1,1.8,1.4c0.5,0.4,0.9,0.7,1.1,1.2
	c0.2,0.4,0.3,0.9,0.4,1.5c0.1,0.6,0.1,1.2,0.1,1.9c0,0.2,0,0.5,0,0.7c0,0.8,0,1.7,0.2,2.6l0,0c0.2,1,0.5,2.3,1.1,3.5
	c0.5,1.1,1.1,2.1,2,2.9c0.1,0.1,0.2,0.1,0.2,0.2c0,0,0,0,0,0c0,0,0.1,0.1,0.1,0.1c0.1,0.1,0.3,0.1,0.4,0.1c0,0,0,0,0,0c0,0,0,0,0,0
	c0.4,0,0.8-0.2,1.1-0.4c0.4-0.4,0.6-0.8,0.7-1.2c0.1-0.4,0.1-0.9,0.1-1.3c0-0.5-0.1-1.1-0.2-1.6c0.2-0.1,0.3-0.1,0.4-0.2
	c0.3-0.2,0.5-0.4,0.7-0.6c0.2-0.4,0.3-0.7,0.4-1.1c0-0.3,0.1-0.5,0.1-0.7c0.2,0,0.5-0.1,0.7-0.2c0.3-0.2,0.6-0.4,0.7-0.6
	c0.3-0.3,0.4-0.6,0.6-0.9c0.2-0.2,0.3-0.5,0.6-0.7c0.1-0.1,0.8-0.7,1.5-1.3c0.4-0.3,0.7-0.6,1-0.9c0.1-0.1,0.2-0.2,0.3-0.3l0,0
	c0.1-0.1,0.2-0.2,0.3-0.3c0.6-0.9,1.1-1.7,1.5-2.5c0.4-0.8,0.6-1.6,0.6-2.4c0-0.7-0.2-1.3-0.5-1.9c-0.3-0.6-0.8-1.1-1.4-1.6
	c-0.2-0.2-0.4-0.3-0.6-0.3c-0.3-0.1-0.7-0.2-1.1-0.3c-0.6-0.1-1.2-0.3-1.8-0.4c-0.1,0-0.2,0-0.3-0.1c0-0.2-0.1-0.4-0.1-0.6
	c-0.1-0.2-0.3-0.4-0.4-0.5c-0.2-0.1-0.3-0.3-0.6-0.4c-1.1-0.7-2.4-1.5-3.7-2.1c-1.4-0.6-2.8-1.2-4.4-1.2l-0.1,0
	c-0.7,0-1.4,0.2-2.1,0.6c-0.4,0.2-0.7,0.5-1,0.8c-0.1-0.2-0.2-0.4-0.3-0.6c-0.1-0.2-0.1-0.4-0.1-0.7c0-0.2-0.1-0.4-0.2-0.7
	c-0.1-0.4-0.5-0.8-0.9-1c0,0,0,0-0.1,0c0-0.2,0.1-0.4,0.1-0.6c0-0.3-0.1-0.6-0.2-0.9c-0.1-0.3-0.3-0.5-0.5-0.6
	c-0.2-0.1-0.4-0.1-0.6-0.1c-0.2,0-0.4,0-0.5,0.1c-0.5,0.1-1,0.4-1.5,0.6c-0.2,0.1-0.5,0.2-0.7,0.2c0,0-0.1,0-0.1,0
	c0-0.2,0.1-0.4,0.2-0.7c0.2-0.4,0.3-0.7,0.5-0.8c0.2-0.2,0.5-0.3,0.9-0.4c0.4-0.1,1.1-0.1,1.8-0.2h0l0.1,0c0.1,0,0.3,0,0.5,0.1
	c0.3,0.1,0.6,0.4,0.9,0.7c0.1,0.1,0.3,0.2,0.4,0.4c0.1,0.1,0.1,0.1,0.3,0.2c0.1,0.1,0.3,0.2,0.6,0.2l0.2,0c0.2,0,0.2-0.1,0.3-0.1
	c0.1-0.1,0.1-0.1,0.2-0.1l0.1-0.1l0.1-0.1l0,0c0.2-0.2,1.1-1.4,2.1-2.7c0.5-0.6,1-1.3,1.5-1.8c0.2-0.3,0.5-0.5,0.6-0.6
	c0.2-0.2,0.3-0.3,0.4-0.3c1.1-0.6,1.9-0.7,2.8-1c0.9-0.2,2-0.5,3.1-1.3c0.3-0.2,0.5-0.5,0.4-0.9c0-0.2-0.1-0.3-0.2-0.5
	c0.3-0.1,0.5-0.1,0.8-0.2c0.4-0.1,0.8-0.3,1.1-0.5c0.2-0.1,0.4-0.3,0.5-0.5c0.1-0.2,0.2-0.5,0.2-0.8c0,0,0,0,0,0c0,0,0,0,0,0
	c0-0.4-0.2-0.7-0.6-0.9c0-0.1-0.1-0.1-0.2-0.2c-0.2-0.3-0.4-0.6-0.5-0.9c0-0.1-0.1-0.1-0.1-0.2c0-0.1,0-0.2,0-0.4c0,0,0-0.1,0-0.1
	c3,1.3,5.7,3.2,8,5.5C380,56,383,62.7,383,70.1C383,77.5,380,84.2,375.2,89.1z M349.2,62.2c0.2-0.1,0.3-0.1,0.5-0.2
	c-0.1,0.1-0.1,0.2-0.1,0.3C349.4,62.3,349.3,62.3,349.2,62.2z M363.7,69.4c0.1,0.2,0.3,0.3,0.4,0.4c0.1,0.1,0.2,0.1,0.3,0.2
	c0.2,0.1,0.3,0.1,0.5,0.2c0.6,0.2,1.4,0.3,2.2,0.5c0.4,0.1,0.7,0.2,1,0.2c0.1,0,0.2,0.1,0.3,0.1l0.1,0c0.5,0.4,0.7,0.7,0.9,1
	c0.2,0.3,0.2,0.6,0.2,1c0,0.4-0.1,1-0.4,1.6c-0.3,0.6-0.7,1.3-1.2,2.1c-0.1,0.1-0.3,0.3-0.6,0.5c-0.9,0.7-2.2,1.9-2.3,2
	c-0.8,0.7-1.1,1.4-1.3,1.7c-0.1,0.1-0.1,0.1-0.2,0.2c-0.1,0-0.2,0.1-0.5,0.1l-0.2,0c0,0,0,0,0,0c-0.4,0-0.8,0.3-0.9,0.6
	c-0.1,0.2-0.1,0.3-0.1,0.4c0,0.1,0,0.2,0,0.3c0,0.2,0,0.3,0,0.4c0,0.4,0,0.7-0.1,0.8l-0.1,0.1c0,0-0.1,0-0.2,0c-0.1,0-0.2,0-0.4,0
	c-0.1,0-0.1,0-0.2,0c-0.4,0-0.7,0.2-0.9,0.5c-0.2,0.4-0.1,0.9,0.2,1.2c0,0,0,0.1,0.1,0.2c0.1,0.3,0.3,1,0.3,1.6c0,0.2,0,0.3,0,0.4
	c-0.3-0.4-0.7-1-0.9-1.6c-0.5-1-0.8-2.1-0.9-3v0c-0.1-0.6-0.1-1.4-0.1-2.2c0-0.2,0-0.5,0-0.7c0-0.7,0-1.4-0.1-2.1
	c-0.1-0.7-0.3-1.4-0.6-2.1c-0.3-0.6-0.7-1-1.1-1.4c-0.6-0.5-1.2-0.9-1.7-1.3c-0.5-0.4-0.9-0.8-1.1-1.3c-0.3-0.6-0.4-1.2-0.4-1.9
	c0-1.2,0.5-2.4,1.1-3.3c0.3-0.4,0.7-0.8,1.1-1c0.4-0.2,0.7-0.3,1-0.3l0,0c1.1,0,2.3,0.4,3.6,1c1.2,0.5,2.3,1.3,3.3,1.9
	c0,0.1-0.1,0.3-0.1,0.4C363.5,69,363.6,69.2,363.7,69.4z"/>
<path class="st73" d="M357.8,183.3L357.8,183.3c-1.4,0-2.6-0.5-3.5-1.4c-0.9-0.9-1.4-2.1-1.4-3.5c0-1.4,0.5-2.6,1.4-3.5
	c0.9-0.9,2.1-1.4,3.5-1.4c1.4,0,2.6,0.5,3.5,1.4c0.9,0.9,1.4,2.1,1.4,3.5c0,1.4-0.5,2.6-1.4,3.5S359.2,183.3,357.8,183.3
	 M357.8,171.5c-3.8,0-6.9,3.1-6.9,6.9c0,3,1.9,5.6,4.6,6.5c0.7-0.1,1.5-0.1,2.3-0.1l0,0c0.8,0,1.6,0,2.3,0.1
	c2.7-0.9,4.6-3.5,4.6-6.5C364.7,174.6,361.6,171.5,357.8,171.5"/>
<path class="st73" d="M357.8,184.8c-0.8,0-1.6,0-2.3,0.1c-2,0.2-3.8,0.8-5.3,1.6c0.7,0.4,1.4,0.8,2,1.3c1.6-0.6,3.5-1,5.6-1l0,0
	c3.3,0,6,0.9,7.9,2.3c1.9,1.4,2.9,3.3,2.9,5.6v0.5h-11.1c0.2,0.6,0.4,1.3,0.5,2h11.6c0.3,0,0.5-0.1,0.7-0.3c0.2-0.2,0.3-0.4,0.3-0.7
	v-1.5c0-2.9-1.4-5.5-3.7-7.2c-1.8-1.3-4.1-2.2-6.8-2.5C359.4,184.8,358.6,184.8,357.8,184.8L357.8,184.8"/>
<path class="st73" d="M318.9,183.3L318.9,183.3c-1.4,0-2.6-0.5-3.5-1.4s-1.4-2.1-1.4-3.5c0-1.4,0.5-2.6,1.4-3.5
	c0.9-0.9,2.1-1.4,3.5-1.4c1.4,0,2.6,0.5,3.5,1.4c0.9,0.9,1.4,2.1,1.4,3.5c0,1.4-0.5,2.6-1.4,3.5
	C321.5,182.8,320.2,183.3,318.9,183.3 M318.9,171.5c-3.8,0-6.9,3.1-6.9,6.9c0,3,1.9,5.6,4.6,6.5c0.7-0.1,1.5-0.1,2.3-0.1l0,0
	c0.8,0,1.6,0,2.3,0.1c2.7-0.9,4.6-3.5,4.6-6.5C325.8,174.6,322.7,171.5,318.9,171.5"/>
<path class="st73" d="M318.9,184.8c-0.8,0-1.6,0-2.3,0.1c-2.7,0.3-5,1.2-6.8,2.5c-2.3,1.7-3.7,4.3-3.7,7.2v1.5
	c0,0.3,0.1,0.5,0.3,0.7c0.2,0.2,0.4,0.3,0.7,0.3h11.6c0.1-0.7,0.3-1.4,0.5-2h-11.1l0-0.5c0-2.3,1-4.2,2.9-5.6
	c1.9-1.4,4.6-2.3,7.9-2.3l0,0c2.1,0,4,0.4,5.6,1c0.6-0.5,1.3-0.9,2-1.3c-0.2-0.1-0.4-0.2-0.7-0.3c-1.4-0.6-2.9-1-4.6-1.2
	C320.4,184.8,319.7,184.8,318.9,184.8L318.9,184.8"/>
<path class="st73" d="M336.7,183.7c-1.4-0.3-2.6-1-3.5-1.9c-1.3-1.3-2.1-3.1-2.1-5.1s0.8-3.8,2.1-5.1c1.3-1.3,3.1-2.1,5.1-2.1
	c2,0,3.8,0.8,5.1,2.1c1.3,1.3,2.1,3.1,2.1,5.1s-0.8,3.8-2.1,5.1c-1,1-2.2,1.6-3.5,1.9c-0.5,0.1-1.1,0.2-1.6,0.2l0,0
	C337.8,183.9,337.3,183.9,336.7,183.7 M338.4,167.4c-5.1,0-9.3,4.2-9.3,9.3c0,3.1,1.5,5.9,3.9,7.5c1.5,1.1,3.4,1.7,5.4,1.7l0,0
	c2,0,3.9-0.6,5.4-1.7c2.3-1.7,3.9-4.4,3.9-7.5C347.6,171.5,343.5,167.4,338.4,167.4"/>
<path class="st73" d="M322.8,200.5l0-1.1c0-3.3,1.5-6.1,4.2-8.1c2.7-2,6.6-3.3,11.3-3.3l0,0c4.7,0,8.6,1.2,11.3,3.3
	c2.7,2,4.2,4.8,4.2,8.1v1.1H322.8 M338.4,186c-5,0-9.4,1.3-12.5,3.7c-3.1,2.3-5,5.8-5,9.7v2.1c0,0.3,0.1,0.5,0.3,0.7
	c0.2,0.2,0.4,0.3,0.7,0.3h33.1c0.3,0,0.5-0.1,0.7-0.3c0.2-0.2,0.3-0.4,0.3-0.7v-2.1c0-4-1.9-7.4-5-9.7
	C347.7,187.3,343.4,186,338.4,186L338.4,186"/>
<path class="st73" d="M127.6,190.5l6.9-6.9c0.1-0.1,0.1-0.1,0.2-0.2l5.8-5.8c0.5-0.5,0.8-1.2,0.8-1.9c0-0.7-0.3-1.4-0.8-1.9
	l-8.3-8.3c-0.5-0.5-1.2-0.8-1.9-0.8c0,0,0,0,0,0s0,0,0,0c-0.7,0-1.4,0.3-1.9,0.8l0,0l-6,6l0,0l-6.9,6.9c-3-3-6-6.1-8.2-8.5
	c-1.1-1.2-2.1-2.2-2.7-2.9c-0.7-0.7-1-1.1-1-1.1l0,0c-0.7-0.7-1.5-1-2.2-1c0,0,0,0,0,0c-0.5,0-1,0.1-1.4,0.3c-0.4,0.2-0.7,0.4-1,0.7
	l-8,8c-0.7,0.7-1,1.5-1,2.3c0,1,0.4,1.8,1,2.3l0,0c0,0,0.4,0.4,1.1,1.1c2.1,2,6.7,6.6,11.3,11.1l-8.3,8.3c-0.1,0.1-0.2,0.2-0.2,0.4
	l-5,15.5c-0.1,0.4,0,0.7,0.2,1c0.2,0.2,0.5,0.3,0.7,0.3c0.1,0,0.2,0,0.3,0l15.9-4.7c0.2,0,0.3-0.1,0.4-0.3l8.2-8.2
	c2.9,2.9,5.9,6,8.2,8.3c1.2,1.2,2.1,2.2,2.8,2.9c0.7,0.7,1.1,1.1,1.1,1.1l0,0c0.6,0.6,1.5,0.9,2.2,0.9c0,0,0,0,0,0
	c0.9,0,1.7-0.3,2.3-0.9l0,0l8-8.1l0,0c0.6-0.6,0.8-1.3,0.9-2.1c0-0.6-0.2-1.3-0.7-1.8C140.2,203.1,133.6,196.5,127.6,190.5z
	 M129.7,166.9L129.7,166.9c0.1-0.1,0.3-0.2,0.5-0.2c0.2,0,0.3,0.1,0.5,0.2l8.3,8.3c0.1,0.1,0.2,0.3,0.2,0.5c0,0.2-0.1,0.3-0.2,0.5
	l-5.2,5.2l-9.3-9.3L129.7,166.9z M104.6,204.5h-3.4l0-3.4l24.7-24.7l3.6,3.6L104.6,204.5z M100.3,184.7l2.4-2.4l-1.4-1.4l-2.4,2.4
	c-1.3-1.2-2.4-2.4-3.4-3.3l5.6-5.6l-1.4-1.4l-5.6,5.6c-1-1-1.6-1.6-1.7-1.7l0,0c-0.2-0.2-0.4-0.6-0.4-0.9c0-0.3,0.1-0.5,0.4-0.8l8-8
	c0.1-0.1,0.3-0.2,0.4-0.3c0.2-0.1,0.3-0.1,0.5-0.1c0.2,0,0.5,0.1,0.9,0.4v0c0.5,0.5,6.1,6.7,12,12.6l-9.4,9.4
	C103.2,187.6,101.7,186.1,100.3,184.7z M123.1,173.6l1.4,1.4L100,199.5l-2.3-0.5L123.1,173.6z M92.2,213.5l4.2-12.8l2.9,0.6v4.1
	c0,0.3,0.1,0.5,0.3,0.7c0.2,0.2,0.4,0.3,0.7,0.3h4l0.9,3.2L92.2,213.5z M106.9,208.5l-0.8-2.7l24.8-24.4l1.5,1.5L106.9,208.5z
	 M138.7,205.6L138.7,205.6l-8,8.1c-0.1,0.1-0.5,0.3-0.9,0.3c0,0,0,0,0,0c-0.3,0-0.6-0.1-0.8-0.3c-0.1-0.1-0.7-0.7-1.7-1.8l5.7-5.7
	l-1.4-1.4l-5.7,5.7c-1-1-2.1-2.2-3.3-3.4l2.4-2.4l-1.4-1.4l-2.4,2.4c-1.4-1.4-2.8-2.9-4.2-4.3l9.3-9.4c2.9,2.9,6,6,8.4,8.4
	c2.4,2.4,4.1,4.1,4.1,4.1c0.1,0.1,0.1,0.2,0.1,0.4C139,205.1,138.8,205.4,138.7,205.6z"/>
<path class="st73" d="M135.8,20.2c4.7,0,8.9-2,11.8-5.2c3,3.2,7.2,5.2,11.8,5.2l0,0c3.9,0,7.4-1.4,10.9-3.6v33.1
	c-0.2,0.6-1.2,3.3-4.2,6.6c-3.3,3.6-8.9,7.9-18.5,10.7c-9.8-2.8-15.5-7.2-18.7-10.8c-1.6-1.8-2.7-3.5-3.3-4.7
	c-0.3-0.6-0.5-1.1-0.6-1.4c-0.1-0.1-0.1-0.3-0.1-0.3V16.6C128.4,18.8,131.9,20.2,135.8,20.2 M147.6,12.5L147.6,12.5
	c-0.3,0-0.6,0.1-0.8,0.4c-2.6,3.2-6.6,5.3-11,5.3c-3.9,0-7.5-1.6-11.3-4.3c-0.2-0.1-0.4-0.2-0.6-0.2c-0.2,0-0.3,0-0.5,0.1
	c-0.3,0.2-0.5,0.5-0.5,0.9v35.1c0,0.1,0,0.2,0,0.3c0,0.1,1,3.4,4.5,7.4c3.5,4,9.6,8.6,19.9,11.5c0.1,0,0.2,0,0.3,0
	c0.1,0,0.2,0,0.3,0c10.3-2.9,16.4-7.5,19.9-11.5c3.5-4,4.4-7.2,4.5-7.4c0-0.1,0-0.2,0-0.3V14.8c0-0.4-0.2-0.7-0.5-0.9
	c-0.1-0.1-0.3-0.1-0.5-0.1c-0.2,0-0.4,0.1-0.6,0.2c-3.9,2.7-7.4,4.3-11.3,4.3l0,0c-4.5,0-8.4-2.1-11-5.3
	C148.2,12.7,147.9,12.5,147.6,12.5"/>
<path class="st73" d="M158.5,34.9h1H158.5 M136.8,43.4v-7.5h6.1c0.3,0,0.5-0.1,0.7-0.3c0.2-0.2,0.3-0.4,0.3-0.7v-6.1h7.5l0,6.1
	c0,0.3,0.1,0.5,0.3,0.7c0.2,0.2,0.4,0.3,0.7,0.3h6.1v7.5h-6.1c-0.3,0-0.5,0.1-0.7,0.3c-0.2,0.2-0.3,0.4-0.3,0.7v6.1h-7.5v-6.1
	c0-0.3-0.1-0.5-0.3-0.7c-0.2-0.2-0.4-0.3-0.7-0.3H136.8 M152.4,26.8h-9.5c-0.3,0-0.5,0.1-0.7,0.3c-0.2,0.2-0.3,0.4-0.3,0.7v6.1h-6.1
	c-0.3,0-0.5,0.1-0.7,0.3c-0.2,0.2-0.3,0.4-0.3,0.7v9.5c0,0.3,0.1,0.5,0.3,0.7c0.2,0.2,0.4,0.3,0.7,0.3h6.1v6.1
	c0,0.3,0.1,0.5,0.3,0.7c0.2,0.2,0.4,0.3,0.7,0.3h9.5c0.3,0,0.5-0.1,0.7-0.3c0.2-0.2,0.3-0.4,0.3-0.7v-6.1h6.1c0.3,0,0.5-0.1,0.7-0.3
	c0.2-0.2,0.3-0.4,0.3-0.7v-9.5c0-0.3-0.1-0.5-0.3-0.7c-0.2-0.2-0.4-0.3-0.7-0.3l0,0h-6.1v-6.1c0-0.3-0.1-0.5-0.3-0.7
	C152.9,26.9,152.6,26.8,152.4,26.8"/>
</svg>
