<?xml version="1.0" encoding="utf-8"?>
<!-- Generator: Adobe Illustrator 19.2.1, SVG Export Plug-In . SVG Version: 6.00 Build 0)  -->
<svg version="1.1" xmlns="http://www.w3.org/2000/svg" xmlns:xlink="http://www.w3.org/1999/xlink" x="0px" y="0px"
	 viewBox="0 0 70 70" style="enable-background:new 0 0 70 70;" xml:space="preserve">
<style type="text/css">
	.st0{fill:#F7F7F7;}
	.st1{fill:none;stroke:#E1E7E8;stroke-miterlimit:10;}
	.st2{fill:none;stroke:#B5C3C6;stroke-width:2;stroke-miterlimit:10;}
	.st3{opacity:0.4;}
	.st4{fill:#FFFFFF;}
	.st5{opacity:0.4;fill:#F7F7F7;}
	.st6{fill:#333333;}
	.st7{fill:none;stroke:#999999;stroke-width:2;stroke-miterlimit:10;}
	.st8{fill:#999999;}
	.st9{fill:#7056DB;}
	.st10{fill:#666666;}
	.st11{fill:#01A5E0;}
	.st12{fill:#FCFCFC;}
	.st13{fill:#F0FBFC;}
	.st14{clip-path:url(#SVGID_2_);}
	.st15{fill:#E1E7E8;}
	.st16{fill:#093448;}
	.st17{fill:none;stroke:#FFFFFF;stroke-miterlimit:10;}
	.st18{fill:#E53528;}
	.st19{fill:#F4F4F4;}
	.st20{fill:#1D282D;}
	.st21{fill:#39B790;}
	.st22{fill:#A3A3A3;}
	.st23{fill-rule:evenodd;clip-rule:evenodd;fill:#FFFFFF;}
	.st24{fill:#ED1C24;}
	.st25{fill:none;stroke:#E2E0E0;stroke-width:2;stroke-miterlimit:10;}
	.st26{fill:#67C9EC;}
	.st27{fill:#B5C3C6;}
	.st28{fill:#051A24;}
	.st29{clip-path:url(#SVGID_6_);fill:#333333;}
	.st30{fill:none;stroke:#E8E8E8;stroke-width:3;stroke-linecap:round;stroke-miterlimit:10;}
	.st31{fill:none;stroke:#E0E0E0;stroke-miterlimit:10;}
	.st32{opacity:0.6;}
	.st33{fill:none;stroke:#666666;stroke-miterlimit:10;}
	.st34{fill:#F4D642;}
	.st35{fill:#E5772F;}
	.st36{fill:none;stroke:#B5C3C6;stroke-miterlimit:10;}
	.st37{fill:#E0E0E0;}
	.st38{fill:none;stroke:#67C9EC;stroke-miterlimit:10;}
	.st39{fill:#FCFCFC;stroke:#E1E7E8;stroke-miterlimit:10;}
	.st40{opacity:0.8;fill:#01A5E0;}
	.st41{fill:none;stroke:#B5C3C6;stroke-width:3;stroke-miterlimit:10;}
	.st42{fill:#FFFFFF;stroke:#808184;stroke-linecap:round;stroke-linejoin:round;stroke-miterlimit:10;}
	.st43{clip-path:url(#SVGID_8_);fill:#333333;}
	.st44{clip-path:url(#SVGID_10_);fill:#333333;}
	.st45{clip-path:url(#SVGID_12_);fill:#333333;}
	.st46{clip-path:url(#SVGID_14_);fill:#34383A;}
	.st47{fill:#EAEAEA;}
	.st48{opacity:0.7;}
	.st49{opacity:0.8;clip-path:url(#SVGID_16_);fill:#01A5E0;}
	.st50{clip-path:url(#SVGID_18_);}
	.st51{fill:#FFFB01;}
	.st52{fill:#DDCA01;}
	.st53{clip-path:url(#SVGID_20_);fill:#5C1619;}
	.st54{clip-path:url(#SVGID_20_);fill:#4D1312;}
	.st55{clip-path:url(#SVGID_20_);}
	.st56{fill:#A4B0B2;}
	.st57{clip-path:url(#SVGID_22_);fill:#333333;}
	.st58{clip-path:url(#SVGID_24_);fill:#333333;}
	.st59{opacity:0.1;}
	.st60{clip-path:url(#SVGID_26_);fill:#333333;}
	.st61{fill:none;stroke:#01A5E0;stroke-width:2;stroke-miterlimit:10;}
	.st62{clip-path:url(#SVGID_28_);fill:#333333;}
	.st63{clip-path:url(#SVGID_30_);fill:#333333;}
	.st64{fill:none;stroke:#FFFFFF;stroke-width:2;stroke-miterlimit:10;}
	.st65{clip-path:url(#SVGID_32_);fill:#333333;}
	.st66{opacity:0.8;fill:#B5C3C6;}
	.st67{opacity:0.8;clip-path:url(#SVGID_34_);fill:#01A5E0;}
	.st68{fill:#A4B0B2;stroke:#A4B0B2;stroke-width:2;stroke-miterlimit:10;}
	.st69{fill:none;stroke:#E53528;stroke-width:2;stroke-miterlimit:10;}
	.st70{opacity:0.8;}
	.st71{fill:#5B6263;}
	.st72{opacity:0.2;fill:#A4B0B2;}
	.st73{opacity:0.2;fill:none;stroke:#A4B0B2;stroke-miterlimit:10;}
	.st74{opacity:0.3;}
	.st75{clip-path:url(#SVGID_36_);fill:#333333;}
	.st76{fill:#EAC839;}
	.st77{fill:#E09F90;}
	.st78{fill:#F2EFDF;}
	.st79{opacity:0.2;}
	.st80{clip-path:url(#SVGID_38_);fill:none;stroke:#FFFFFF;stroke-miterlimit:10;}
	.st81{fill:none;stroke:#093448;stroke-miterlimit:10;}
	.st82{fill:none;stroke:#A4B0B2;stroke-width:2;stroke-miterlimit:10;}
	.st83{fill:#909DA0;}
	.st84{opacity:0.4;fill:#B5C3C6;}
	.st85{clip-path:url(#SVGID_40_);}
	.st86{opacity:6.000000e-02;clip-path:url(#SVGID_40_);fill:url(#SVGID_41_);}
	.st87{fill:#E9FAFC;}
	.st88{fill:none;stroke:#F4D642;stroke-width:3;stroke-miterlimit:10;}
	.st89{fill:#C8F1F6;}
	.st90{clip-path:url(#SVGID_43_);fill:#333333;}
	.st91{opacity:0.3;fill:#B5C3C6;stroke:#B5C3C6;stroke-width:3;stroke-miterlimit:10;}
	.st92{fill:#FDFFFF;}
	.st93{fill:#FDFFFF;stroke:#A4B0B2;stroke-width:2;stroke-miterlimit:10;}
	.st94{clip-path:url(#SVGID_45_);fill:#333333;}
	.st95{clip-path:url(#SVGID_47_);fill:#333333;}
	.st96{clip-path:url(#SVGID_49_);fill:#333333;}
	.st97{fill:none;stroke:#B5C3C6;stroke-width:4;stroke-miterlimit:10;}
	.st98{fill:#FFFFFF;stroke:#B5C3C6;stroke-width:2;stroke-miterlimit:10;}
	.st99{clip-path:url(#SVGID_51_);fill:#333333;}
	.st100{fill:none;stroke:#666666;stroke-width:2;stroke-miterlimit:10;}
	.st101{opacity:0.3;fill:none;stroke:#A4B0B2;stroke-width:2;stroke-miterlimit:10;}
	.st102{fill:#FFFFFF;stroke:#FFFFFF;stroke-miterlimit:10;}
	.st103{fill:none;stroke:#333333;stroke-miterlimit:10;}
	.st104{clip-path:url(#SVGID_53_);fill:#34383A;}
	.st105{fill:#B5C3C6;stroke:#B5C3C6;stroke-width:2;stroke-miterlimit:10;}
	.st106{clip-path:url(#SVGID_55_);fill:#34383A;}
	.st107{fill:none;stroke:#A3A3A3;stroke-width:2;stroke-miterlimit:10;}
	.st108{fill-rule:evenodd;clip-rule:evenodd;fill:#051A24;}
	.st109{fill:#BBBBBB;}
	.st110{fill:#E4643A;}
	.st111{fill:none;stroke:#FCFCFC;stroke-miterlimit:10;}
	.st112{opacity:0.8;clip-path:url(#SVGID_57_);fill:#01A5E0;}
	.st113{clip-path:url(#SVGID_59_);fill:#333333;}
	.st114{clip-path:url(#SVGID_61_);fill:none;stroke:#FFFFFF;stroke-miterlimit:10;}
	.st115{clip-path:url(#SVGID_63_);fill:#333333;}
	.st116{clip-path:url(#SVGID_65_);fill:#333333;}
	.st117{clip-path:url(#SVGID_67_);fill:#333333;}
	.st118{clip-path:url(#SVGID_69_);fill:#34383A;}
	.st119{opacity:0.8;clip-path:url(#SVGID_71_);fill:#01A5E0;}
	.st120{clip-path:url(#SVGID_73_);fill:#333333;}
	.st121{clip-path:url(#SVGID_75_);fill:none;stroke:#FFFFFF;stroke-miterlimit:10;}
	.st122{clip-path:url(#SVGID_77_);fill:#333333;}
	.st123{clip-path:url(#SVGID_79_);fill:#333333;}
	.st124{clip-path:url(#SVGID_81_);fill:#34383A;}
	.st125{opacity:0.8;clip-path:url(#SVGID_83_);fill:#01A5E0;}
	.st126{clip-path:url(#SVGID_85_);fill:#333333;}
	.st127{clip-path:url(#SVGID_87_);fill:none;stroke:#FFFFFF;stroke-miterlimit:10;}
	.st128{clip-path:url(#SVGID_89_);fill:#333333;}
	.st129{clip-path:url(#SVGID_91_);fill:#333333;}
	.st130{clip-path:url(#SVGID_93_);fill:#34383A;}
	.st131{fill:#E1E7E8;stroke:#FFFFFF;stroke-miterlimit:10;}
	.st132{fill:#F7F7F7;stroke:#E1E7E8;stroke-miterlimit:10;}
	.st133{fill:#363636;}
	.st134{opacity:0.1;fill:#5B6263;}
	.st135{fill:#0E1A24;}
	.st136{fill:#5DA3DE;}
	.st137{fill:#1E3448;}
	.st138{fill:#01A5E0;stroke:#01A5E0;stroke-miterlimit:10;}
	.st139{clip-path:url(#SVGID_95_);fill:#333333;}
	.st140{clip-path:url(#SVGID_97_);fill:#333333;}
	.st141{fill:#666666;stroke:#E6E6E6;stroke-width:2;stroke-linejoin:round;stroke-miterlimit:10;}
	.st142{clip-path:url(#SVGID_99_);fill:#383B3C;}
	.st143{opacity:0.5;}
	.st144{fill:none;stroke:#000000;stroke-miterlimit:10;}
	.st145{clip-path:url(#SVGID_101_);fill:#333333;}
	.st146{display:none;}
	.st147{display:inline;opacity:0.1;}
</style>
<g id="Layer_1">
	<g>
		<g>
			<g>
				<g>
					<path class="st27" d="M14.6,46.7c-0.1-0.1-2.8-2.6-5-6.1c-3-4.7-3.6-9-1.9-12.4c4.1-8.1,12.6-7.4,12.7-7.4l-0.1,0.8
						c-0.3,0-8-0.7-11.9,6.9c-3.8,7.5,6.6,17.5,6.7,17.6L14.6,46.7z"/>
					<circle class="st27" cx="19.8" cy="21.2" r="5.1"/>
					<path class="st27" d="M40.6,54.5c-1.2,0-13.5-0.3-19.7-11.2c-4-7-4.1-12.7-3.6-16.2c0.6-3.9,2.1-6.1,2.2-6.2l0.7,0.5
						c0,0-1.5,2.2-2.1,5.9c-0.5,3.4-0.3,8.9,3.5,15.6c6.2,11,18.9,10.8,19,10.8L40.6,54.5C40.6,54.5,40.6,54.5,40.6,54.5z"/>
					<path class="st27" d="M61.2,34.2c0-0.1-3.2-5.6-12.5-12c-10.1-7-22.8-3.2-22.9-3.1l-0.2-0.8c0.1,0,13.2-3.9,23.6,3.2
						c9.4,6.5,12.6,12,12.7,12.2L61.2,34.2z"/>
				</g>
				<circle class="st27" cx="40.2" cy="14.3" r="5.1"/>
				<g>
					<path class="st27" d="M9.2,43.8c0-0.1-1.9-13.2,10.4-21.2C32.9,13.9,40,14.9,40.3,15l-0.1,0.8c0,0-1.8-0.3-5.1,0.5
						c-3.1,0.7-8.2,2.5-15,6.9C8.3,31,10,43.5,10.1,43.6L9.2,43.8z"/>
					<path class="st27" d="M59.9,36c0,0-0.8-4.7-6.2-11.5c-5.4-6.8-13.5-8.7-13.6-8.7l0.2-0.8c0.3,0.1,8.5,2,14.1,9
						c5.6,7,6.3,11.7,6.3,11.9L59.9,36z"/>
					<g>
						<circle class="st27" cx="60" cy="35.9" r="5.1"/>
						
							<rect x="36.8" y="46" transform="matrix(0.7024 -0.7118 0.7118 0.7024 -18.2687 49.1666)" class="st27" width="25.6" height="0.8"/>
						<path class="st27" d="M24.3,60.7c-1.6,0-3.2-0.1-4.8-0.5c-2.7-0.6-4.7-1.9-5.9-3.9c-2.5-4.1-1.1-9.7-1.1-9.9l0.8,0.2
							c0,0.1-1.4,5.4,1,9.3c1.1,1.8,2.9,3,5.4,3.5c9.4,2,20.7-3.3,20.8-3.3l0.4,0.8C40.4,57.1,32.5,60.7,24.3,60.7z"/>
						<circle class="st27" cx="41" cy="55.7" r="5.1"/>
					</g>
				</g>
				<path class="st27" d="M41,52.5l-0.8-0.3c0-0.1,3-8.6,3-18.2c0-9.7-3.4-18.3-3.4-18.4l0.8-0.3c0,0.1,3.5,8.9,3.5,18.7
					C44.1,43.8,41.1,52.4,41,52.5z"/>
				<path class="st27" d="M29.1,48.2C22,48.2,16.3,47,16.2,47l0.2-0.8c0.1,0,13.3,2.7,24.5-0.2c11.2-2.9,17.5-9,17.5-9l0.6,0.6
					c-0.1,0.1-1.6,1.6-4.6,3.5c-2.8,1.8-7.3,4.2-13.3,5.7C37.1,47.9,32.9,48.2,29.1,48.2z"/>
			</g>
			<circle class="st27" cx="12.2" cy="46.3" r="5.1"/>
		</g>
		<path class="st27" d="M57.3,32.2c0.1,0.1,1.8,3.4,2.7,7.4c1.3,5.4,0.5,9.7-2.2,12.4c-6.5,6.3-15.6,5.5-15.7,5.4l0.3-0.8
			c0.3,0.1,8.7,0.6,14.8-5.3c6.1-5.9-0.6-18.7-0.6-18.8L57.3,32.2z"/>
	</g>
</g>
<g id="_x31_100-12_grid" class="st146">
</g>
<g id="Layer_2">
</g>
</svg>
