<?xml version="1.0" encoding="utf-8"?>
<!-- Generator: Adobe Illustrator 19.2.1, SVG Export Plug-In . SVG Version: 6.00 Build 0)  -->
<svg version="1.1" id="Layer_1" xmlns="http://www.w3.org/2000/svg" xmlns:xlink="http://www.w3.org/1999/xlink" x="0px" y="0px"
	 viewBox="0 0 1017.1 445.5" style="enable-background:new 0 0 1017.1 445.5;" xml:space="preserve">
<style type="text/css">
	.st0{fill:none;stroke:#FFD62B;stroke-width:3;stroke-miterlimit:10;}
	.st1{fill:#B0C3C6;}
	.st2{fill:none;stroke:#DEE7E8;stroke-miterlimit:10;}
	.st3{fill:#00A6E2;}
	.st4{fill:none;stroke:#B0C3C6;stroke-width:2;stroke-miterlimit:10;}
	.st5{fill:#666666;}
	.st6{fill:none;stroke:#B0C3C6;stroke-width:2;stroke-linejoin:round;stroke-miterlimit:10;}
	.st7{fill:#00C9ED;}
	.st8{fill:#FFFFFF;stroke:#B0C3C6;stroke-width:2;stroke-linejoin:round;stroke-miterlimit:10;}
	.st9{fill:#303030;}
	.st10{opacity:0.4;fill:#F6F6F6;}
	.st11{fill:none;stroke:#999999;stroke-width:2;stroke-miterlimit:10;}
	.st12{fill:#999999;}
	.st13{fill:#FFFFFF;}
	.st14{clip-path:url(#SVGID_3_);fill:#2F3537;}
	.st15{opacity:0.3;fill:none;stroke:#9FB1B3;stroke-width:2;stroke-miterlimit:10;}
	.st16{fill:none;stroke:#FFFFFF;stroke-miterlimit:10;}
	.st17{fill:#FFFFFF;stroke:#FFFFFF;stroke-miterlimit:10;}
	.st18{fill:none;stroke:#303030;stroke-miterlimit:10;}
	.st19{opacity:0.8;fill:#B0C3C6;}
	.st20{opacity:0.7;}
	.st21{opacity:0.8;clip-path:url(#SVGID_5_);fill:#00A6E2;}
	.st22{opacity:0.8;fill:#00A6E2;}
	.st23{opacity:0.8;clip-path:url(#SVGID_7_);fill:#00A6E2;}
	.st24{clip-path:url(#SVGID_9_);}
	.st25{clip-path:url(#SVGID_11_);}
	.st26{fill:none;stroke:#B0C3C6;stroke-width:3;stroke-linejoin:round;stroke-miterlimit:10;}
	.st27{opacity:0.3;fill:none;stroke:#9FB1B3;stroke-width:3;stroke-miterlimit:10;}
	.st28{fill:#FFFFFF;stroke:#B0C3C6;stroke-width:3;stroke-linejoin:round;stroke-miterlimit:10;}
	.st29{clip-path:url(#SVGID_13_);fill:#2F3537;}
	.st30{clip-path:url(#SVGID_14_);fill:#2F3537;}
	.st31{clip-path:url(#SVGID_16_);fill:#B0C3C6;}
	.st32{fill:#33B8E8;}
	.st33{fill:#238DB4;}
	.st34{fill:#E2E7E8;}
	.st35{clip-path:url(#SVGID_20_);}
	.st36{fill:#FFFFFF;stroke:#B0C3C6;stroke-width:2;stroke-miterlimit:10;}
	.st37{fill:#B4CBCE;}
	.st38{fill:#003147;}
	.st39{fill:#FFD62B;}
	.st40{fill:#00B78E;}
	.st41{fill:#FF7824;}
	.st42{fill:#FF3223;}
	.st43{fill:#7955DF;}
	.st44{fill:none;stroke:#FF3223;stroke-width:2;stroke-miterlimit:10;}
	.st45{fill:none;stroke:#00A6E2;stroke-width:2;stroke-miterlimit:10;}
	.st46{clip-path:url(#SVGID_22_);fill:#303030;}
	.st47{fill:#F5C81F;}
	.st48{fill:#F49F90;}
	.st49{fill:#F3EEDE;}
	.st50{fill-rule:evenodd;clip-rule:evenodd;fill:#FFFFFF;}
	.st51{fill:#00131F;}
	.st52{clip-path:url(#SVGID_24_);fill:#303030;}
	.st53{fill:none;stroke:#FFFFFF;stroke-width:2;stroke-miterlimit:10;}
	.st54{clip-path:url(#SVGID_25_);fill:#303030;}
	.st55{clip-path:url(#SVGID_26_);fill:#303030;}
	.st56{opacity:0.3;fill:#B0C3C6;stroke:#B0C3C6;stroke-width:3;stroke-miterlimit:10;}
	.st57{fill:#FBFFFF;stroke:#9FB1B3;stroke-width:2;stroke-miterlimit:10;}
	.st58{fill:none;stroke:#666666;stroke-width:2;stroke-miterlimit:10;}
	.st59{clip-path:url(#SVGID_28_);fill:#2F3537;}
	.st60{fill-rule:evenodd;clip-rule:evenodd;fill:#00131F;}
	.st61{fill:#BBBBBB;}
	.st62{fill:#FF6434;}
	.st63{fill:#B5F0F5;}
	.st64{fill:none;stroke:#B0C3C6;stroke-width:3;stroke-miterlimit:10;}
	.st65{fill:#B0C3C6;stroke:#B0C3C6;stroke-width:2;stroke-miterlimit:10;}
	.st66{fill:#FBFBFB;}
	.st67{fill:#A4A4A4;}
	.st68{fill:#FFFFFF;stroke:#808184;stroke-linecap:round;stroke-linejoin:round;stroke-miterlimit:10;}
	.st69{clip-path:url(#SVGID_30_);fill:#303030;}
	.st70{opacity:0.8;}
	.st71{fill:#576263;}
	.st72{opacity:0.2;fill:#9FB1B3;}
	.st73{opacity:0.2;fill:none;stroke:#9FB1B3;stroke-miterlimit:10;}
	.st74{opacity:0.3;}
	.st75{clip-path:url(#SVGID_32_);fill:#303030;}
	.st76{clip-path:url(#SVGID_34_);fill:#303030;}
	.st77{clip-path:url(#SVGID_36_);fill:#303030;}
	.st78{clip-path:url(#SVGID_38_);fill:#303030;}
	.st79{fill:#EBFAFB;}
	.st80{clip-path:url(#SVGID_40_);}
	.st81{fill:#DEE7E8;}
</style>
<g>
	<path class="st81" d="M0,62.4c4.6-4.2,10.7-5.1,16.9-5.6c4-0.3,6.6-1.6,8.6-5.2c-1.7,0-2.6-0.2-3.2,0c-2.1,1.1-4.1,1.8-6.1,0.1
		c-0.9-0.7-1.1-1.7-0.4-2.6c1.6-1.9,4-1.2,6.2-1.4c3.6-0.5,12.5,5.3,8.4-5.1c-0.4-1.1,4.9-2.7,7.9-3.3c12.3-2.5,25-3.2,37.5-4.5
		c3.6-0.4,7.2-0.9,10.9-1.2c5.4-0.4,10.3-0.2,13.8,4.7c2.7,3.8,7.9,4.9,12.8,3.1c16.5-6.1,33.4-2.3,50.1-2.1c1.7,0,3.1,0.7,4.6,1.4
		c6.3,2.8,12,5.6,20.3,2.1c5.9-2.5,14.6-2.1,21.5,0.5c7.6,2.9,11.6-0.1,15.2-4.9c1.5-2,2.2-4.5,5.1-5.6c2.5-0.9,4.2-1.4,5.6,1.9
		c3.9,9,4.2,8.9,15.2,4.8c1.5-0.6,3.3-2.9,4.8-0.2c1,1.9-0.9,3.7-2.7,3.9c-7.5,0.6-13,7.1-21.3,5.3c-0.6-0.1-2,0.4-2,0.6
		c-0.9,7.2-8.6,5.8-13.5,7.9c-5.3,2.2-11,3.9-15.6,7.2c-7.4,5.4-7,9.7,1.5,14c5,2.5,10.7,2.7,16.7,3.6c-0.6,2.2-1.4,4.4-1.7,6.6
		c-0.3,2.8,2.1,3.8,4.7,4.3c2.5,0.5,4.4-0.4,5.2-2.6c0.2-0.5,0.4-0.9,0.4-1.4c0.6-8.1,15.9-4.3,14.7-12.1c-1.3-8.6,5.7-11.1,11-15.1
		c4.4-3.4,16.5-0.6,16.8,4.1c0.6,7.2,4.1,6,9.2,3.8c2.4-1.1,5-3.5,7.7-1.9c2.7,1.5,1,4.4,0.6,6.7c-1,5.2,2.7,8.2,7.4,10
		c5.1,2,3.9,4.2,1.1,6.6c-4.7,4-9.8,6.9-17.1,6.6c-9.2-0.3-18.7-0.7-27.5,4.8c4.6,2.6,9.7-0.2,14.4,1.9c-2.4,2.6-7.9,6.5,1.8,6.5
		c2.8,0,5.2-2.2,9.3-0.2c-6.3,4.4-14.9,4.2-20,9.1c-0.8,0.8-1.9,0.2-2.3-1.1c-2.2-7.1-7.6-3.1-9.9-1.1
		c-11.5,9.7-27.6,14.9-36.2,27.6c-2.8,4.2-9.4,6.9-14.8,9.3c-8.1,3.7-10.3,9-8.7,16.2c0.4,1.7,0.9,3.3,0.9,5c0,2.1-1.6,4-3.8,4.3
		c-3,0.5-3.6-1.9-3.8-3.8c-0.3-3.1-0.3-6.3-3-8.9c-4.9-4.6-11.7-5-17.5-0.8c-2.2,1.6-4,2.3-6.8,1.3c-10.5-3.5-22.5,0.9-26.4,9.9
		c-2,4.5-4,9.1-5.2,13.7c-1.6,6.1,1.6,10.5,8.2,12.6c6.5,2.1,12.2,1.1,15.9-4.6c0.9-1.5,1.8-3.1,3.3-4.1c1.9-1.2,4.4-1.1,6.4-0.1
		c2.1,1.1,1.5,3,0.9,4.6c-1.6,4.1-3.2,8.1-5,12.5c2.9,0,5.1-0.2,7.2,0c5.1,0.5,9,1.1,7.3,7.5c-2.3,8.8-0.9,10.7,7.1,19.7
		c-7.5-1.4-13.2-3.2-15.5-10.5c-1.3-4.2-6.2-6.5-12-8.7c-11.3-4.2-23.1-6.1-34.7-9.1c-5.5-1.4-10.1-5.2-15.2-7.8
		c-1.8-1-3.5-2.3-2.8-4c2.2-5.8-2.5-9.8-5.4-13.9c-4.6-6.6-9.5-13-11.8-20.7c-0.5-1.7-1.3-5.1-4.6-3.8c-2.9,1.1-1.6,3.9-0.6,5.8
		c2.5,4.9,4.3,9.8,5.2,16.9c-6.1-7.3-8.8-13.8-8.8-20.8c-0.1-4.3-1.8-7.2-5.6-9.9c-7.9-5.5-9-20.1-2.9-27.2
		c6.2-7.2,12.5-14.2,17.5-22.1c0.7-1.1,0.7-29.5-0.4-30.3c-3.4-2.8-6.5-5.5-11.7-6.5C47,63.9,33,64.4,19.9,70.2
		c-7.6,3.3-13.6,0.9-19.9-2C0,66.3,0,64.3,0,62.4z"/>
	<path class="st81" d="M247.6,445.5c-5.6-4-10.9-8.2-14.1-14c-2-3.6-5.3-6.3-1.7-11c2.4-3.2-1.2-7.6-3.4-9.9
		c-7-6.9-6.7-15.2-7.5-23.1c-1.6-16.3-3.2-32.7-2.1-49.1c0.4-5.5-2.2-8.4-7.8-11.4c-11.7-6.2-23.1-13-27.7-25.3
		c-1.3-3.4-3.5-6.6-6-9.5c-3.6-4.2-9.5-7.7-2.9-13.4c-5.6-10.8,6.8-15.9,10.2-23.9c1.6-3.8,4.8-7.1,1.2-11.3
		c-1.4-1.7-0.7-3.7,1.2-5.2c2.8-2.4,5.3-5.1,8.4-7.1c9.1-5.9,10.1-5.5,12.4,4.3c0.7-0.4,1.8-0.7,2-1.2c1.8-7,6.2-7.5,12.4-3.8
		c0.7,0.4,1.5,0.9,2.3,0.9c16.4-0.2,27.7,8.4,39.3,16.5c2.2,1.5,4.7,2.1,7.7,2.5c8.6,1.2,13.2,9.1,10.2,16.4
		c-0.5,3.4,1.8,2.1,3.6,1.6c6,0.9,11.9,1.9,16.5,5.8c1.6,1.4,3.6,1.9,6.1,1.8c10.7-0.4,19.3,4.3,28,8.8c5.8,3,4.7,7.7,1.6,10.6
		c-10.2,9.5-11.4,21.3-12.9,32.9c-1.5,10.7-6,18.2-19.7,19.9c-5.7,0.7-8,2.6-8.9,9.1c-1.4,9.4-6.6,19.2-15.5,26.4
		c-4.3,3.4-8.3-0.2-12.4-0.4c-0.7,2.1,0.8,2.9,1.9,3.9c1.8,1.7,7.4,1.4,4.8,5.2c-2.2,3.2-3.7,8.1-10.2,6.9c-2.8-0.5-4.9-0.1-4.5,2.5
		c0.8,5.8-3.2,6-9.8,4.6c5.8,5.7,6.7,10.4,2.1,15.3c-0.5,0.5-0.7,1.9-0.5,2c11.1,4.3,2.5,11,2.7,16.6c0.1,1.7,0.1,3.4,0.2,5.1
		C252.1,445.5,249.8,445.5,247.6,445.5z"/>
	<path class="st81" d="M320.5,0c14.7,3.9,30,4,44.9,2.4c7-0.8,12.6,1.9,18.9,1.8c14.6-0.4,29.3,1.5,43.8-1.2
		c3.6-0.7,6.5,1.3,9.9,1.5c1.9,0.1,3.1,1.3,3.3,2.9c0.2,1.5-1.6,1.8-2.7,2.3c-4.1,1.9-7.2,4.1-8.2,8.5c-0.8,3.7-5.5,4-8.9,4.3
		c-5.5,0.6-8.2,2.4-7.7,7.4c0.5,5.5-2.8,7.9-9.1,8c-16.1,0.4-29.4,8.2-44,12.6c-4.6,1.4-5.5,6.5-8.4,9.7c-5.3,5.9-8.1,6.1-14,0.7
		c-5.1-4.7-6-10.8-7.9-16.5c-0.9-2.8,0.9-3.1,3.8-3c7.4,0.4,9.4-2.5,7.4-8.6c-3-9.6-9.1-15.8-21.2-16.8c-1.9-0.2-4-0.3-5.3-3
		c4.5,0,8.6,0.2,12.7-0.1c2.7-0.2,6.5-0.8,5.7-4C332.6,6,329.3,7.6,327,8c-14.1,2.7-28.4,4.7-41.5,10.5c-7.2,3.2-13.7-1.5-19.4-4.2
		c-3.7-1.8,0.5-4.6,3.3-5.4c3.7-1,7.8-1.9,11.6-1.5c9.7,0.8,16.6-5.8,25.7-6.1c3.8-1.8,8.2,0.6,12-1.4C319.3,0,319.9,0,320.5,0z"/>
	<path class="st81" d="M676.7,40.6c3.8-1.8,3.8-4.4,2.4-7.5c-0.9-2-1.9-5.3,1.6-5.2c17.1,0.3,31.2-10.4,48.6-9.2
		c6.4,0.5,12.9,1,19.2,1.8c10.7,1.4-3.1,4.7,2.1,8c10.9-1.9,23.2,5.7,36.4,1.3c3.8-1.3,8.1-1.5,11.6,0.1c8.8,4.1,18.7,3.1,28,4.8
		c3.2,0.6,7.6,1.4,9.6-1.3c4.2-5.6,9-3.5,13.7-1.6c5,2,10.5,2.4,15.7,2.5c19.8,0.2,39.1,3.2,58.5,6.1c4.2,0.6,5.7-3.1,9.1-2.8
		c5.3,0.5,10.6,1,15.9,1.6c11.1,1.4,21.7,4.9,33.2,4.8c4.7,0,10,1.2,12.3,6.3c-8.1,1.3-16.3-7-24,0.6c3.1,3.5,8.2,4.3,12.7,7.6
		c-5.8,0.7-9.2,3.4-12.5,6.4c-1.4,1.4-2.4,3.7-4.7-0.5c-1.8-3.4-5.8,1-8.6,2.2c-2,0.9-3.1,2.8-1.1,4.9c9.8,10.4,9.8,10.4,8.1,23.2
		c-9-4.4-13.3-12.1-19.7-18.1c-2.4-2.3-1.5-6.1,1.1-8.8c2.6-2.7,1.1-5.3-0.4-7.4c-1.7-2.3-4.7,0.2-6.6,0c-8.5-0.9-13.6,1-14.5,8.9
		c-0.2,1.5-2.8,0.7-4.4,0.4c-5.8-1-11.6-2-17.4-2.8c-8.9-1.1-18.4,8.6-15.4,15.9c1.6,4,6.2,4.3,9.9,3.7c9.8-1.4,15.7,2.8,21.1,8.9
		c6.6,7.4,1.1,22.7-9.4,24.6c-6.6,1.2-4.3,6.7-7,9.8c-2.4,2.7,0.9,4.2,3.3,5.6c2.3,1.4,4.7,2.7,6.8,4.3c1.8,1.3,4.5,2.5,2.9,5.3
		c-1.6,2.7-3.6,5.2-7.4,5.2c-3.4,0-3.2-2.7-3.8-4.8c-1.8-5.5-10.2-6.6-11.7-12.5c-0.3-1-2.4-0.9-3.7,0c-3.8,2.8-5.3,0.9-6.4-2.2
		c-1.4-4.1-4.1-3.4-6.7-1c-3.2,3-6,6.2-8.1,10.6c5.8,0.3,10.8,0.6,16.8,0.9c-7.4,8.5,1,12.9,6.1,18c10.5,10.6,6.3,24.7-9.2,29
		c-5.9,1.6-9.5,4.8-12.5,9c-1.5,2.2-1.9,5.1-4.9,6.3c-1.9-0.6-1.5-2-1.5-3.1c0.2-3.7-0.5-6.9-5.5-7.7c-4.9-0.8-5.8,3.1-8,5.3
		c-3.4,3.4-0.6,5.6,2.4,7.8c4.6,3.3,7.5,7.8,10.8,12c3.1,4,2.7,7.6-0.8,11.3c-8.9,9.4-11.7,9.3-21.1-0.3c-2.3-2.3-4.2-6.8-7.3-6.1
		c-4.7,1-2.4,5.7-2.9,8.9c-0.3,1.6,0.2,3.4-2.2,5.3c-2-3.7-0.2-7.4-1.4-10.4c-2-4.9,2.3-14.1-10.5-12.4c-0.5,0.1-1.7-0.9-1.7-1.4
		c-0.3-7.1-8.8-9.4-12-15.1c-4.6-8.1-15.2-8.2-22.2-1.3c-2.4,2.4-4.8,4.8-8.1,6.3c-10.2,4.7-13.8,12.2-12.9,21.7
		c0.4,4.7,1.4,9.7-5.1,12.6c-3.2,1.5-5.5,1.4-6.5-1.7c-3.8-12.3-14.1-22.6-13.9-36.1c0.1-3-0.8-6.2-6.1-4.2c-4,1.5-6.4-0.6-8.6-2.9
		c-7.8-8.1-17-12.8-30-11.4c-6.3,0.7-13.1-0.4-17.8-5.1c-1.2-1.2-2.7-1.8-4.5-1.7c-10.7,0.7-17.9-4.7-26.5-12
		c1.5,9.1,3,16.5,9.6,21.8c5.3,4.2,10.8,1.2,14.6-2.7c3.4-3.4,5-3.3,6.6,0.9c0.5,1.3,1.4,2.9,2.7,3.6c9.9,4.7,6,8.9,0.9,15.1
		c-9.9,12-25.2,15.7-39.2,21.6c-4.8,2.1-8.7-0.1-10.3-4.6c-6.1-16.3-19.4-29.1-28.8-43.8c-2-3.1-5-3.5-9.9-2.4
		c9.7,14,12.3,30.5,26.5,42.2c4.5,3.7,7.8,8.2,9.5,13.5c1,3.2,2.7,4.8,7.3,3.8c7.3-1.6,15.1,0.8,23-2.5
		c-0.9,13.6-10.2,22.2-19.1,30.7c-7.8,7.4-14.6,15.3-21.8,23c-2.9,3.1-2.6,6.7-1.3,10.4c1.3,3.7,2.7,7.4,3.6,11.2
		c2.1,9,1.3,16.9-9.4,22.6c-7.8,4.1-12.5,10.5-9.4,19.2c0.4,1,0.3,2.8-0.4,3.4c-10.7,7.6-15,19.4-26.2,27
		c-8.6,5.9-17.8,7.7-27.7,9.2c-3.6,0.6-5.4-2.2-6-5c-1.2-6.1-3.8-11.5-8.4-16.3c-2-2.1-3.2-5.4-3.2-8.1c0.1-9.1-4.5-16.9-9.4-24.5
		c-3.1-4.8-3.6-9.4-0.6-13.7c10-14.7,2.7-27.5-6.1-39.6c-3.3-4.5-6.2-7.5-3.7-13.3c2.9-6.7-1.4-11.4-9.8-12.9
		c-1.1-0.2-2.6-0.1-3.1-0.7c-7.4-8.6-16.7-6.1-25.9-3.1c-6.3,2-13.2,2.5-19.6,3.7c-9.9,1.7-16.7-4.4-22.2-10.9
		c-4.1-4.8-7.3-10.1-12.5-14.5c-3.7-3.1-3.7-8.4-1.8-12.9c2.2-5.1,3-10.1,1.5-15.6c-1.6-6.1,3.3-11,6.6-15.9
		c2.6-3.9,6.5-7.3,10.4-10.4c4.1-3.3,6.9-6.8,9.4-11.3c5-8.8,14.4-13.7,26.4-13.4c12.7,0.3,24.6-3.4,36.9-4.7c5.2-0.6,8.8-2,5.5,4.6
		c-3.5,7.1,4.5,9.1,8.9,10.7c4.6,1.6,9.4,2.8,13.8,5c5.1,2.6,10,2.5,12.3-2.9c1.6-3.7,3.4-3.2,6.6-1.7c11.2,5.1,23.7,3.5,35.6,4.3
		c5.9,0.4,13-10.8,11.2-15.9c-0.7-2-2.4-2.5-4.5-2.6c-3.4-0.1-6.8-0.1-10.2-0.1c-15,0-18-2.2-19.2-14.5c-2.1-1.1-3.6,0.8-5.4,0.9
		c-4.8,0.1-10-0.4-4.5,5.7c2.1,2.3-1.4,4.2-2.6,5.3c-2.1,2-4.1-0.6-5-2.1c-2.3-4.1-6.4-7.4-7.5-12.1c-0.5-2-18.6-13.4-21-13.4
		c-3.5-0.1-2.7,1.7-1.7,3.3c2.1,3.3,5.2,5.6,9.1,7.4c2.7,1.3,5.1,3,7.3,4.9c2.3,1.9-0.6,2.6-1.6,3.9c-1.8,2.3-2.4,0.7-3.3-0.5
		c-5.2-6.7-15.8-7.5-21.2-14.1c-0.5-0.6-2.7-1-3-0.7c-4.1,4.2-11.6,1.4-14.8,4.4c-4.5,4.2-11.6,6.2-13.5,13.1
		c-2.1,7.5-21.2,10.6-27.5,5.2c-2.6-2.2-2.2-15,0.6-18.8c3.5-4.8,7.9-2.2,11.9-0.8c4.1,1.5,7.9,1.5,10.5-1.8
		c2.5-3.3,1.5-6.5-2.2-8.8c-1.4-0.9-2.9-1.5-5-2.6c6.4-2.3,6.4-2.3,3.5-5.8c11.1-0.2,18.3-5.7,25.8-11.6c6.7-5.2,16.1-8,24.9-5.7
		c6.9,1.8,12.6-1.4,19-0.6c2.3,0.3,4.3-1.6,4.9-3.4c0.9-2.7,1.1-4.2,5.7-4.2c5.6,0.1,0.6-4.7,2.6-7.1c1.5,0.1,3.1,0.5,4.7,0.4
		c2.6-0.2,5.6-1.1,5.1-3.7c-0.4-2.3-3.5-1.8-5.8-1.6c-10.8,1-11.3,0.4-7.3-8.2c0.6-1.4,1.4-2.8,0.1-4c-1.5-1.4-3.1-0.2-4.6,0.3
		c-7.2,2.5-11.7,6.1-9.8,13.7c1.6,6.3-2.8,10.4-8.9,13.1c-4,1.8-6.2-0.5-8.1-3.2c-3.1-4.5-8.2-6.4-13.7-7.5
		c-1.7-0.4-4.6,2.2-4.9-1.5c-0.2-2.7-0.1-6.5,3.2-6.7c6-0.3,7.2-4.4,10.4-7.1c8.3-6.8,17.5-13.1,28-17.3c7.3-2.9,15,0.2,22.5,0.5
		c8.5,0.3,16.4,3,24.4,5.3c1.7,0.5,4.3,0.9,3.3,3.3c-0.7,1.6-2.5,2.6-4.9,1.9c-0.3-0.1-0.5-0.1-0.8-0.2c-3.3-1.1-7-1.6-9.4,0.7
		c-1.5,1.5,1.2,3,2.7,3.8c3.5,1.9,6.5,6.2,11.7,2.5c5.6-4.1,11.6-7.5,18.8-9.5c5.6-1.6,11.9-1.2,16.8-2.6c11-3,20.5-1.9,30.5,1.7
		c2.3,0.8,5.4,0.1,7-1.7c2.4-2.5-2-2.7-2.6-4.4c-0.9-2.7-6.9-5-2.4-7.7c3.5-2.2,8.2,0,11.1,3c2.1,2.2,2.6,4.7,2.5,7.5
		c0,2.3,0.5,4.6,3.8,4.8c3.2,0.2,4.6-1.5,4.4-4.2C674.2,39.7,675.5,39.8,676.7,40.6z"/>
	<path class="st81" d="M984,307.5c4.6,8,8.3,14.3,9.2,22.2c0.6,5.4,6,11.2,11.1,15.1c6.2,4.6,7.2,9.8,5.5,15.4
		c-5.7,18.9-21.1,30.9-41.1,38.7c-9.3,3.6-17.2-1-19.9-9.2c-0.9-2.8-0.7-5.6-1.8-8.9c-5.7,3.3-9.2,3.1-13.4-2.6
		c-5.3-7.1-14.8-2.9-21.5-1.1c-11.5,3.2-23.3,5.4-34.9,8.3c-4.4,1.1-8.3,1-5.3-4.8c1.1-2.1,1.5-4.9,0.9-7.1
		c-1.9-6.6,0.1-12.9,0.3-19.3c0.3-8.7,5.9-13,14.5-15.5c8.4-2.5,17.1-3.9,22.3-11.7c1.6-2.3,6.4-4.4,9.2-7.1c3.5-3.5,6.5-7.2,11.4-1
		c1.6,2,3.7,1.8,6-1.4c4.2-5.9,10.5-9.9,19.7-8.4c3.7,0.6,4.6,1.5,3.6,4.7c-1.6,5,3,11.3,8.7,12.6c6.6,1.4,9.2-2.5,11.1-6.7
		C981.2,316.1,982.3,312.4,984,307.5z"/>
	<path class="st81" d="M261.7,27.7c6.1,0,12.2-2.3,19.4,0.1c7.7,2.6,12.3,6.5,15.8,12.3c1.7,2.8,0.6,4.9-0.7,8
		c-1.7,4.2-9.9,4.3-7.5,10.1c0.7,1.6-1.7,1.4-3,1.5c-3.9,0.3-7-1.4-10.3-2.8c-5.6-2.3-7.5-4.6-0.2-7.1c3.2-1.1,5.4-2.9,4.5-6.1
		c-0.8-3.3-1.5-7.4-5.6-8.3c-4.8-1-9.7-3.1-14.9-1.8c-2.1,0.5-4.1,2-5.9-0.2c-1.1-1.3-1.3-2.8,0-4c1.6-1.6,3.1-3.7,6.3-2.3
		C260.2,27.3,260.7,27.4,261.7,27.7z"/>
	<path class="st81" d="M881.1,278.3c-7.4,1.5-11.7-1.1-13.4-7.4c-1-3.5-2.8-6.8,3.9-7.1c0.8,0,2.1-1.2,2.2-1.9
		c1.7-8.4,12.3-9,17.5-14.4c3.2-3.3,7.9,1.1,7.1,3.5c-2.2,7.1,1.6,15-4.8,21.8C889.9,276.7,887.6,280.1,881.1,278.3z"/>
	<path class="st81" d="M963.1,280.2c4.8-6.2,10.7-5.6,17.6-2.7c9.8,4.2,21.1,6.1,24.7,17.4c1.1,3.4,7.1,5.7,11.6,9.1
		c-7.1,1.8-11.1-1.4-15.3-4.4c-3.9-2.8-7-5.9-13.6-2.5c-6.1,3.1-14.5-1.7-16.7-7.9c-1.3-3.6-4.6-5.2-8.4-6.4
		C962.2,281.9,962.1,281,963.1,280.2z"/>
	<path class="st81" d="M646,312.9c3.2,8.5-0.2,15.8-3.8,23.1c-1.6,3.3-4.7,6.2-4.5,10c0.2,4.4-2,6.8-6.7,7.8
		c-2.7,0.6-5.1,0.2-6.5-2.1c-2.3-3.6-3.4-7.3-0.5-10.9c1.8-2.2,4.2-4.2,3.5-7c-2-7.9,2.6-12,10.5-14.6
		C641.5,318,643.6,315.5,646,312.9z"/>
	<path class="st81" d="M162.3,29.5c6.4-5.7,15.1-7.3,21.6-2.7c6.3,4.6,12.7,4.1,19.7,2.7c2-0.4,4.8-2.6,5.7,0.1
		c0.8,2.5,0.6,6.1-3.1,7.5c-3,1.1-6.7,2.3-9.7,1.8c-4.3-0.7-8.1-0.2-12.3,0.1c-4.6,0.3-10.2,1.6-11.6-5.2
		C171.7,30,164.8,32.7,162.3,29.5z"/>
	<path class="st81" d="M818.5,251.5c2.4-0.1,3.5-0.5,3.9-0.2c10.2,9.2,24,15.6,29.7,28.3c1.4,3.2,2.7,6.3-1.2,8.2
		c-3.7,1.8-5.7-1.6-7.2-3.5C835.2,273.7,827.1,262.9,818.5,251.5z"/>
	<path class="st81" d="M963.1,280.2c0,0.9,0,1.7,0,2.6c-5.9-1.2-12.6-1.3-13.1-8.6c-0.1-1.3-3.5-2.5-0.3-3.8
		c2.2-0.9,4.1-0.3,5.2,2.2C956.4,275.9,956.9,280.4,963.1,280.2z"/>
</g>
</svg>
