<?xml version="1.0" encoding="utf-8"?>
<!-- Generator: Adobe Illustrator 19.2.1, SVG Export Plug-In . SVG Version: 6.00 Build 0)  -->
<svg version="1.1" id="Layer_1" xmlns="http://www.w3.org/2000/svg" xmlns:xlink="http://www.w3.org/1999/xlink" x="0px" y="0px"
	 viewBox="0 0 42 42" style="enable-background:new 0 0 42 42;" xml:space="preserve">
<style type="text/css">
	.st0{fill:none;stroke:#DEE7E8;stroke-miterlimit:10;}
	.st1{fill:#00A6E2;}
	.st2{fill:none;stroke:#B0C3C6;stroke-width:2;stroke-miterlimit:10;}
	.st3{fill:#666666;}
	.st4{fill:none;stroke:#B0C3C6;stroke-width:2;stroke-linejoin:round;stroke-miterlimit:10;}
	.st5{fill:#00C9ED;}
	.st6{fill:#B0C3C6;}
	.st7{fill:#FFFFFF;stroke:#B0C3C6;stroke-width:2;stroke-linejoin:round;stroke-miterlimit:10;}
	.st8{fill:#303030;}
	.st9{opacity:0.4;fill:#F6F6F6;}
	.st10{fill:none;stroke:#999999;stroke-width:2;stroke-miterlimit:10;}
	.st11{fill:#999999;}
	.st12{fill:#FFFFFF;}
	.st13{clip-path:url(#SVGID_2_);fill:#2F3537;}
	.st14{opacity:0.3;fill:none;stroke:#9FB1B3;stroke-width:2;stroke-miterlimit:10;}
	.st15{fill:none;stroke:#FFFFFF;stroke-miterlimit:10;}
	.st16{fill:#FFFFFF;stroke:#FFFFFF;stroke-miterlimit:10;}
	.st17{fill:none;stroke:#303030;stroke-miterlimit:10;}
	.st18{opacity:0.8;fill:#B0C3C6;}
	.st19{opacity:0.7;}
	.st20{opacity:0.8;clip-path:url(#SVGID_4_);fill:#00A6E2;}
	.st21{opacity:0.8;fill:#00A6E2;}
	.st22{opacity:0.8;clip-path:url(#SVGID_6_);fill:#00A6E2;}
	.st23{clip-path:url(#SVGID_8_);}
	.st24{clip-path:url(#SVGID_10_);}
	.st25{fill:none;stroke:#B0C3C6;stroke-width:3;stroke-linejoin:round;stroke-miterlimit:10;}
	.st26{opacity:0.3;fill:none;stroke:#9FB1B3;stroke-width:3;stroke-miterlimit:10;}
	.st27{fill:#FFFFFF;stroke:#B0C3C6;stroke-width:3;stroke-linejoin:round;stroke-miterlimit:10;}
	.st28{clip-path:url(#SVGID_12_);fill:#2F3537;}
	.st29{clip-path:url(#SVGID_14_);}
	.st30{fill:#FFFFFF;stroke:#B0C3C6;stroke-width:2;stroke-miterlimit:10;}
	.st31{fill:#B4CBCE;}
</style>
<g>
	<g>
		<g>
			<g>
				<g>
					<path class="st4" d="M29,6.4c-3.2,0-6.1-1.5-8-3.9h0c-1.9,2.4-4.8,3.9-8,3.9c-2.8,0-5.4-1.2-8.1-3v23.8c0,0,2.3,8.5,16.1,12.3
						c13.8-3.9,16.1-12.3,16.1-12.3V3.3C34.4,5.2,31.9,6.4,29,6.4z"/>
					<polygon class="st2" points="29,17 24.2,17 24.2,12.2 17.8,12.2 17.8,17 13,17 13,23.4 17.8,23.4 17.8,28.3 24.2,28.3 
						24.2,23.4 29,23.4 					"/>
				</g>
			</g>
		</g>
	</g>
</g>
</svg>
