<?xml version="1.0" encoding="utf-8"?>
<!-- Generator: Adobe Illustrator 19.2.1, SVG Export Plug-In . SVG Version: 6.00 Build 0)  -->
<svg version="1.1" id="Layer_1" xmlns="http://www.w3.org/2000/svg" xmlns:xlink="http://www.w3.org/1999/xlink" x="0px" y="0px"
	 viewBox="0 0 42 42" style="enable-background:new 0 0 42 42;" xml:space="preserve">
<style type="text/css">
	.st0{fill:none;stroke:#DEE7E8;stroke-miterlimit:10;}
	.st1{fill:#00A6E2;}
	.st2{fill:none;stroke:#B0C3C6;stroke-width:2;stroke-miterlimit:10;}
	.st3{fill:#666666;}
	.st4{fill:none;stroke:#B0C3C6;stroke-width:2;stroke-linejoin:round;stroke-miterlimit:10;}
	.st5{fill:#00C9ED;}
	.st6{fill:#B0C3C6;}
	.st7{fill:#FFFFFF;stroke:#B0C3C6;stroke-width:2;stroke-linejoin:round;stroke-miterlimit:10;}
	.st8{fill:#303030;}
	.st9{opacity:0.4;fill:#F6F6F6;}
	.st10{fill:none;stroke:#999999;stroke-width:2;stroke-miterlimit:10;}
	.st11{fill:#999999;}
	.st12{fill:#FFFFFF;}
	.st13{clip-path:url(#SVGID_2_);fill:#2F3537;}
	.st14{opacity:0.3;fill:none;stroke:#9FB1B3;stroke-width:2;stroke-miterlimit:10;}
	.st15{fill:none;stroke:#FFFFFF;stroke-miterlimit:10;}
	.st16{fill:#FFFFFF;stroke:#FFFFFF;stroke-miterlimit:10;}
	.st17{fill:none;stroke:#303030;stroke-miterlimit:10;}
	.st18{opacity:0.8;fill:#B0C3C6;}
	.st19{opacity:0.7;}
	.st20{opacity:0.8;clip-path:url(#SVGID_4_);fill:#00A6E2;}
	.st21{opacity:0.8;fill:#00A6E2;}
	.st22{opacity:0.8;clip-path:url(#SVGID_6_);fill:#00A6E2;}
	.st23{clip-path:url(#SVGID_8_);}
	.st24{clip-path:url(#SVGID_10_);}
	.st25{fill:none;stroke:#B0C3C6;stroke-width:3;stroke-linejoin:round;stroke-miterlimit:10;}
	.st26{opacity:0.3;fill:none;stroke:#9FB1B3;stroke-width:3;stroke-miterlimit:10;}
	.st27{fill:#FFFFFF;stroke:#B0C3C6;stroke-width:3;stroke-linejoin:round;stroke-miterlimit:10;}
	.st28{clip-path:url(#SVGID_12_);fill:#2F3537;}
	.st29{clip-path:url(#SVGID_14_);}
	.st30{fill:#FFFFFF;stroke:#B0C3C6;stroke-width:2;stroke-miterlimit:10;}
	.st31{fill:#B4CBCE;}
</style>
<g>
	<g>
		<g>
			<g>
				<g>
					<g>
						<path class="st6" d="M20.9,3.7c6.4,0,11.6,5.2,11.6,11.6c0,0,0.1,2.5,0.1,2.7c0,1.7,1.4,3.2,3.2,3.2c1.4,0,2.6,1.2,2.6,2.6
							c0,1.4-1.2,2.6-2.6,2.6c-1,0-2-0.2-2.9-0.5c0.4,1.3,1.6,2.3,3,2.3c1.4,0,2.6,1.2,2.6,2.6c0,1.4-1.2,2.6-2.6,2.6
							c-2.4,0-4.6-1-6.2-2.7v3.7c0,1.4-1.2,2.6-2.6,2.6c-1.4,0-2.6-1.2-2.6-2.6v-4.9h-1v6.2c0,1.4-1.2,2.6-2.6,2.6
							c-1.4,0-2.6-1.2-2.6-2.6v-6.2h-1v4.9c0,1.4-1.2,2.6-2.6,2.6c-1.4,0-2.6-1.2-2.6-2.6V31c-1.5,1.5-3.6,2.4-5.8,2.4
							c-1.4,0-2.6-1.2-2.6-2.6c0-1.4,1.2-2.6,2.6-2.6c1.5,0,2.8-1.1,3.1-2.5c-1,0.4-2.1,0.6-3.2,0.6c-1.4,0-2.6-1.2-2.6-2.6
							c0-1.4,1.2-2.6,2.6-2.6c1.7,0,3.2-1.4,3.2-3.2c0-0.2,0.1-2.7,0.1-2.7C9.4,8.9,14.5,3.7,20.9,3.7 M20.9,1.7
							c-7.5,0-13.5,6.1-13.6,13.5c0,0.8-0.1,2.5-0.1,2.7c0,0.6-0.5,1.2-1.2,1.2c-2.5,0-4.6,2.1-4.6,4.6c0,1.4,0.7,2.7,1.7,3.6
							c-1,0.8-1.6,2.1-1.6,3.5c0,2.5,2.1,4.6,4.6,4.6c1.3,0,2.6-0.3,3.9-0.7c0.1,2.4,2.1,4.4,4.6,4.4c0.9,0,1.7-0.3,2.4-0.7
							c0.8,1.2,2.2,2,3.8,2s3-0.8,3.8-2c0.7,0.4,1.5,0.7,2.4,0.7c2.5,0,4.6-2,4.6-4.5c1.3,0.6,2.7,0.9,4.2,0.9
							c2.5,0,4.6-2.1,4.6-4.6c0-1.4-0.7-2.7-1.7-3.6c1-0.8,1.6-2.1,1.6-3.5c0-2.5-2.1-4.6-4.6-4.6c-0.6,0-1.2-0.5-1.2-1.2
							c0-0.2-0.1-2-0.1-2.7C34.5,7.8,28.4,1.7,20.9,1.7L20.9,1.7z"/>
					</g>
				</g>
			</g>
		</g>
	</g>
	<polygon class="st4" points="17.7,18 17.7,13.1 21.9,15.6 26.2,18 21.9,20.5 17.7,22.9 	"/>
	<line class="st2" x1="17.5" y1="37.2" x2="17.5" y2="29.4"/>
	<line class="st2" x1="24.3" y1="37.2" x2="24.3" y2="29.4"/>
	<path class="st2" d="M4.9,27.4c0,0,5.7,0.1,5.7-2.6"/>
	<path class="st2" d="M37.4,27.4c0,0-5.7,0.1-5.7-2.6"/>
	<line class="st2" x1="11.1" y1="34.7" x2="11.1" y2="30.5"/>
	<line class="st2" x1="30.7" y1="34.7" x2="30.7" y2="30.5"/>
</g>
</svg>
