<?xml version="1.0" encoding="utf-8"?>
<!-- Generator: Adobe Illustrator 19.2.1, SVG Export Plug-In . SVG Version: 6.00 Build 0)  -->
<svg version="1.1" id="Layer_1" xmlns="http://www.w3.org/2000/svg" xmlns:xlink="http://www.w3.org/1999/xlink" x="0px" y="0px"
	 viewBox="0 0 42 42" style="enable-background:new 0 0 42 42;" xml:space="preserve">
<style type="text/css">
	.st0{fill:none;stroke:#DEE7E8;stroke-miterlimit:10;}
	.st1{fill:#00A6E2;}
	.st2{fill:none;stroke:#B0C3C6;stroke-width:2;stroke-miterlimit:10;}
	.st3{fill:#666666;}
	.st4{fill:none;stroke:#B0C3C6;stroke-width:2;stroke-linejoin:round;stroke-miterlimit:10;}
	.st5{fill:#00C9ED;}
	.st6{fill:#B0C3C6;}
	.st7{fill:#FFFFFF;stroke:#B0C3C6;stroke-width:2;stroke-linejoin:round;stroke-miterlimit:10;}
	.st8{fill:#303030;}
	.st9{opacity:0.4;fill:#F6F6F6;}
	.st10{fill:none;stroke:#999999;stroke-width:2;stroke-miterlimit:10;}
	.st11{fill:#999999;}
	.st12{fill:#FFFFFF;}
	.st13{clip-path:url(#SVGID_2_);fill:#2F3537;}
	.st14{opacity:0.3;fill:none;stroke:#9FB1B3;stroke-width:2;stroke-miterlimit:10;}
	.st15{fill:none;stroke:#FFFFFF;stroke-miterlimit:10;}
	.st16{fill:#FFFFFF;stroke:#FFFFFF;stroke-miterlimit:10;}
	.st17{fill:none;stroke:#303030;stroke-miterlimit:10;}
	.st18{opacity:0.8;fill:#B0C3C6;}
	.st19{opacity:0.7;}
	.st20{opacity:0.8;clip-path:url(#SVGID_4_);fill:#00A6E2;}
	.st21{opacity:0.8;fill:#00A6E2;}
	.st22{opacity:0.8;clip-path:url(#SVGID_6_);fill:#00A6E2;}
	.st23{clip-path:url(#SVGID_8_);}
	.st24{clip-path:url(#SVGID_10_);}
	.st25{fill:none;stroke:#B0C3C6;stroke-width:3;stroke-linejoin:round;stroke-miterlimit:10;}
	.st26{opacity:0.3;fill:none;stroke:#9FB1B3;stroke-width:3;stroke-miterlimit:10;}
	.st27{fill:#FFFFFF;stroke:#B0C3C6;stroke-width:3;stroke-linejoin:round;stroke-miterlimit:10;}
	.st28{clip-path:url(#SVGID_12_);fill:#2F3537;}
	.st29{clip-path:url(#SVGID_14_);}
	.st30{fill:#FFFFFF;stroke:#B0C3C6;stroke-width:2;stroke-miterlimit:10;}
	.st31{fill:#B4CBCE;}
</style>
<g>
	<g>
		<path class="st2" d="M29.2,20.5c4.4,4.4,9.3,9.3,9.3,9.3c0.5,0.5,0.4,1.3-0.1,1.8l-5.8,5.9c-0.5,0.5-1.6,0.7-2.3,0
			c0,0-4.5-4.7-8.9-9.1"/>
		<path class="st2" d="M12.7,19.7c-4.5-4.5-9.1-8.9-9.1-8.9c-0.5-0.5-0.8-1.5,0-2.3l5.8-5.8c0.5-0.5,1.4-0.9,2.3,0
			c0,0,4.4,4.8,8.9,9.3"/>
		<line class="st2" x1="28.8" y1="35.4" x2="33.2" y2="31"/>
		<line class="st2" x1="25.4" y1="31.9" x2="27.4" y2="29.8"/>
		<line class="st2" x1="5.6" y1="12.3" x2="10" y2="7.9"/>
		<line class="st2" x1="9.1" y1="15.7" x2="11.2" y2="13.6"/>
	</g>
	<g>
		<polygon class="st2" points="6.7,26.7 26.6,6.8 34.3,14.6 14.6,34.5 3,37.9 		"/>
		<path class="st2" d="M34.3,14.6l4.3-4.3c0.5-0.5,0.5-1.3,0-1.7l-6.1-6.1c-0.5-0.5-1.3-0.5-1.7,0l-4.3,4.3"/>
		<polyline class="st2" points="32.2,12.4 13.4,31 14.4,34.5 		"/>
		<polyline class="st2" points="6.6,26.7 10,27.4 28.6,8.8 		"/>
		<polyline class="st2" points="9.9,27.5 9.9,31 13.4,31 		"/>
	</g>
</g>
</svg>
