<?xml version="1.0" standalone="no"?>
<!DOCTYPE svg PUBLIC "-//W3C//DTD SVG 20010904//EN"
 "http://www.w3.org/TR/2001/REC-SVG-20010904/DTD/svg10.dtd">
<svg version="1.0" xmlns="http://www.w3.org/2000/svg"
 width="700.000000pt" height="700.000000pt" viewBox="0 0 700.000000 700.000000"
 preserveAspectRatio="xMidYMid meet">
<metadata>
Created by potrace 1.11, written by Peter Selinger 2001-2013
</metadata>
<g transform="translate(0.000000,700.000000) scale(0.100000,-0.100000)"
fill="#000000" stroke="none">
<path d="M3437 6054 c-1 -1 -46 -4 -99 -8 -53 -3 -103 -8 -110 -11 -7 -2 -29
-6 -48 -9 -102 -11 -337 -87 -468 -151 -288 -140 -571 -395 -729 -655 -55 -91
-114 -200 -108 -200 3 0 -1 -10 -9 -22 -39 -61 -114 -312 -136 -458 -6 -41
-13 -192 -16 -335 -7 -465 -10 -482 -80 -593 -92 -143 -235 -225 -414 -238
-134 -10 -206 -40 -293 -123 -80 -77 -120 -178 -116 -295 1 -33 8 -76 15 -94
7 -18 14 -36 15 -40 6 -29 49 -93 91 -134 91 -89 177 -118 329 -113 57 2 118
7 134 10 92 17 178 38 238 59 82 29 84 23 32 -81 -79 -158 -218 -251 -397
-268 -105 -10 -124 -14 -181 -35 -93 -35 -167 -103 -212 -196 -109 -224 9
-486 252 -559 50 -15 234 -14 324 3 230 43 426 134 604 282 37 30 69 54 71 52
3 -1 5 -123 5 -271 0 -180 4 -286 13 -323 59 -253 329 -385 562 -273 72 35
148 105 180 166 46 89 47 104 48 531 l1 408 78 0 77 0 0 -484 c0 -276 4 -506
10 -535 52 -273 361 -412 599 -269 72 43 149 140 173 218 19 58 21 118 21 583
l0 488 76 -3 76 -3 1 -400 c1 -357 3 -406 19 -455 95 -290 448 -381 662 -170
64 62 99 131 117 230 2 14 5 159 5 323 l1 299 73 -67 c160 -148 349 -250 563
-304 209 -53 397 -48 503 12 120 69 203 202 204 332 2 86 -17 155 -58 220 -81
127 -187 185 -365 199 -133 10 -227 53 -318 144 -82 82 -155 227 -104 207 42
-17 99 -34 127 -39 17 -2 55 -10 85 -16 76 -15 226 -20 285 -9 73 14 148 53
204 109 78 77 112 155 117 267 4 112 -31 206 -110 291 -73 78 -160 116 -296
127 -95 7 -139 19 -218 57 -76 37 -165 121 -209 198 -56 99 -62 134 -63 412
-2 320 -6 390 -25 513 -91 573 -463 1072 -985 1323 -159 76 -352 136 -507 157
-74 10 -309 24 -316 19z"/>
</g>
</svg>
