<?xml version="1.0" encoding="utf-8"?>
<!-- Generator: Adobe Illustrator 16.0.0, SVG Export Plug-In . SVG Version: 6.00 Build 0)  -->
<!DOCTYPE svg PUBLIC "-//W3C//DTD SVG 1.1//EN" "http://www.w3.org/Graphics/SVG/1.1/DTD/svg11.dtd">
<svg version="1.1" id="Layer_1" xmlns="http://www.w3.org/2000/svg" xmlns:xlink="http://www.w3.org/1999/xlink" x="0px" y="0px"
	 width="543px" height="140px" viewBox="0 0 543 140" enable-background="new 0 0 543 140" xml:space="preserve">
<g id="Logo">
	<g id="Tagline">
		<path fill="#555555" d="M171.007,93.262h9.248v1.728h-3.632v9.696h-2v-9.696h-3.616V93.262z"/>
		<path fill="#555555" d="M181.967,93.262h1.824v4.24h0.032c0.224-0.374,0.557-0.686,1-0.937c0.442-0.25,0.936-0.376,1.48-0.376
			c0.907,0,1.622,0.234,2.144,0.704s0.784,1.174,0.784,2.112v5.68h-1.824v-5.2c-0.021-0.65-0.16-1.122-0.416-1.416
			c-0.256-0.293-0.656-0.439-1.2-0.439c-0.31,0-0.587,0.056-0.832,0.168c-0.246,0.111-0.454,0.267-0.624,0.464
			c-0.171,0.197-0.304,0.43-0.4,0.696c-0.096,0.267-0.144,0.549-0.144,0.848v4.88h-1.824V93.262z"/>
		<path fill="#555555" d="M193.214,101.021c0,0.32,0.045,0.63,0.136,0.928c0.09,0.299,0.227,0.561,0.408,0.784
			c0.181,0.225,0.41,0.403,0.688,0.536c0.277,0.134,0.608,0.2,0.992,0.2c0.533,0,0.962-0.114,1.288-0.344
			c0.325-0.229,0.568-0.573,0.728-1.032h1.728c-0.096,0.448-0.262,0.848-0.496,1.2c-0.235,0.352-0.518,0.647-0.848,0.888
			s-0.701,0.422-1.112,0.544s-0.84,0.184-1.288,0.184c-0.651,0-1.227-0.106-1.728-0.319c-0.501-0.214-0.925-0.513-1.272-0.896
			s-0.608-0.843-0.784-1.376c-0.176-0.533-0.264-1.12-0.264-1.76c0-0.587,0.093-1.145,0.28-1.672c0.187-0.528,0.454-0.992,0.8-1.393
			c0.346-0.399,0.765-0.717,1.256-0.951c0.491-0.235,1.045-0.353,1.664-0.353c0.65,0,1.234,0.136,1.752,0.408
			c0.517,0.271,0.946,0.632,1.288,1.08c0.341,0.448,0.589,0.963,0.744,1.544c0.154,0.581,0.194,1.182,0.12,1.8H193.214z
			 M197.471,99.821c-0.021-0.288-0.083-0.565-0.184-0.832c-0.102-0.267-0.24-0.498-0.416-0.695c-0.176-0.197-0.39-0.357-0.64-0.48
			c-0.25-0.122-0.531-0.184-0.84-0.184c-0.32,0-0.611,0.056-0.872,0.168c-0.262,0.111-0.485,0.267-0.672,0.464
			c-0.187,0.197-0.336,0.43-0.448,0.696c-0.112,0.267-0.173,0.555-0.184,0.863H197.471z"/>
		<path fill="#555555" d="M205.663,96.413h1.936l1.616,6.177h0.032l1.552-6.177h1.84l1.488,6.177h0.032l1.68-6.177h1.856
			l-2.592,8.272h-1.872l-1.536-6.144h-0.032l-1.52,6.144h-1.92L205.663,96.413z"/>
		<path fill="#555555" d="M223.295,104.909c-0.662,0-1.25-0.109-1.768-0.327c-0.518-0.219-0.955-0.521-1.312-0.904
			s-0.629-0.843-0.816-1.376s-0.28-1.12-0.28-1.76c0-0.63,0.093-1.211,0.28-1.744s0.458-0.992,0.816-1.376
			c0.357-0.385,0.794-0.686,1.312-0.904s1.106-0.328,1.768-0.328c0.661,0,1.25,0.109,1.768,0.328
			c0.517,0.219,0.955,0.52,1.312,0.904c0.357,0.384,0.629,0.843,0.816,1.376s0.28,1.114,0.28,1.744c0,0.64-0.094,1.227-0.28,1.76
			s-0.458,0.992-0.816,1.376s-0.795,0.686-1.312,0.904C224.545,104.8,223.956,104.909,223.295,104.909z M223.295,103.47
			c0.405,0,0.757-0.085,1.056-0.256c0.298-0.171,0.544-0.395,0.736-0.672s0.333-0.59,0.424-0.937
			c0.091-0.347,0.136-0.701,0.136-1.063c0-0.353-0.045-0.704-0.136-1.057c-0.09-0.352-0.232-0.664-0.424-0.936
			c-0.192-0.272-0.438-0.493-0.736-0.664c-0.299-0.171-0.651-0.256-1.056-0.256s-0.757,0.085-1.056,0.256
			c-0.298,0.171-0.544,0.392-0.736,0.664c-0.192,0.271-0.333,0.584-0.424,0.936c-0.091,0.353-0.136,0.704-0.136,1.057
			c0,0.362,0.045,0.717,0.136,1.063c0.09,0.347,0.232,0.659,0.424,0.937s0.438,0.501,0.736,0.672
			C222.538,103.385,222.89,103.47,223.295,103.47z"/>
		<path fill="#555555" d="M229.63,96.413h1.712v1.601h0.032c0.053-0.225,0.157-0.442,0.312-0.656
			c0.154-0.213,0.341-0.408,0.56-0.584c0.218-0.176,0.461-0.317,0.728-0.424c0.266-0.106,0.538-0.16,0.816-0.16
			c0.213,0,0.36,0.006,0.44,0.016c0.08,0.011,0.163,0.021,0.248,0.032v1.76c-0.128-0.021-0.259-0.039-0.392-0.056
			c-0.133-0.016-0.264-0.023-0.392-0.023c-0.31,0-0.6,0.062-0.872,0.184c-0.272,0.123-0.509,0.304-0.712,0.544
			s-0.363,0.536-0.48,0.888c-0.118,0.353-0.176,0.758-0.176,1.217v3.936h-1.824V96.413z"/>
		<path fill="#555555" d="M235.95,93.262h1.824v11.424h-1.824V93.262z"/>
		<path fill="#555555" d="M248.19,104.686h-1.728v-1.12h-0.032c-0.246,0.48-0.603,0.824-1.072,1.032s-0.965,0.312-1.488,0.312
			c-0.651,0-1.219-0.114-1.704-0.344s-0.888-0.541-1.208-0.936s-0.56-0.861-0.72-1.4c-0.16-0.538-0.24-1.117-0.24-1.736
			c0-0.746,0.101-1.392,0.304-1.936s0.472-0.992,0.808-1.344c0.336-0.353,0.72-0.61,1.152-0.776c0.432-0.165,0.872-0.248,1.32-0.248
			c0.256,0,0.517,0.024,0.784,0.072c0.266,0.048,0.522,0.125,0.768,0.231c0.246,0.107,0.472,0.243,0.68,0.408
			c0.208,0.166,0.381,0.36,0.52,0.584h0.032v-4.224h1.824V104.686z M241.822,100.638c0,0.352,0.045,0.698,0.136,1.04
			c0.09,0.342,0.229,0.646,0.416,0.912c0.187,0.267,0.424,0.479,0.712,0.64s0.629,0.24,1.024,0.24c0.405,0,0.754-0.085,1.048-0.256
			c0.293-0.171,0.533-0.395,0.72-0.672s0.325-0.59,0.416-0.937c0.09-0.347,0.136-0.701,0.136-1.063c0-0.918-0.206-1.633-0.616-2.145
			s-0.968-0.768-1.672-0.768c-0.427,0-0.787,0.088-1.08,0.264s-0.534,0.405-0.72,0.688c-0.187,0.282-0.32,0.603-0.4,0.96
			S241.822,100.265,241.822,100.638z"/>
		<path fill="#555555" d="M251.262,93.262h1.632v4.512h-1.632V93.262z"/>
		<path fill="#555555" d="M257.278,102.029c0.053,0.534,0.256,0.907,0.608,1.12c0.352,0.214,0.773,0.32,1.264,0.32
			c0.17,0,0.365-0.014,0.584-0.04s0.424-0.077,0.616-0.152c0.192-0.074,0.349-0.184,0.472-0.328
			c0.123-0.144,0.179-0.333,0.168-0.567s-0.096-0.427-0.256-0.576s-0.366-0.27-0.616-0.36c-0.25-0.09-0.536-0.168-0.856-0.231
			c-0.32-0.064-0.646-0.134-0.976-0.208c-0.342-0.075-0.67-0.166-0.984-0.272s-0.597-0.25-0.848-0.432
			c-0.251-0.182-0.451-0.413-0.6-0.696c-0.149-0.282-0.224-0.632-0.224-1.048c0-0.448,0.109-0.824,0.328-1.128
			c0.218-0.304,0.496-0.55,0.832-0.736s0.709-0.317,1.12-0.392c0.411-0.075,0.803-0.112,1.176-0.112
			c0.426,0,0.834,0.046,1.224,0.136c0.389,0.091,0.741,0.238,1.056,0.44c0.314,0.203,0.576,0.467,0.784,0.792
			s0.338,0.718,0.392,1.176h-1.904c-0.085-0.438-0.285-0.73-0.6-0.88c-0.315-0.149-0.675-0.224-1.08-0.224
			c-0.128,0-0.28,0.011-0.456,0.031c-0.176,0.021-0.342,0.062-0.496,0.12c-0.155,0.059-0.286,0.145-0.392,0.256
			c-0.106,0.112-0.16,0.259-0.16,0.44c0,0.224,0.077,0.405,0.232,0.544s0.358,0.254,0.61,0.344c0.251,0.091,0.538,0.168,0.858,0.232
			c0.321,0.063,0.653,0.134,0.995,0.208c0.332,0.074,0.658,0.165,0.979,0.271c0.321,0.107,0.607,0.251,0.859,0.433
			s0.455,0.41,0.61,0.688c0.155,0.277,0.233,0.619,0.233,1.024c0,0.49-0.112,0.906-0.337,1.248s-0.516,0.618-0.874,0.832
			c-0.358,0.213-0.756,0.368-1.194,0.464c-0.438,0.096-0.872,0.144-1.299,0.144c-0.524,0-1.008-0.059-1.451-0.176
			c-0.444-0.117-0.829-0.296-1.155-0.536c-0.326-0.239-0.583-0.538-0.77-0.896s-0.286-0.781-0.296-1.272H257.278z"/>
		<path fill="#555555" d="M269.934,96.413h1.729v1.152h0.047c0.139-0.202,0.289-0.389,0.449-0.56s0.338-0.314,0.535-0.433
			c0.197-0.117,0.424-0.21,0.68-0.279s0.55-0.104,0.881-0.104c0.501,0,0.968,0.112,1.4,0.336c0.432,0.225,0.738,0.571,0.92,1.04
			c0.309-0.427,0.666-0.763,1.071-1.008s0.912-0.368,1.521-0.368c0.874,0,1.555,0.214,2.041,0.64
			c0.484,0.427,0.727,1.142,0.727,2.145v5.712h-1.824v-4.832c0-0.33-0.01-0.632-0.031-0.904c-0.021-0.271-0.083-0.506-0.185-0.704
			c-0.102-0.197-0.253-0.349-0.456-0.456c-0.203-0.106-0.48-0.159-0.832-0.159c-0.619,0-1.066,0.191-1.344,0.575
			c-0.277,0.385-0.416,0.929-0.416,1.633v4.848h-1.824v-5.312c0-0.576-0.104-1.011-0.312-1.305
			c-0.207-0.293-0.589-0.439-1.144-0.439c-0.234,0-0.462,0.048-0.68,0.144c-0.219,0.096-0.411,0.234-0.576,0.416
			s-0.299,0.405-0.399,0.672c-0.102,0.267-0.152,0.571-0.152,0.912v4.912h-1.825V96.413z"/>
		<path fill="#555555" d="M288.286,104.909c-0.66,0-1.25-0.109-1.768-0.327c-0.518-0.219-0.955-0.521-1.312-0.904
			s-0.629-0.843-0.814-1.376c-0.188-0.533-0.281-1.12-0.281-1.76c0-0.63,0.094-1.211,0.281-1.744
			c0.186-0.533,0.457-0.992,0.814-1.376c0.357-0.385,0.795-0.686,1.312-0.904s1.107-0.328,1.768-0.328
			c0.662,0,1.252,0.109,1.768,0.328c0.518,0.219,0.955,0.52,1.312,0.904c0.357,0.384,0.629,0.843,0.816,1.376
			s0.279,1.114,0.279,1.744c0,0.64-0.092,1.227-0.279,1.76s-0.459,0.992-0.816,1.376s-0.795,0.686-1.312,0.904
			C289.538,104.8,288.948,104.909,288.286,104.909z M288.286,103.47c0.406,0,0.758-0.085,1.057-0.256s0.543-0.395,0.736-0.672
			c0.191-0.277,0.332-0.59,0.424-0.937c0.09-0.347,0.135-0.701,0.135-1.063c0-0.353-0.045-0.704-0.135-1.057
			c-0.092-0.352-0.232-0.664-0.424-0.936c-0.193-0.272-0.438-0.493-0.736-0.664s-0.65-0.256-1.057-0.256
			c-0.404,0-0.758,0.085-1.055,0.256c-0.299,0.171-0.545,0.392-0.736,0.664c-0.193,0.271-0.334,0.584-0.424,0.936
			c-0.092,0.353-0.137,0.704-0.137,1.057c0,0.362,0.045,0.717,0.137,1.063c0.09,0.347,0.23,0.659,0.424,0.937
			c0.191,0.277,0.438,0.501,0.736,0.672C287.528,103.385,287.882,103.47,288.286,103.47z"/>
		<path fill="#555555" d="M295.997,102.029c0.055,0.534,0.256,0.907,0.609,1.12c0.352,0.214,0.771,0.32,1.264,0.32
			c0.17,0,0.365-0.014,0.584-0.04s0.424-0.077,0.615-0.152c0.191-0.074,0.35-0.184,0.473-0.328c0.123-0.144,0.178-0.333,0.168-0.567
			c-0.012-0.234-0.096-0.427-0.256-0.576s-0.365-0.27-0.617-0.36c-0.25-0.09-0.535-0.168-0.855-0.231
			c-0.32-0.064-0.645-0.134-0.977-0.208c-0.34-0.075-0.668-0.166-0.982-0.272c-0.316-0.106-0.598-0.25-0.85-0.432
			c-0.25-0.182-0.449-0.413-0.6-0.696c-0.148-0.282-0.223-0.632-0.223-1.048c0-0.448,0.107-0.824,0.326-1.128
			s0.496-0.55,0.832-0.736s0.711-0.317,1.121-0.392c0.41-0.075,0.803-0.112,1.176-0.112c0.426,0,0.834,0.046,1.225,0.136
			c0.389,0.091,0.74,0.238,1.055,0.44c0.314,0.203,0.576,0.467,0.785,0.792c0.207,0.325,0.338,0.718,0.391,1.176h-1.902
			c-0.086-0.438-0.287-0.73-0.602-0.88s-0.674-0.224-1.08-0.224c-0.127,0-0.279,0.011-0.455,0.031
			c-0.176,0.021-0.342,0.062-0.496,0.12s-0.285,0.145-0.393,0.256c-0.105,0.112-0.16,0.259-0.16,0.44
			c0,0.224,0.078,0.405,0.234,0.544c0.154,0.139,0.357,0.254,0.609,0.344c0.252,0.091,0.537,0.168,0.857,0.232
			c0.322,0.063,0.652,0.134,0.996,0.208c0.33,0.074,0.658,0.165,0.979,0.271c0.32,0.107,0.607,0.251,0.857,0.433
			c0.252,0.182,0.455,0.41,0.611,0.688c0.154,0.277,0.232,0.619,0.232,1.024c0,0.49-0.113,0.906-0.338,1.248
			c-0.223,0.342-0.516,0.618-0.873,0.832c-0.357,0.213-0.756,0.368-1.195,0.464c-0.438,0.096-0.871,0.144-1.299,0.144
			c-0.523,0-1.008-0.059-1.451-0.176s-0.828-0.296-1.154-0.536c-0.326-0.239-0.582-0.538-0.77-0.896s-0.285-0.781-0.297-1.272
			H295.997z"/>
		<path fill="#555555" d="M302.733,96.413h1.375v-2.479h1.824v2.479h1.648v1.36h-1.648v4.416c0,0.192,0.008,0.357,0.023,0.496
			c0.018,0.139,0.055,0.256,0.113,0.352c0.059,0.097,0.146,0.168,0.264,0.217c0.117,0.048,0.277,0.071,0.48,0.071
			c0.127,0,0.256-0.002,0.383-0.008c0.129-0.005,0.256-0.023,0.385-0.056v1.408c-0.203,0.021-0.4,0.042-0.592,0.063
			s-0.391,0.032-0.592,0.032c-0.48,0-0.867-0.046-1.16-0.136c-0.293-0.091-0.523-0.225-0.688-0.4
			c-0.166-0.176-0.279-0.397-0.336-0.664c-0.061-0.267-0.094-0.57-0.105-0.912v-4.88h-1.375V96.413z"/>
		<path fill="#555555" d="M314.669,96.413h1.729v1.12h0.031c0.258-0.479,0.613-0.823,1.072-1.031s0.955-0.312,1.488-0.312
			c0.65,0,1.219,0.115,1.705,0.344c0.484,0.229,0.887,0.544,1.207,0.944s0.561,0.867,0.721,1.4s0.24,1.104,0.24,1.712
			c0,0.555-0.072,1.093-0.217,1.615c-0.145,0.523-0.363,0.984-0.656,1.385c-0.293,0.399-0.664,0.72-1.111,0.96
			c-0.449,0.239-0.977,0.359-1.584,0.359c-0.268,0-0.533-0.023-0.801-0.071c-0.266-0.049-0.521-0.126-0.768-0.232
			s-0.473-0.242-0.68-0.408c-0.209-0.165-0.381-0.359-0.52-0.584h-0.033v4.128h-1.824V96.413z M321.038,100.558
			c0-0.373-0.049-0.736-0.145-1.088c-0.096-0.353-0.24-0.664-0.432-0.937c-0.191-0.271-0.432-0.49-0.721-0.655
			c-0.287-0.166-0.619-0.248-0.992-0.248c-0.768,0-1.346,0.267-1.736,0.8c-0.389,0.533-0.584,1.242-0.584,2.128
			c0,0.416,0.051,0.803,0.152,1.16s0.254,0.664,0.457,0.92c0.201,0.256,0.445,0.459,0.727,0.607c0.283,0.15,0.611,0.225,0.984,0.225
			c0.416,0,0.77-0.085,1.057-0.256s0.525-0.393,0.713-0.664c0.186-0.272,0.318-0.581,0.398-0.929
			C320.997,101.275,321.038,100.92,321.038,100.558z"/>
		<path fill="#555555" d="M328.829,104.909c-0.662,0-1.252-0.109-1.768-0.327c-0.518-0.219-0.955-0.521-1.312-0.904
			s-0.629-0.843-0.816-1.376s-0.279-1.12-0.279-1.76c0-0.63,0.092-1.211,0.279-1.744s0.459-0.992,0.816-1.376
			c0.357-0.385,0.795-0.686,1.312-0.904c0.516-0.219,1.105-0.328,1.768-0.328c0.66,0,1.25,0.109,1.768,0.328s0.955,0.52,1.312,0.904
			c0.357,0.384,0.629,0.843,0.816,1.376c0.186,0.533,0.279,1.114,0.279,1.744c0,0.64-0.094,1.227-0.279,1.76
			c-0.188,0.533-0.459,0.992-0.816,1.376s-0.795,0.686-1.312,0.904C330.079,104.8,329.489,104.909,328.829,104.909z M328.829,103.47
			c0.404,0,0.756-0.085,1.055-0.256s0.545-0.395,0.736-0.672c0.193-0.277,0.334-0.59,0.424-0.937
			c0.092-0.347,0.137-0.701,0.137-1.063c0-0.353-0.045-0.704-0.137-1.057c-0.09-0.352-0.23-0.664-0.424-0.936
			c-0.191-0.272-0.438-0.493-0.736-0.664s-0.65-0.256-1.055-0.256c-0.406,0-0.758,0.085-1.057,0.256s-0.543,0.392-0.736,0.664
			c-0.191,0.271-0.332,0.584-0.424,0.936c-0.09,0.353-0.135,0.704-0.135,1.057c0,0.362,0.045,0.717,0.135,1.063
			c0.092,0.347,0.232,0.659,0.424,0.937c0.193,0.277,0.438,0.501,0.736,0.672S328.423,103.47,328.829,103.47z"/>
		<path fill="#555555" d="M335.214,96.413h1.729v1.12h0.031c0.256-0.479,0.613-0.823,1.072-1.031s0.955-0.312,1.488-0.312
			c0.65,0,1.219,0.115,1.703,0.344c0.486,0.229,0.889,0.544,1.209,0.944c0.318,0.4,0.559,0.867,0.719,1.4s0.24,1.104,0.24,1.712
			c0,0.555-0.072,1.093-0.215,1.615c-0.145,0.523-0.363,0.984-0.656,1.385c-0.295,0.399-0.664,0.72-1.113,0.96
			c-0.447,0.239-0.975,0.359-1.584,0.359c-0.266,0-0.533-0.023-0.799-0.071c-0.268-0.049-0.523-0.126-0.768-0.232
			c-0.246-0.106-0.473-0.242-0.682-0.408c-0.207-0.165-0.381-0.359-0.52-0.584h-0.031v4.128h-1.824V96.413z M341.581,100.558
			c0-0.373-0.047-0.736-0.143-1.088c-0.098-0.353-0.24-0.664-0.434-0.937c-0.191-0.271-0.432-0.49-0.719-0.655
			c-0.289-0.166-0.619-0.248-0.992-0.248c-0.768,0-1.348,0.267-1.736,0.8s-0.584,1.242-0.584,2.128c0,0.416,0.051,0.803,0.152,1.16
			s0.252,0.664,0.455,0.92s0.445,0.459,0.729,0.607c0.283,0.15,0.611,0.225,0.984,0.225c0.416,0,0.768-0.085,1.055-0.256
			c0.289-0.171,0.525-0.393,0.713-0.664c0.188-0.272,0.32-0.581,0.4-0.929C341.542,101.275,341.581,100.92,341.581,100.558z"/>
		<path fill="#555555" d="M352.845,104.686h-1.793v-1.152h-0.031c-0.225,0.416-0.557,0.75-1,1c-0.443,0.251-0.893,0.376-1.352,0.376
			c-1.088,0-1.875-0.269-2.359-0.808c-0.486-0.538-0.729-1.352-0.729-2.44v-5.248h1.824v5.072c0,0.726,0.139,1.237,0.416,1.536
			s0.666,0.448,1.168,0.448c0.383,0,0.703-0.059,0.959-0.176s0.465-0.274,0.625-0.473c0.16-0.197,0.273-0.435,0.344-0.712
			c0.068-0.277,0.104-0.576,0.104-0.896v-4.801h1.824V104.686z"/>
		<path fill="#555555" d="M355.452,93.262h1.824v11.424h-1.824V93.262z"/>
		<path fill="#555555" d="M366.827,102.846c0,0.224,0.029,0.384,0.088,0.479c0.059,0.097,0.174,0.145,0.346,0.145
			c0.053,0,0.117,0,0.191,0s0.16-0.011,0.256-0.032v1.264c-0.064,0.021-0.146,0.046-0.248,0.072s-0.205,0.051-0.312,0.072
			c-0.105,0.021-0.213,0.037-0.32,0.048c-0.105,0.011-0.197,0.016-0.271,0.016c-0.373,0-0.682-0.074-0.928-0.224
			s-0.406-0.41-0.48-0.784c-0.361,0.353-0.807,0.608-1.336,0.769c-0.527,0.159-1.037,0.239-1.527,0.239
			c-0.373,0-0.73-0.051-1.072-0.151c-0.342-0.102-0.643-0.251-0.904-0.448s-0.469-0.448-0.623-0.752
			c-0.156-0.304-0.232-0.658-0.232-1.064c0-0.512,0.094-0.928,0.279-1.248c0.188-0.319,0.432-0.57,0.736-0.752
			c0.305-0.181,0.645-0.312,1.023-0.392s0.76-0.142,1.145-0.184c0.33-0.064,0.645-0.109,0.943-0.137
			c0.299-0.026,0.562-0.071,0.793-0.136c0.229-0.063,0.41-0.162,0.543-0.296c0.135-0.134,0.201-0.333,0.201-0.6
			c0-0.235-0.057-0.427-0.168-0.576s-0.252-0.265-0.416-0.345c-0.166-0.079-0.35-0.133-0.553-0.159
			c-0.203-0.027-0.395-0.04-0.576-0.04c-0.512,0-0.934,0.106-1.264,0.319c-0.33,0.214-0.518,0.544-0.561,0.992h-1.822
			c0.031-0.533,0.158-0.976,0.383-1.328c0.225-0.352,0.51-0.634,0.855-0.848c0.348-0.213,0.74-0.362,1.178-0.448
			c0.436-0.085,0.885-0.128,1.344-0.128c0.404,0,0.805,0.043,1.199,0.128c0.395,0.086,0.75,0.225,1.064,0.416
			c0.314,0.192,0.568,0.44,0.76,0.744s0.287,0.675,0.287,1.112V102.846z M365.005,100.542c-0.279,0.181-0.619,0.29-1.025,0.327
			c-0.404,0.038-0.811,0.094-1.215,0.168c-0.193,0.032-0.379,0.078-0.561,0.137s-0.342,0.139-0.48,0.239
			c-0.139,0.102-0.248,0.235-0.328,0.4c-0.08,0.166-0.119,0.365-0.119,0.6c0,0.203,0.059,0.374,0.176,0.513s0.258,0.248,0.424,0.328
			s0.346,0.136,0.545,0.168c0.197,0.031,0.375,0.048,0.535,0.048c0.203,0,0.422-0.026,0.656-0.08s0.455-0.145,0.664-0.272
			c0.207-0.128,0.381-0.29,0.52-0.487s0.209-0.44,0.209-0.729V100.542z"/>
		<path fill="#555555" d="M369.437,96.413h1.711v1.601h0.033c0.053-0.225,0.156-0.442,0.311-0.656
			c0.156-0.213,0.342-0.408,0.561-0.584s0.461-0.317,0.729-0.424c0.266-0.106,0.539-0.16,0.816-0.16
			c0.213,0,0.359,0.006,0.439,0.016c0.08,0.011,0.162,0.021,0.248,0.032v1.76c-0.129-0.021-0.26-0.039-0.393-0.056
			c-0.133-0.016-0.264-0.023-0.391-0.023c-0.311,0-0.602,0.062-0.873,0.184c-0.271,0.123-0.51,0.304-0.711,0.544
			c-0.203,0.24-0.363,0.536-0.48,0.888c-0.117,0.353-0.176,0.758-0.176,1.217v3.936h-1.824V96.413z"/>
		<path fill="#555555" d="M381.052,93.262h5.457c1.258,0,2.201,0.271,2.832,0.815c0.629,0.544,0.943,1.302,0.943,2.272
			c0,0.544-0.08,0.995-0.24,1.352c-0.16,0.357-0.346,0.646-0.559,0.864c-0.215,0.219-0.426,0.376-0.633,0.472
			c-0.209,0.097-0.359,0.16-0.457,0.192v0.032c0.172,0.021,0.355,0.074,0.553,0.16c0.197,0.085,0.381,0.221,0.553,0.407
			c0.17,0.188,0.311,0.43,0.424,0.729c0.111,0.299,0.168,0.672,0.168,1.12c0,0.672,0.051,1.282,0.152,1.832
			c0.1,0.549,0.258,0.941,0.471,1.176h-2.143c-0.15-0.245-0.238-0.518-0.266-0.816c-0.025-0.298-0.039-0.586-0.039-0.863
			c0-0.522-0.031-0.974-0.096-1.353c-0.064-0.378-0.182-0.693-0.352-0.943c-0.172-0.251-0.404-0.435-0.697-0.553
			c-0.293-0.117-0.67-0.176-1.127-0.176h-2.945v4.704h-2V93.262z M383.052,98.462h3.281c0.639,0,1.125-0.152,1.455-0.456
			c0.33-0.305,0.496-0.761,0.496-1.368c0-0.362-0.053-0.658-0.16-0.888c-0.105-0.229-0.254-0.408-0.439-0.536
			c-0.188-0.128-0.4-0.214-0.641-0.256c-0.24-0.043-0.488-0.064-0.744-0.064h-3.248V98.462z"/>
		<path fill="#555555" d="M396.013,93.262h2.127l4.4,11.424h-2.145l-1.072-3.024h-4.559l-1.072,3.024h-2.064L396.013,93.262z
			 M395.308,100.142h3.488l-1.713-4.912h-0.047L395.308,100.142z"/>
		<path fill="#555555" d="M404.269,93.262h4.736c0.873,0,1.631,0.149,2.271,0.448c0.641,0.298,1.162,0.706,1.568,1.224
			c0.404,0.518,0.705,1.123,0.904,1.816c0.197,0.693,0.295,1.435,0.295,2.224s-0.098,1.53-0.295,2.224
			c-0.199,0.693-0.5,1.299-0.904,1.816c-0.406,0.518-0.928,0.926-1.568,1.224c-0.641,0.299-1.398,0.448-2.271,0.448h-4.736V93.262z
			 M406.269,103.054h1.967c0.779,0,1.416-0.104,1.912-0.312s0.887-0.496,1.168-0.863c0.283-0.368,0.475-0.801,0.576-1.296
			c0.102-0.496,0.152-1.032,0.152-1.608s-0.051-1.112-0.152-1.608s-0.293-0.928-0.576-1.296c-0.281-0.368-0.672-0.656-1.168-0.864
			s-1.133-0.312-1.912-0.312h-1.967V103.054z"/>
		<path fill="#555555" d="M416.46,93.262h2v11.424h-2V93.262z"/>
		<path fill="#555555" d="M421.419,93.262h2v6.656c0,0.384,0.02,0.773,0.057,1.168s0.145,0.749,0.32,1.063s0.441,0.573,0.799,0.776
			c0.357,0.202,0.861,0.304,1.514,0.304c0.65,0,1.154-0.102,1.512-0.304c0.357-0.203,0.623-0.462,0.799-0.776
			s0.283-0.669,0.32-1.063s0.057-0.784,0.057-1.168v-6.656h2v7.312c0,0.736-0.113,1.376-0.336,1.92
			c-0.225,0.544-0.541,1-0.953,1.368c-0.41,0.368-0.902,0.643-1.479,0.824s-1.217,0.272-1.92,0.272c-0.705,0-1.346-0.091-1.92-0.272
			c-0.576-0.182-1.07-0.456-1.48-0.824c-0.412-0.368-0.729-0.824-0.953-1.368c-0.223-0.544-0.336-1.184-0.336-1.92V93.262z"/>
		<path fill="#555555" d="M435.052,100.878c0,0.438,0.074,0.811,0.225,1.119c0.148,0.31,0.357,0.563,0.623,0.761
			c0.268,0.197,0.574,0.341,0.92,0.432c0.348,0.091,0.723,0.136,1.129,0.136c0.438,0,0.811-0.05,1.119-0.151
			c0.311-0.102,0.561-0.232,0.752-0.393c0.193-0.16,0.332-0.344,0.416-0.552c0.086-0.208,0.129-0.418,0.129-0.632
			c0-0.438-0.1-0.76-0.297-0.968s-0.412-0.354-0.646-0.44c-0.406-0.149-0.879-0.29-1.416-0.424
			c-0.539-0.134-1.203-0.307-1.992-0.521c-0.492-0.128-0.9-0.296-1.225-0.504c-0.326-0.208-0.584-0.439-0.775-0.695
			c-0.193-0.257-0.328-0.528-0.408-0.816s-0.121-0.581-0.121-0.88c0-0.576,0.121-1.074,0.361-1.496
			c0.238-0.421,0.557-0.771,0.951-1.048s0.842-0.482,1.344-0.616c0.502-0.133,1.008-0.2,1.52-0.2c0.598,0,1.16,0.078,1.689,0.232
			c0.527,0.154,0.992,0.387,1.391,0.696c0.4,0.309,0.719,0.69,0.953,1.144s0.352,0.979,0.352,1.576h-2
			c-0.053-0.736-0.305-1.256-0.752-1.561c-0.447-0.304-1.02-0.456-1.713-0.456c-0.234,0-0.475,0.024-0.719,0.072
			c-0.246,0.048-0.471,0.128-0.672,0.24c-0.203,0.112-0.371,0.264-0.504,0.456c-0.135,0.192-0.201,0.432-0.201,0.72
			c0,0.405,0.125,0.723,0.377,0.952c0.25,0.229,0.578,0.402,0.984,0.521c0.041,0.011,0.209,0.056,0.504,0.136
			c0.293,0.08,0.621,0.168,0.982,0.264c0.363,0.096,0.719,0.189,1.064,0.28c0.348,0.091,0.596,0.157,0.744,0.2
			c0.373,0.117,0.699,0.277,0.977,0.479c0.277,0.203,0.51,0.435,0.695,0.696c0.188,0.262,0.326,0.541,0.416,0.84
			c0.092,0.299,0.137,0.598,0.137,0.896c0,0.64-0.131,1.187-0.393,1.64s-0.605,0.824-1.031,1.112
			c-0.428,0.287-0.912,0.498-1.457,0.632c-0.543,0.133-1.098,0.2-1.664,0.2c-0.65,0-1.264-0.08-1.84-0.24s-1.076-0.405-1.504-0.736
			c-0.426-0.33-0.768-0.755-1.023-1.271c-0.256-0.518-0.391-1.128-0.4-1.832H435.052z"/>
		<path fill="#555555" d="M451.149,100.878c0,0.438,0.074,0.811,0.223,1.119c0.15,0.31,0.357,0.563,0.625,0.761
			c0.266,0.197,0.572,0.341,0.92,0.432c0.346,0.091,0.723,0.136,1.127,0.136c0.438,0,0.811-0.05,1.121-0.151
			c0.309-0.102,0.559-0.232,0.752-0.393c0.191-0.16,0.33-0.344,0.416-0.552c0.084-0.208,0.127-0.418,0.127-0.632
			c0-0.438-0.098-0.76-0.295-0.968s-0.414-0.354-0.648-0.44c-0.406-0.149-0.877-0.29-1.416-0.424s-1.203-0.307-1.992-0.521
			c-0.49-0.128-0.898-0.296-1.225-0.504c-0.324-0.208-0.584-0.439-0.775-0.695c-0.191-0.257-0.328-0.528-0.408-0.816
			s-0.119-0.581-0.119-0.88c0-0.576,0.119-1.074,0.359-1.496c0.24-0.421,0.557-0.771,0.953-1.048
			c0.393-0.277,0.842-0.482,1.344-0.616c0.5-0.133,1.008-0.2,1.52-0.2c0.598,0,1.16,0.078,1.688,0.232s0.992,0.387,1.393,0.696
			c0.4,0.309,0.717,0.69,0.951,1.144s0.352,0.979,0.352,1.576h-2c-0.053-0.736-0.303-1.256-0.752-1.561
			c-0.447-0.304-1.018-0.456-1.711-0.456c-0.234,0-0.475,0.024-0.721,0.072c-0.244,0.048-0.469,0.128-0.672,0.24
			s-0.371,0.264-0.504,0.456s-0.199,0.432-0.199,0.72c0,0.405,0.125,0.723,0.375,0.952c0.252,0.229,0.578,0.402,0.984,0.521
			c0.043,0.011,0.211,0.056,0.504,0.136s0.621,0.168,0.984,0.264s0.717,0.189,1.064,0.28c0.346,0.091,0.594,0.157,0.744,0.2
			c0.373,0.117,0.697,0.277,0.975,0.479c0.277,0.203,0.51,0.435,0.697,0.696c0.186,0.262,0.324,0.541,0.416,0.84
			c0.09,0.299,0.135,0.598,0.135,0.896c0,0.64-0.131,1.187-0.391,1.64c-0.262,0.453-0.605,0.824-1.033,1.112
			c-0.426,0.287-0.912,0.498-1.455,0.632c-0.545,0.133-1.1,0.2-1.664,0.2c-0.65,0-1.264-0.08-1.84-0.24s-1.078-0.405-1.504-0.736
			c-0.428-0.33-0.77-0.755-1.025-1.271c-0.256-0.518-0.389-1.128-0.398-1.832H451.149z"/>
		<path fill="#555555" d="M462.013,101.021c0,0.32,0.045,0.63,0.135,0.928c0.092,0.299,0.227,0.561,0.408,0.784
			c0.182,0.225,0.412,0.403,0.689,0.536c0.277,0.134,0.607,0.2,0.992,0.2c0.533,0,0.961-0.114,1.287-0.344s0.568-0.573,0.729-1.032
			h1.727c-0.096,0.448-0.26,0.848-0.494,1.2c-0.236,0.352-0.518,0.647-0.85,0.888c-0.33,0.24-0.701,0.422-1.111,0.544
			s-0.84,0.184-1.287,0.184c-0.652,0-1.229-0.106-1.729-0.319c-0.502-0.214-0.926-0.513-1.271-0.896
			c-0.348-0.384-0.609-0.843-0.785-1.376s-0.264-1.12-0.264-1.76c0-0.587,0.094-1.145,0.279-1.672
			c0.188-0.528,0.453-0.992,0.801-1.393c0.346-0.399,0.766-0.717,1.256-0.951c0.49-0.235,1.045-0.353,1.664-0.353
			c0.65,0,1.234,0.136,1.752,0.408c0.518,0.271,0.947,0.632,1.287,1.08c0.342,0.448,0.59,0.963,0.744,1.544s0.195,1.182,0.121,1.8
			H462.013z M466.269,99.821c-0.021-0.288-0.082-0.565-0.184-0.832s-0.24-0.498-0.416-0.695s-0.391-0.357-0.641-0.48
			c-0.25-0.122-0.531-0.184-0.84-0.184c-0.32,0-0.611,0.056-0.871,0.168c-0.262,0.111-0.486,0.267-0.674,0.464
			c-0.186,0.197-0.336,0.43-0.447,0.696s-0.174,0.555-0.184,0.863H466.269z"/>
		<path fill="#555555" d="M470.124,96.413h1.713v1.601h0.031c0.053-0.225,0.158-0.442,0.312-0.656
			c0.154-0.213,0.342-0.408,0.561-0.584s0.461-0.317,0.727-0.424c0.268-0.106,0.539-0.16,0.816-0.16
			c0.213,0,0.361,0.006,0.439,0.016c0.08,0.011,0.164,0.021,0.248,0.032v1.76c-0.127-0.021-0.258-0.039-0.391-0.056
			c-0.135-0.016-0.264-0.023-0.393-0.023c-0.309,0-0.6,0.062-0.871,0.184c-0.273,0.123-0.51,0.304-0.713,0.544
			s-0.363,0.536-0.48,0.888c-0.117,0.353-0.176,0.758-0.176,1.217v3.936h-1.824V96.413z"/>
		<path fill="#555555" d="M475.581,96.413h1.984l2.096,6.353h0.031l2.018-6.353h1.887l-2.959,8.272h-2.049L475.581,96.413z"/>
		<path fill="#555555" d="M486.765,101.021c0,0.32,0.045,0.63,0.135,0.928c0.092,0.299,0.227,0.561,0.408,0.784
			c0.182,0.225,0.412,0.403,0.689,0.536c0.277,0.134,0.607,0.2,0.992,0.2c0.533,0,0.961-0.114,1.287-0.344s0.568-0.573,0.729-1.032
			h1.727c-0.096,0.448-0.26,0.848-0.494,1.2c-0.236,0.352-0.518,0.647-0.85,0.888c-0.33,0.24-0.701,0.422-1.111,0.544
			s-0.84,0.184-1.287,0.184c-0.652,0-1.229-0.106-1.729-0.319c-0.502-0.214-0.926-0.513-1.271-0.896
			c-0.348-0.384-0.609-0.843-0.785-1.376s-0.264-1.12-0.264-1.76c0-0.587,0.094-1.145,0.279-1.672
			c0.188-0.528,0.453-0.992,0.801-1.393c0.346-0.399,0.766-0.717,1.256-0.951c0.49-0.235,1.045-0.353,1.664-0.353
			c0.65,0,1.234,0.136,1.752,0.408c0.518,0.271,0.947,0.632,1.287,1.08c0.342,0.448,0.59,0.963,0.744,1.544s0.195,1.182,0.121,1.8
			H486.765z M491.021,99.821c-0.021-0.288-0.082-0.565-0.184-0.832s-0.24-0.498-0.416-0.695s-0.391-0.357-0.641-0.48
			c-0.25-0.122-0.531-0.184-0.84-0.184c-0.32,0-0.611,0.056-0.871,0.168c-0.262,0.111-0.486,0.267-0.674,0.464
			c-0.186,0.197-0.336,0.43-0.447,0.696s-0.174,0.555-0.184,0.863H491.021z"/>
		<path fill="#555555" d="M494.876,96.413h1.713v1.601h0.031c0.053-0.225,0.158-0.442,0.312-0.656
			c0.154-0.213,0.342-0.408,0.561-0.584s0.461-0.317,0.727-0.424c0.268-0.106,0.539-0.16,0.816-0.16
			c0.213,0,0.361,0.006,0.439,0.016c0.08,0.011,0.164,0.021,0.248,0.032v1.76c-0.127-0.021-0.258-0.039-0.391-0.056
			c-0.135-0.016-0.264-0.023-0.393-0.023c-0.309,0-0.6,0.062-0.871,0.184c-0.273,0.123-0.51,0.304-0.713,0.544
			s-0.363,0.536-0.48,0.888c-0.117,0.353-0.176,0.758-0.176,1.217v3.936h-1.824V96.413z"/>
	</g>
	<g id="Logo_Name">
		<g id="Free">
			<path fill="#555555" d="M197.195,36.697l-0.716,4.167c-0.13,0.716-0.847,1.302-1.562,1.302h-13.282
				c-3.776,0-5.339,1.302-6.121,5.599l-1.237,7.032h17.645c0.651,0,1.107,0.456,1.107,1.107c0,0.065,0,0.13,0,0.195l-0.847,4.688
				c-0.13,0.716-0.846,1.302-1.562,1.302h-17.645l-3.451,19.924c-0.13,0.716-0.847,1.302-1.563,1.302h-6.38
				c-0.651,0-1.042-0.456-1.042-1.042c0-0.13,0-0.195,0-0.26l5.99-34.248c1.953-11.068,7.683-13.347,17.384-13.347
				c7.748,0,10.222,0.586,12.24,0.912c0.781,0.13,1.107,0.325,1.107,0.911C197.26,36.372,197.195,36.502,197.195,36.697z"/>
			<path fill="#555555" d="M222.328,47.44l-0.846,4.688c-0.13,0.716-0.781,1.302-1.498,1.302c-2.083,0-4.948,0.13-9.375,2.344
				l-4.623,26.174c-0.13,0.716-0.846,1.367-1.562,1.367h-5.99c-0.651,0-1.042-0.521-1.042-1.106c0-0.131,0-0.195,0-0.261
				l5.99-34.052c0.13-0.716,0.781-1.302,1.498-1.302h5.665c0.651,0,1.107,0.456,1.107,1.107c0,0.065,0,0.13,0,0.195l-0.26,1.367
				c3.711-2.865,7.162-3.125,9.896-3.125c0.651,0,1.042,0.456,1.042,1.042C222.328,47.31,222.328,47.375,222.328,47.44z"/>
			<path fill="#555555" d="M255.079,63.197l-0.521,3.125c-0.195,1.042-0.651,1.628-1.563,1.628H231.77
				c-0.13,0.912-0.325,1.758-0.325,2.669c0,3.516,1.823,5.859,6.641,5.859c4.753,0,9.245-0.455,12.045-0.716
				c0.065,0,0.195,0,0.261,0c0.521,0,0.977,0.13,0.977,0.716c0,0.065,0,0.195,0,0.261l-0.781,4.297
				c-0.195,1.042-0.391,1.498-1.628,1.693c-4.362,0.781-7.227,1.106-13.087,1.106c-5.795,0-12.827-3.255-12.827-13.086
				c0-1.172,0.065-2.54,0.326-3.907l0.716-4.037c2.148-12.176,8.594-16.668,18.556-16.668c8.659,0,12.761,5.729,12.761,13.347
				C255.404,60.657,255.274,61.959,255.079,63.197z M241.341,53.561c-5.209,0-7.618,3.516-8.464,8.269h13.803
				c0.13-0.847,0.26-1.628,0.26-2.474C246.94,55.579,244.922,53.561,241.341,53.561z"/>
			<path fill="#555555" d="M292.452,63.197l-0.52,3.125c-0.195,1.042-0.652,1.628-1.562,1.628h-21.227
				c-0.131,0.912-0.326,1.758-0.326,2.669c0,3.516,1.824,5.859,6.643,5.859c4.752,0,9.244-0.455,12.045-0.716
				c0.064,0,0.195,0,0.26,0c0.521,0,0.977,0.13,0.977,0.716c0,0.065,0,0.195,0,0.261l-0.781,4.297
				c-0.195,1.042-0.391,1.498-1.627,1.693c-4.363,0.781-7.229,1.106-13.088,1.106c-5.795,0-12.827-3.255-12.827-13.086
				c0-1.172,0.065-2.54,0.326-3.907l0.716-4.037c2.149-12.176,8.596-16.668,18.557-16.668c8.66,0,12.762,5.729,12.762,13.347
				C292.778,60.657,292.647,61.959,292.452,63.197z M278.714,53.561c-5.207,0-7.617,3.516-8.463,8.269h13.803
				c0.131-0.847,0.26-1.628,0.26-2.474C284.313,55.579,282.296,53.561,278.714,53.561z"/>
		</g>
		<g id="RADIUS">
			<path fill="#004D95" d="M325.333,63.001l6.902,19.012c0.064,0.13,0.064,0.195,0.064,0.325c0,0.521-0.391,0.977-0.977,0.977
				h-7.486c-0.717,0-0.977-0.521-1.238-1.302l-6.186-17.385h-1.301c-1.693,0-3.582-0.13-5.795-0.26l-3.061,17.645
				c-0.131,0.716-0.781,1.302-1.498,1.302h-6.51c-0.652,0-1.043-0.456-1.043-1.042c0-0.064,0-0.13,0-0.195v-0.064l7.879-44.795
				c0.26-1.302,1.041-1.758,2.408-1.954c3.451-0.521,8.139-0.846,12.893-0.846c9.766,0,16.473,3.776,16.473,11.915
				C336.858,53.951,332.886,60.657,325.333,63.001z M319.019,42.167c-1.367,0-4.623,0.13-5.795,0.26l-2.605,14.649
				c1.043,0.065,4.689,0.195,5.795,0.195c6.707,0,11.33-2.474,11.33-9.831C327.743,43.469,324.747,42.167,319.019,42.167z"/>
			<path fill="#004D95" d="M374.233,83.315h-6.641c-0.586,0-0.977-0.521-1.043-1.106l-0.781-12.371h-14.975l-5.209,12.371
				c-0.26,0.586-0.846,1.106-1.432,1.106h-7.162c-0.586,0-0.977-0.325-0.977-0.847c0-0.195,0.064-0.391,0.129-0.586l17.84-40.823
				c2.67-6.055,6.643-6.641,10.223-6.641c3.32,0,7.422,1.172,7.879,6.641l3.516,40.823c0,0.065,0,0.065,0,0.131
				C375.601,82.729,375.015,83.315,374.233,83.315z M364.011,43.078c-0.064-0.782-0.195-1.042-0.846-1.042
				c-0.652,0-0.912,0.26-1.238,1.042l-8.072,19.337h11.459L364.011,43.078z"/>
			<path fill="#004D95" d="M421.569,54.342l-1.627,9.571c-2.279,13.412-10.158,19.923-23.961,19.923
				c-4.623,0-10.809-0.455-12.695-0.781c-0.912-0.13-1.434-0.586-1.434-1.497c0-0.195,0-0.325,0.064-0.521l7.748-43.818
				c0.262-1.302,0.848-1.823,2.02-2.019c2.018-0.326,8.334-0.781,12.957-0.781c11.068,0,17.318,5.794,17.318,15.496
				C421.96,51.282,421.829,52.779,421.569,54.342z M403.339,42.036c-2.408,0-4.168,0.13-5.535,0.195l-5.924,33.792
				c1.367,0.064,2.994,0.195,5.404,0.195c6.51,0,12.109-2.93,13.672-12.306l1.629-9.571c0.26-1.562,0.391-2.93,0.391-4.102
				C412.976,43.599,409.134,42.036,403.339,42.036z"/>
			<path fill="#004D95" d="M442.341,36.176l-8.074,45.837c-0.129,0.716-0.846,1.302-1.562,1.302h-6.445
				c-0.65,0-1.041-0.456-1.041-1.042c0-0.13,0-0.195,0-0.26l8.072-45.837c0.131-0.716,0.781-1.237,1.498-1.237h6.445
				c0.652,0,1.107,0.391,1.107,1.042C442.341,36.046,442.341,36.111,442.341,36.176z"/>
			<path fill="#004D95" d="M487.593,36.176l-5.209,29.234c-2.605,14.585-10.223,18.426-20.967,18.426
				c-9.244,0-15.234-4.297-15.234-13.672c0-1.433,0.064-3.061,0.391-4.753l5.209-29.234c0.129-0.716,0.781-1.237,1.496-1.237h6.447
				c0.65,0,1.105,0.456,1.105,1.042c0,0.065,0,0.13,0,0.195l-5.207,29.234c-0.326,1.888-0.521,3.516-0.521,4.883
				c0,4.363,2.018,6.055,7.488,6.055c7.031,0,9.375-3.255,10.742-10.938l5.209-29.234c0.131-0.716,0.781-1.237,1.498-1.237h6.445
				c0.65,0,1.107,0.456,1.107,1.042C487.593,36.046,487.593,36.111,487.593,36.176z"/>
			<path fill="#004D95" d="M524.901,36.828l-0.848,4.818c-0.129,0.651-0.65,1.172-1.301,1.172c-0.066,0-0.066,0-0.131,0
				c-4.232-0.391-7.943-0.651-12.762-0.651c-3.58,0-7.684,1.107-7.684,5.469c0,1.693,1.107,2.93,4.363,4.948l7.031,4.362
				c5.273,3.255,6.902,7.422,6.902,11.134c0,11.394-8.984,15.756-19.664,15.756c-4.883,0-8.334-0.455-11.328-1.172
				c-0.521-0.13-1.041-0.521-1.041-1.106c0-0.065,0-0.13,0-0.195l0.846-4.688c0.131-0.65,0.717-1.236,1.432-1.236
				c0.066,0,0.066,0,0.131,0c2.604,0.325,9.051,0.65,11.459,0.65c4.559,0,8.596-1.562,8.596-6.771c0-1.693-1.043-3.19-4.428-5.469
				l-7.684-5.144c-4.428-2.93-5.73-7.357-5.73-10.548c0-10.938,9.311-13.738,18.557-13.738c4.297,0,10.158,0.651,12.307,1.172
				c0.52,0.13,0.977,0.521,0.977,1.042C524.901,36.697,524.901,36.762,524.901,36.828z"/>
		</g>
	</g>
	<g id="Logo_Symbol">
		<path fill="#004D95" d="M114.946,15.547l-7.753,12.855c8.389,5.748,15.13,14.063,18.865,24.329
			c9.521,26.168-4.022,55.202-30.19,64.724c-26.167,9.521-55.202-4.022-64.722-30.192c-7.922-21.772,0.133-45.52,18.135-58.369
			l-5.28-14.511c-25.74,16.005-37.718,48.419-26.952,78.01c12.349,33.939,50.008,51.506,83.948,39.158
			c33.94-12.35,51.506-50.01,39.157-83.949C135.201,33.988,126.169,23.019,114.946,15.547z"/>
		<path fill="#555555" d="M59.488,56.95l-5.777-15.878c-11.663,10.06-16.546,26.664-10.976,41.976
			c7.195,19.777,29.139,30.012,48.917,22.817c19.777-7.196,30.013-29.141,22.816-48.918c-2.732-7.511-7.596-13.641-13.655-17.967
			l-7.782,12.903c3.237,2.569,5.828,6.031,7.342,10.192c4.368,12.005-1.845,25.325-13.85,29.692
			c-12.003,4.368-25.323-1.846-29.691-13.851C54.185,70.648,55.434,62.903,59.488,56.95z"/>
		<path fill="#004D95" d="M81.166,77.046c3.893-1.416,5.9-5.72,4.484-9.612l-7.493-20.593c3.38-0.062,6.69,0.637,9.724,1.963
			l7.789-12.912c-9.056-4.528-19.875-5.487-30.118-1.76c-2.412,0.877-4.68,1.978-6.793,3.263l12.795,35.168
			C72.97,76.455,77.274,78.462,81.166,77.046z"/>
		<path fill="#555555" d="M71.987,29.88l-3.412-9.377c11.633-2.364,23.417-0.46,33.474,4.81l7.755-12.856
			C93.889,3.839,74.51,1.786,56.206,8.445c-2.385,0.868-4.679,1.872-6.896,2.979l8.581,23.584c2.13-1.26,4.398-2.35,6.807-3.227
			S69.544,30.283,71.987,29.88z"/>
	</g>
</g>
</svg>
