<?xml version="1.0" encoding="utf-8"?>
<!-- Generator: Adobe Illustrator 19.2.1, SVG Export Plug-In . SVG Version: 6.00 Build 0)  -->
<svg version="1.1" id="Layer_1" xmlns="http://www.w3.org/2000/svg" xmlns:xlink="http://www.w3.org/1999/xlink" x="0px" y="0px"
	 viewBox="0 0 68 80" style="enable-background:new 0 0 68 80;" xml:space="preserve">
<style type="text/css">
	.st0{fill:none;stroke:#DEE7E8;stroke-miterlimit:10;}
	.st1{fill:#00A6E2;}
	.st2{fill:none;stroke:#B0C3C6;stroke-width:2;stroke-miterlimit:10;}
	.st3{fill:#666666;}
	.st4{fill:none;stroke:#B0C3C6;stroke-width:2;stroke-linejoin:round;stroke-miterlimit:10;}
	.st5{fill:#00C9ED;}
	.st6{fill:#B0C3C6;}
	.st7{fill:#FFFFFF;stroke:#B0C3C6;stroke-width:2;stroke-linejoin:round;stroke-miterlimit:10;}
	.st8{fill:#303030;}
	.st9{opacity:0.4;fill:#F6F6F6;}
	.st10{fill:none;stroke:#999999;stroke-width:2;stroke-miterlimit:10;}
	.st11{fill:#999999;}
	.st12{fill:#FFFFFF;}
	.st13{clip-path:url(#SVGID_2_);fill:#2F3537;}
	.st14{opacity:0.3;fill:none;stroke:#9FB1B3;stroke-width:2;stroke-miterlimit:10;}
	.st15{fill:none;stroke:#FFFFFF;stroke-miterlimit:10;}
	.st16{fill:#FFFFFF;stroke:#FFFFFF;stroke-miterlimit:10;}
	.st17{fill:none;stroke:#303030;stroke-miterlimit:10;}
	.st18{opacity:0.8;fill:#B0C3C6;}
	.st19{opacity:0.7;}
	.st20{opacity:0.8;clip-path:url(#SVGID_4_);fill:#00A6E2;}
	.st21{opacity:0.8;fill:#00A6E2;}
	.st22{opacity:0.8;clip-path:url(#SVGID_6_);fill:#00A6E2;}
	.st23{clip-path:url(#SVGID_8_);}
	.st24{clip-path:url(#SVGID_10_);}
	.st25{fill:none;stroke:#B0C3C6;stroke-width:3;stroke-linejoin:round;stroke-miterlimit:10;}
	.st26{opacity:0.3;fill:none;stroke:#9FB1B3;stroke-width:3;stroke-miterlimit:10;}
	.st27{fill:#FFFFFF;stroke:#B0C3C6;stroke-width:3;stroke-linejoin:round;stroke-miterlimit:10;}
	.st28{clip-path:url(#SVGID_12_);fill:#2F3537;}
	.st29{clip-path:url(#SVGID_14_);}
	.st30{fill:#FFFFFF;stroke:#B0C3C6;stroke-width:2;stroke-miterlimit:10;}
	.st31{fill:#B4CBCE;}
</style>
<g>
	<g>
		<g>
			<g>
				<g>
					<g>
						<g>
							<circle class="st1" cx="34.3" cy="40.5" r="19.7"/>
							<path class="st1" d="M59.5,59.2c-7.8,0-14.2-6.4-14.2-14.2c0-2.4,2-4.4,4.4-4.4c2.4,0,4.4,2,4.4,4.4c0,3,2.4,5.4,5.4,5.4
								c2.4,0,4.4,2,4.4,4.4C63.9,57.3,61.9,59.2,59.5,59.2z"/>
							<path class="st1" d="M8.5,59.2c7.8,0,14.2-6.4,14.2-14.2c0-2.4-2-4.4-4.4-4.4s-4.4,2-4.4,4.4c0,3-2.4,5.4-5.4,5.4
								c-2.4,0-4.4,2-4.4,4.4C4.1,57.3,6.1,59.2,8.5,59.2z"/>
							<rect x="14.6" y="40.5" class="st1" width="39.3" height="24.2"/>
						</g>
						<g>
							<circle class="st12" cx="34.3" cy="42.1" r="9.8"/>
							<g>
								<defs>
									<circle id="SVGID_11_" cx="34.3" cy="42.1" r="9.8"/>
								</defs>
								<use xlink:href="#SVGID_11_"  style="overflow:visible;fill:#FFFFFF;"/>
								<clipPath id="SVGID_2_">
									<use xlink:href="#SVGID_11_"  style="overflow:visible;"/>
								</clipPath>
								<circle class="st13" cx="38.4" cy="41.8" r="6.8"/>
							</g>
						</g>
					</g>
				</g>
			</g>
		</g>
	</g>
	<g>
		<g>
			<rect x="8.2" y="44.4" class="st7" width="49.7" height="31.3"/>
			<g>
				<line class="st2" x1="57.5" y1="75.7" x2="8.4" y2="75.7"/>
				<line class="st2" x1="57.5" y1="75.6" x2="37.9" y2="61.6"/>
				<line class="st2" x1="8.9" y1="75.6" x2="28.4" y2="61.6"/>
				<path class="st12" d="M33.2,67.3c-1.2,0-2.4-0.4-3.3-1.2l-11.3-9l4.5-5.3l10,8l9.1-7.3l4.8,5.1l-10.6,8.5
					C35.6,66.9,34.5,67.3,33.2,67.3z"/>
				<path class="st2" d="M57.4,44.9L34.2,63.4c-0.5,0.5-1.5,0.5-2,0L9.1,44.9"/>
			</g>
			<g>
				<g>
					<line class="st14" x1="21.4" y1="6.3" x2="25.1" y2="14.9"/>
				</g>
				<g>
					<line class="st14" x1="34.3" y1="3.6" x2="34.3" y2="12.9"/>
				</g>
				<g>
					<line class="st14" x1="47.3" y1="6.3" x2="43.5" y2="14.9"/>
				</g>
			</g>
		</g>
	</g>
	<circle class="st1" cx="58.8" cy="54.8" r="4.4"/>
	<circle class="st1" cx="9.1" cy="54.8" r="4.4"/>
</g>
</svg>
