<?xml version="1.0" encoding="utf-8"?>
<!-- Generator: Adobe Illustrator 19.2.1, SVG Export Plug-In . SVG Version: 6.00 Build 0)  -->
<svg version="1.1" id="Layer_1" xmlns="http://www.w3.org/2000/svg" xmlns:xlink="http://www.w3.org/1999/xlink" x="0px" y="0px"
	 viewBox="0 0 286 36" style="enable-background:new 0 0 286 36;" xml:space="preserve">
<style type="text/css">
	.st0{fill:#B0C3C6;}
	.st1{fill:none;stroke:#DEE7E8;stroke-miterlimit:10;}
	.st2{fill:#00A6E2;}
	.st3{fill:none;stroke:#B0C3C6;stroke-width:2;stroke-miterlimit:10;}
	.st4{fill:#666666;}
	.st5{fill:none;stroke:#B0C3C6;stroke-width:2;stroke-linejoin:round;stroke-miterlimit:10;}
	.st6{fill:#00C9ED;}
	.st7{fill:#FFFFFF;stroke:#B0C3C6;stroke-width:2;stroke-linejoin:round;stroke-miterlimit:10;}
	.st8{fill:#303030;}
	.st9{opacity:0.4;fill:#F6F6F6;}
	.st10{fill:none;stroke:#999999;stroke-width:2;stroke-miterlimit:10;}
	.st11{fill:#999999;}
	.st12{fill:#FFFFFF;}
	.st13{clip-path:url(#SVGID_2_);fill:#2F3537;}
	.st14{opacity:0.3;fill:none;stroke:#9FB1B3;stroke-width:2;stroke-miterlimit:10;}
	.st15{fill:none;stroke:#FFFFFF;stroke-miterlimit:10;}
	.st16{fill:#FFFFFF;stroke:#FFFFFF;stroke-miterlimit:10;}
	.st17{fill:none;stroke:#303030;stroke-miterlimit:10;}
	.st18{opacity:0.8;fill:#B0C3C6;}
	.st19{opacity:0.7;}
	.st20{opacity:0.8;clip-path:url(#SVGID_4_);fill:#00A6E2;}
	.st21{opacity:0.8;fill:#00A6E2;}
	.st22{opacity:0.8;clip-path:url(#SVGID_6_);fill:#00A6E2;}
	.st23{clip-path:url(#SVGID_8_);}
	.st24{clip-path:url(#SVGID_10_);}
	.st25{fill:none;stroke:#B0C3C6;stroke-width:3;stroke-linejoin:round;stroke-miterlimit:10;}
	.st26{opacity:0.3;fill:none;stroke:#9FB1B3;stroke-width:3;stroke-miterlimit:10;}
	.st27{fill:#FFFFFF;stroke:#B0C3C6;stroke-width:3;stroke-linejoin:round;stroke-miterlimit:10;}
	.st28{clip-path:url(#SVGID_12_);fill:#2F3537;}
	.st29{clip-path:url(#SVGID_14_);fill:#B0C3C6;}
	.st30{fill:#33B8E8;}
	.st31{fill:#238DB4;}
	.st32{fill:#E2E7E8;}
	.st33{clip-path:url(#SVGID_16_);}
	.st34{fill:#FFFFFF;stroke:#B0C3C6;stroke-width:2;stroke-miterlimit:10;}
	.st35{fill:#B4CBCE;}
	.st36{fill:#003147;}
	.st37{fill:#FFD62B;}
	.st38{fill:#00B78E;}
	.st39{fill:#FF7824;}
	.st40{fill:#FF3223;}
	.st41{fill:#7955DF;}
	.st42{fill:none;stroke:#FF3223;stroke-width:2;stroke-miterlimit:10;}
	.st43{fill:none;stroke:#00A6E2;stroke-width:2;stroke-miterlimit:10;}
	.st44{clip-path:url(#SVGID_18_);fill:#303030;}
	.st45{fill:#F5C81F;}
	.st46{fill:#F49F90;}
	.st47{fill:#F3EEDE;}
	.st48{fill-rule:evenodd;clip-rule:evenodd;fill:#FFFFFF;}
</style>
<g>
	<g>
		<path class="st6" d="M8.5,15.4c0.6-0.4,1.4-0.8,2.2-1.1c0.8-0.3,1.6-0.5,2.5-0.5c1.5,0,2.6,0.5,3.4,1.4c0.8,1,1.2,2.3,1.2,4v8.1
			l2.1,0.8v2.4h-8.4v-2.4l1.7-0.8V20c0-0.7-0.2-1.3-0.6-1.8c-0.4-0.5-0.9-0.7-1.5-0.7c-0.6,0-1.1,0.1-1.6,0.4
			c-0.5,0.3-0.9,0.5-1.2,0.8c-0.3,0.3-0.5,0.5-0.5,0.5v8l1.7,0.8v2.4H0.8v-2.4l2.4-0.8v-9.9l-2.4-0.8v-2.4L7.3,14l0.2,2.1
			C7.5,16.1,7.8,15.9,8.5,15.4z"/>
		<path class="st6" d="M27.6,26.1c0.7,0.7,1.5,1,2.6,1c0.8,0,1.5-0.1,2.3-0.3c0.8-0.2,1.4-0.4,1.9-0.7c0.5-0.2,0.8-0.4,1-0.5
			l1.3,2.5c0,0-0.4,0.3-1.1,0.8s-1.6,0.9-2.6,1.3c-1,0.4-2.1,0.6-3.3,0.6c-2.6,0-4.5-0.7-5.9-2.1s-2-3.5-2-6.1c0-1.8,0.3-3.3,1-4.7
			c0.7-1.3,1.6-2.4,2.8-3.1c1.2-0.7,2.7-1.1,4.3-1.1c2.2,0,3.9,0.6,5.1,1.9c1.2,1.3,1.8,3,1.8,5.2c0,0.5,0,1-0.1,1.4
			c0,0.5-0.1,0.7-0.1,0.9l-10.1,0.1C26.5,24.5,26.9,25.4,27.6,26.1z M27.5,18.2c-0.5,0.6-0.9,1.3-1,2.2h5.5c0-0.9-0.2-1.7-0.6-2.2
			c-0.4-0.6-1-0.8-1.9-0.8C28.7,17.4,28,17.7,27.5,18.2z"/>
		<path class="st6" d="M42.2,29.3c-0.7-1-1-2.5-1-4.4v-7h-2.8v-3l2.8-0.4v-4.2l4.6-0.8v5H50v3.4h-4.3v6.7c0,1,0.1,1.7,0.3,2.1
			c0.2,0.4,0.7,0.6,1.3,0.6c0.4,0,0.8-0.1,1.3-0.2c0.5-0.2,0.9-0.3,1.1-0.5l1.1,2.3c-1.7,1.3-3.4,1.9-5.2,1.9
			C44,30.8,42.8,30.3,42.2,29.3z"/>
		<path class="st6" d="M69.9,16.6v-2.4l7.8-0.1v2.6L76.1,17L72,30.5h-4.7L65,22.7l-0.6-2.4l-0.8,3.3l-2.2,6.8h-4.6L52.6,17l-1.3-0.4
			v-2.4l8-0.1v2.6L57.4,17l2,8.6l3.2-11l4-0.7L70,25.5l1.8-8.5L69.9,16.6z"/>
		<path class="st6" d="M92.2,15.9c1.3,1.4,2,3.5,2,6.1c0,1.8-0.3,3.4-1,4.7c-0.7,1.3-1.6,2.4-2.8,3.1c-1.2,0.7-2.7,1.1-4.3,1.1
			c-5.2,0-7.8-2.8-7.8-8.4c0-1.8,0.3-3.4,1-4.7c0.7-1.3,1.6-2.3,2.9-3c1.2-0.7,2.7-1,4.3-1C89,13.7,90.9,14.4,92.2,15.9z M83.8,18.5
			c-0.5,0.7-0.8,2-0.8,3.8c0,1.7,0.3,2.9,0.8,3.7s1.3,1.2,2.4,1.2c1.1,0,1.9-0.4,2.5-1.2s0.8-2.1,0.8-3.9c0-1.6-0.2-2.8-0.7-3.6
			s-1.3-1.2-2.4-1.2C85.2,17.4,84.4,17.7,83.8,18.5z"/>
		<path class="st6" d="M103.8,15.4c0.5-0.4,1-0.8,1.7-1.2s1.3-0.5,1.9-0.5c0.5,0,0.9,0,1.4,0.1c0.4,0.1,0.8,0.2,1,0.3
			c0.2,0.1,0.4,0.1,0.5,0.2l-0.2,5.9h-2.7l-0.5-2.6c-0.5,0-1,0.1-1.5,0.4c-0.5,0.3-0.9,0.5-1.3,0.8c-0.3,0.3-0.5,0.5-0.5,0.5v8.1
			l3.1,0.8v2.4H96.4v-2.4l2.4-0.8v-9.9l-2.4-0.8v-2.4l6.4-0.1l0.3,2.1C103,16.1,103.3,15.8,103.8,15.4z"/>
		<path class="st6" d="M119.9,20.2L122,17l-1.3-0.4v-2.4l7.9-0.1v2.6l-2.1,0.4l-2.8,4l3.4,6.3l2.3,0.7v2.4h-5.6l-3.8-7.4h-2v4.2
			l1.7,0.8v2.4h-8.7v-2.4l2.4-0.8V10.1l-2.4-0.6V7.1l7-0.2v13.3H119.9z"/>
	</g>
	<g>
		<path class="st12" d="M142.4,30.5c-0.6-1-1.1-2-1.6-3.1c-0.5-1-1.1-2-1.6-3.1c-0.1,0-0.3,0-0.4,0s-0.3,0-0.4,0h-2.4v6.1h-4.4V12.3
			h7c2,0,3.7,0.5,5.2,1.4c1.5,1,2.2,2.5,2.2,4.6c0,1.1-0.3,2.1-0.8,2.9c-0.5,0.8-1.1,1.4-1.9,1.9c0.7,1.2,1.4,2.5,2.1,3.7
			c0.7,1.2,1.4,2.5,2.1,3.7H142.4z M138.4,15.9h-2.5v5h2.5c0.9,0,1.6-0.2,2.1-0.7c0.5-0.4,0.8-1.1,0.8-1.9c0-0.9-0.3-1.5-0.8-1.9
			C140,16.1,139.3,15.9,138.4,15.9z"/>
		<path class="st12" d="M159,12.3l6.9,17.7l-4.3,0.5l-1.4-3.8h-6.5l-1.4,3.8h-4.4l6.9-18.2H159z M156.8,17.8l-1.9,5.4h4L156.8,17.8z
			"/>
		<path class="st12" d="M175.6,30.5h-7.5V12.3h7.5c2.8,0,5,0.8,6.4,2.5s2.2,3.8,2.2,6.5c0,2.8-0.8,5-2.4,6.7
			C180.2,29.7,178.1,30.5,175.6,30.5z M175.5,15.9h-3V27h2.8c1.2,0,2.3-0.5,3.1-1.4c0.8-0.9,1.2-2.4,1.2-4.3c0-1.6-0.3-2.9-1-3.9
			S176.9,15.9,175.5,15.9z"/>
		<path class="st12" d="M191.6,12.3v18.2h-4.4V12.3H191.6z"/>
		<path class="st12" d="M199.7,12.3v11.1c0,1.3,0.3,2.2,1,2.8c0.7,0.6,1.5,0.9,2.5,0.9c1,0,1.9-0.3,2.5-0.9c0.7-0.6,1-1.6,1-2.8
			V12.3h4.4v11.4c0,2.2-0.7,4-2.2,5.2c-1.4,1.3-3.4,1.9-5.7,1.9c-2.4,0-4.3-0.6-5.7-1.9c-1.4-1.3-2.2-3-2.2-5.2V12.3H199.7z"/>
		<path class="st12" d="M214,17.1c0-1.4,0.6-2.7,1.8-3.6c1.2-1,2.8-1.5,4.8-1.5c0.9,0,1.8,0.1,2.8,0.4c0.9,0.3,1.8,0.6,2.5,1
			l-1.3,3.1c-0.8-0.3-1.5-0.5-2.1-0.7c-0.6-0.2-1.2-0.2-1.8-0.2c-0.6,0-1.2,0.1-1.5,0.4c-0.4,0.3-0.6,0.6-0.6,1.1
			c0,0.5,0.3,0.9,0.9,1.3c0.6,0.3,1.3,0.7,2.1,1.1c1.3,0.7,2.5,1.5,3.7,2.4c1.2,1,1.8,2.2,1.8,3.7c0,1.5-0.6,2.7-1.9,3.7
			s-3,1.5-5.2,1.5c-0.9,0-1.9-0.2-3.1-0.5c-1.2-0.3-2.1-0.7-2.7-1l1.3-3.4c0.5,0.3,1.2,0.6,2,0.8s1.6,0.4,2.3,0.4
			c0.9,0,1.5-0.2,2-0.5c0.4-0.3,0.7-0.7,0.7-1.1c0-0.4-0.3-0.8-0.9-1.2c-0.6-0.4-1.3-0.8-2.1-1.2c-1.2-0.6-2.4-1.4-3.6-2.4
			C214.6,19.9,214,18.6,214,17.1z"/>
	</g>
	<g>
		<path class="st12" d="M282.5,25.5c-3.4,2-9.8,3.3-17.1,3.3s-13.7-1.3-17.1-3.3c-1.7,1-2.7,2.1-2.7,3.3c0,3.7,8.8,6.7,19.7,6.7
			c10.9,0,19.7-3,19.7-6.7C285.2,27.6,284.2,26.5,282.5,25.5"/>
		<path class="st12" d="M282.5,14.7c-3.4,2-9.8,3.3-17.1,3.3c-7.3,0-13.7-1.3-17.1-3.3c-1.7,1-2.6,2.1-2.6,3.3
			c0,3.7,8.8,6.7,19.7,6.7c10.9,0,19.7-3,19.7-6.7C285.2,16.8,284.2,15.6,282.5,14.7"/>
		<path class="st12" d="M285.2,7.2c0,3.7-8.8,6.7-19.7,6.7c-10.9,0-19.7-3-19.7-6.7c0-3.7,8.8-6.7,19.7-6.7
			C276.3,0.5,285.2,3.5,285.2,7.2"/>
	</g>
</g>
</svg>
