<?xml version="1.0" encoding="utf-8"?>
<!-- Generator: Adobe Illustrator 19.2.1, SVG Export Plug-In . SVG Version: 6.00 Build 0)  -->
<svg version="1.1" id="Layer_1" xmlns="http://www.w3.org/2000/svg" xmlns:xlink="http://www.w3.org/1999/xlink" x="0px" y="0px"
	 viewBox="0 0 85 70" style="enable-background:new 0 0 85 70;" xml:space="preserve">
<style type="text/css">
	.st0{fill:none;stroke:#DEE7E8;stroke-miterlimit:10;}
	.st1{fill:#00A6E2;}
	.st2{fill:none;stroke:#B0C3C6;stroke-width:2;stroke-miterlimit:10;}
	.st3{fill:#666666;}
	.st4{fill:none;stroke:#B0C3C6;stroke-width:2;stroke-linejoin:round;stroke-miterlimit:10;}
	.st5{fill:#00C9ED;}
	.st6{fill:#B0C3C6;}
	.st7{fill:#FFFFFF;stroke:#B0C3C6;stroke-width:2;stroke-linejoin:round;stroke-miterlimit:10;}
	.st8{fill:#303030;}
	.st9{opacity:0.4;fill:#F6F6F6;}
	.st10{fill:none;stroke:#999999;stroke-width:2;stroke-miterlimit:10;}
	.st11{fill:#999999;}
	.st12{fill:#FFFFFF;}
	.st13{clip-path:url(#SVGID_2_);fill:#2F3537;}
	.st14{opacity:0.3;fill:none;stroke:#9FB1B3;stroke-width:2;stroke-miterlimit:10;}
	.st15{fill:none;stroke:#FFFFFF;stroke-miterlimit:10;}
	.st16{fill:#FFFFFF;stroke:#FFFFFF;stroke-miterlimit:10;}
	.st17{fill:none;stroke:#303030;stroke-miterlimit:10;}
	.st18{opacity:0.8;fill:#B0C3C6;}
	.st19{opacity:0.7;}
	.st20{opacity:0.8;clip-path:url(#SVGID_4_);fill:#00A6E2;}
	.st21{opacity:0.8;fill:#00A6E2;}
	.st22{opacity:0.8;clip-path:url(#SVGID_6_);fill:#00A6E2;}
	.st23{clip-path:url(#SVGID_8_);}
	.st24{clip-path:url(#SVGID_10_);}
	.st25{fill:none;stroke:#B0C3C6;stroke-width:3;stroke-linejoin:round;stroke-miterlimit:10;}
	.st26{opacity:0.3;fill:none;stroke:#9FB1B3;stroke-width:3;stroke-miterlimit:10;}
	.st27{fill:#FFFFFF;stroke:#B0C3C6;stroke-width:3;stroke-linejoin:round;stroke-miterlimit:10;}
	.st28{clip-path:url(#SVGID_12_);fill:#2F3537;}
	.st29{clip-path:url(#SVGID_14_);}
	.st30{fill:#FFFFFF;stroke:#B0C3C6;stroke-width:2;stroke-miterlimit:10;}
	.st31{fill:#B4CBCE;}
</style>
<g>
	<g>
		<g>
			<line class="st14" x1="49.5" y1="2.1" x2="52.2" y2="11"/>
		</g>
		<g>
			<line class="st14" x1="63.8" y1="1.8" x2="61.5" y2="10.8"/>
		</g>
		<g>
			<line class="st14" x1="76.3" y1="8.8" x2="69.7" y2="15.4"/>
		</g>
		<g>
			<line class="st14" x1="83.4" y1="21.3" x2="74.3" y2="23.6"/>
		</g>
		<g>
			<line class="st14" x1="83.1" y1="35.6" x2="74.1" y2="32.9"/>
		</g>
	</g>
	<g>
		<path class="st15" d="M59.5,23.3v36.8c0,3.5-2.8,6.3-6.3,6.3c-3.5,0-6.3-2.8-6.3-6.3V23.3"/>
		<path class="st15" d="M55.3,23.3v36.8c0,1.4-1,2.1-2.1,2.1c-1,0-2.1-0.6-2.1-2.1V23.3"/>
		<g>
			<path class="st16" d="M8.8,66.4c-3.5,0-6.3-2.8-6.3-6.3V23.3H47v36.8c0,3.5,2.8,6.3,6.3,6.3H8.8z"/>
			<rect x="8.1" y="38.6" class="st6" width="13.9" height="12.5"/>
			<rect x="8.1" y="27.5" class="st1" width="33.4" height="5.6"/>
			<line class="st17" x1="8.1" y1="55.3" x2="22" y2="55.3"/>
			<line class="st17" x1="8.1" y1="59.4" x2="22" y2="59.4"/>
		</g>
		<line class="st17" x1="27.5" y1="38.6" x2="41.4" y2="38.6"/>
		<line class="st17" x1="27.5" y1="42.8" x2="41.4" y2="42.8"/>
		<line class="st17" x1="27.5" y1="46.9" x2="41.4" y2="46.9"/>
		<line class="st17" x1="27.5" y1="51.1" x2="41.4" y2="51.1"/>
		<line class="st17" x1="27.5" y1="55.3" x2="41.4" y2="55.3"/>
		<line class="st17" x1="27.5" y1="59.4" x2="41.4" y2="59.4"/>
	</g>
</g>
</svg>
