<?xml version="1.0" encoding="utf-8"?>
<!-- Generator: Adobe Illustrator 19.2.1, SVG Export Plug-In . SVG Version: 6.00 Build 0)  -->
<svg version="1.1" id="Layer_1" xmlns="http://www.w3.org/2000/svg" xmlns:xlink="http://www.w3.org/1999/xlink" x="0px" y="0px"
	 viewBox="0 0 59.9 73.2" style="enable-background:new 0 0 59.9 73.2;" xml:space="preserve">
<style type="text/css">
	.st0{fill:none;stroke:#FFD62B;stroke-width:3;stroke-miterlimit:10;}
	.st1{fill:#B0C3C6;}
	.st2{fill:none;stroke:#DEE7E8;stroke-miterlimit:10;}
	.st3{fill:#00A6E2;}
	.st4{fill:none;stroke:#B0C3C6;stroke-width:2;stroke-miterlimit:10;}
	.st5{fill:#666666;}
	.st6{fill:none;stroke:#B0C3C6;stroke-width:2;stroke-linejoin:round;stroke-miterlimit:10;}
	.st7{fill:#00C9ED;}
	.st8{fill:#FFFFFF;stroke:#B0C3C6;stroke-width:2;stroke-linejoin:round;stroke-miterlimit:10;}
	.st9{fill:#303030;}
	.st10{opacity:0.4;fill:#F6F6F6;}
	.st11{fill:none;stroke:#999999;stroke-width:2;stroke-miterlimit:10;}
	.st12{fill:#999999;}
	.st13{fill:#FFFFFF;}
	.st14{clip-path:url(#SVGID_3_);fill:#2F3537;}
	.st15{opacity:0.3;fill:none;stroke:#9FB1B3;stroke-width:2;stroke-miterlimit:10;}
	.st16{fill:none;stroke:#FFFFFF;stroke-miterlimit:10;}
	.st17{fill:#FFFFFF;stroke:#FFFFFF;stroke-miterlimit:10;}
	.st18{fill:none;stroke:#303030;stroke-miterlimit:10;}
	.st19{opacity:0.8;fill:#B0C3C6;}
	.st20{opacity:0.7;}
	.st21{opacity:0.8;clip-path:url(#SVGID_5_);fill:#00A6E2;}
	.st22{opacity:0.8;fill:#00A6E2;}
	.st23{opacity:0.8;clip-path:url(#SVGID_7_);fill:#00A6E2;}
	.st24{clip-path:url(#SVGID_9_);}
	.st25{clip-path:url(#SVGID_11_);}
	.st26{fill:none;stroke:#B0C3C6;stroke-width:3;stroke-linejoin:round;stroke-miterlimit:10;}
	.st27{opacity:0.3;fill:none;stroke:#9FB1B3;stroke-width:3;stroke-miterlimit:10;}
	.st28{fill:#FFFFFF;stroke:#B0C3C6;stroke-width:3;stroke-linejoin:round;stroke-miterlimit:10;}
	.st29{clip-path:url(#SVGID_13_);fill:#2F3537;}
	.st30{clip-path:url(#SVGID_14_);fill:#2F3537;}
	.st31{clip-path:url(#SVGID_16_);fill:#B0C3C6;}
	.st32{fill:#33B8E8;}
	.st33{fill:#238DB4;}
	.st34{fill:#E2E7E8;}
	.st35{clip-path:url(#SVGID_20_);}
	.st36{fill:#FFFFFF;stroke:#B0C3C6;stroke-width:2;stroke-miterlimit:10;}
	.st37{fill:#B4CBCE;}
	.st38{fill:#003147;}
	.st39{fill:#FFD62B;}
	.st40{fill:#00B78E;}
	.st41{fill:#FF7824;}
	.st42{fill:#FF3223;}
	.st43{fill:#7955DF;}
	.st44{fill:none;stroke:#FF3223;stroke-width:2;stroke-miterlimit:10;}
	.st45{fill:none;stroke:#00A6E2;stroke-width:2;stroke-miterlimit:10;}
	.st46{clip-path:url(#SVGID_22_);fill:#303030;}
	.st47{fill:#F5C81F;}
	.st48{fill:#F49F90;}
	.st49{fill:#F3EEDE;}
	.st50{fill-rule:evenodd;clip-rule:evenodd;fill:#FFFFFF;}
	.st51{fill:#00131F;}
	.st52{clip-path:url(#SVGID_24_);fill:#303030;}
	.st53{fill:none;stroke:#FFFFFF;stroke-width:2;stroke-miterlimit:10;}
	.st54{clip-path:url(#SVGID_25_);fill:#303030;}
	.st55{clip-path:url(#SVGID_26_);fill:#303030;}
	.st56{opacity:0.3;fill:#B0C3C6;stroke:#B0C3C6;stroke-width:3;stroke-miterlimit:10;}
	.st57{fill:#FBFFFF;stroke:#9FB1B3;stroke-width:2;stroke-miterlimit:10;}
	.st58{fill:none;stroke:#666666;stroke-width:2;stroke-miterlimit:10;}
	.st59{clip-path:url(#SVGID_28_);fill:#2F3537;}
</style>
<g>
	<g>
		<g>
			<g>
				<g>
					<g>
						<g>
							<circle class="st3" cx="29.8" cy="35.2" r="18.1"/>
							<path class="st3" d="M6.9,63.5c-2.2,0-4.1-1.8-4.1-4.1s1.8-4.1,4.1-4.1c2.7,0,4.9-2.2,4.9-4.9c0-2.2,1.8-4.1,4.1-4.1
								s4.1,1.8,4.1,4.1C20,57.6,14.1,63.5,6.9,63.5z"/>
							<path class="st3" d="M53.2,63.5c-7.2,0-13.1-5.9-13.1-13.1c0-2.2,1.8-4.1,4.1-4.1s4.1,1.8,4.1,4.1c0,2.7,2.2,4.9,4.9,4.9
								c2.2,0,4.1,1.8,4.1,4.1S55.5,63.5,53.2,63.5z"/>
							<path class="st3" d="M6.6,52.5c-2.2,0-4.1-1.8-4.1-4.1s1.8-4.1,4.1-4.1c2.7,0,4.9-2.2,4.9-4.9c0-2.2,1.8-4.1,4.1-4.1
								s4.1,1.8,4.1,4.1C19.7,46.6,13.9,52.5,6.6,52.5z"/>
							<path class="st3" d="M53,52.5c-7.2,0-13.1-5.9-13.1-13.1c0-2.2,1.8-4.1,4.1-4.1s4.1,1.8,4.1,4.1c0,2.7,2.2,4.9,4.9,4.9
								c2.2,0,4.1,1.8,4.1,4.1S55.2,52.5,53,52.5z"/>
							<rect x="11.7" y="35.2" class="st3" width="36.2" height="22.3"/>
							<g>
								<path class="st3" d="M20.1,69.1c-2.2,0-4.1-1.8-4.1-4.1V45.5c0-2.2,1.8-4.1,4.1-4.1s4.1,1.8,4.1,4.1v19.6
									C24.2,67.3,22.3,69.1,20.1,69.1z"/>
								<path class="st3" d="M29.8,71.2c-2.2,0-4.1-1.8-4.1-4.1v-23c0-2.2,1.8-4.1,4.1-4.1s4.1,1.8,4.1,4.1v23
									C33.9,69.3,32.1,71.2,29.8,71.2z"/>
								<path class="st3" d="M39.5,69.1c-2.2,0-4.1-1.8-4.1-4.1V45.5c0-2.2,1.8-4.1,4.1-4.1s4.1,1.8,4.1,4.1v19.6
									C43.6,67.3,41.8,69.1,39.5,69.1z"/>
							</g>
						</g>
						<g>
							<circle class="st13" cx="29.8" cy="36.7" r="9"/>
							<g>
								<defs>
									<circle id="SVGID_12_" cx="29.8" cy="36.7" r="9"/>
								</defs>
								<use xlink:href="#SVGID_12_"  style="overflow:visible;fill:#FFFFFF;"/>
								<clipPath id="SVGID_3_">
									<use xlink:href="#SVGID_12_"  style="overflow:visible;"/>
								</clipPath>
								<circle class="st14" cx="33.6" cy="36.4" r="6.3"/>
							</g>
						</g>
					</g>
				</g>
			</g>
		</g>
	</g>
	<g>
		<g>
			<line class="st15" x1="1.3" y1="19.2" x2="11.2" y2="24.6"/>
		</g>
		<g>
			<line class="st15" x1="13.2" y1="6.7" x2="19.1" y2="16.4"/>
		</g>
		<g>
			<line class="st15" x1="29.9" y1="2.1" x2="29.9" y2="13.4"/>
		</g>
		<g>
			<line class="st15" x1="46.6" y1="6.7" x2="40.8" y2="16.4"/>
		</g>
		<g>
			<line class="st15" x1="58.6" y1="19.2" x2="48.6" y2="24.6"/>
		</g>
	</g>
</g>
</svg>
