<?xml version="1.0" encoding="utf-8"?>
<!-- Generator: Adobe Illustrator 19.2.1, SVG Export Plug-In . SVG Version: 6.00 Build 0)  -->
<svg version="1.1" id="Layer_1" xmlns="http://www.w3.org/2000/svg" xmlns:xlink="http://www.w3.org/1999/xlink" x="0px" y="0px"
	 viewBox="0 0 160 160" style="enable-background:new 0 0 160 160;" xml:space="preserve">
<style type="text/css">
	.st0{fill:none;stroke:#FFD62B;stroke-width:3;stroke-miterlimit:10;}
	.st1{fill:#B0C3C6;}
	.st2{fill:none;stroke:#DEE7E8;stroke-miterlimit:10;}
	.st3{fill:#00A6E2;}
	.st4{fill:none;stroke:#B0C3C6;stroke-width:2;stroke-miterlimit:10;}
	.st5{fill:#666666;}
	.st6{fill:none;stroke:#B0C3C6;stroke-width:2;stroke-linejoin:round;stroke-miterlimit:10;}
	.st7{fill:#00C9ED;}
	.st8{fill:#FFFFFF;stroke:#B0C3C6;stroke-width:2;stroke-linejoin:round;stroke-miterlimit:10;}
	.st9{fill:#303030;}
	.st10{opacity:0.4;fill:#F6F6F6;}
	.st11{fill:none;stroke:#999999;stroke-width:2;stroke-miterlimit:10;}
	.st12{fill:#999999;}
	.st13{fill:#FFFFFF;}
	.st14{clip-path:url(#SVGID_2_);fill:#2F3537;}
	.st15{opacity:0.3;fill:none;stroke:#9FB1B3;stroke-width:2;stroke-miterlimit:10;}
	.st16{fill:none;stroke:#FFFFFF;stroke-miterlimit:10;}
	.st17{fill:#FFFFFF;stroke:#FFFFFF;stroke-miterlimit:10;}
	.st18{fill:none;stroke:#303030;stroke-miterlimit:10;}
	.st19{opacity:0.8;fill:#B0C3C6;}
	.st20{opacity:0.7;}
	.st21{opacity:0.8;clip-path:url(#SVGID_4_);fill:#00A6E2;}
	.st22{opacity:0.8;fill:#00A6E2;}
	.st23{opacity:0.8;clip-path:url(#SVGID_6_);fill:#00A6E2;}
	.st24{clip-path:url(#SVGID_8_);}
	.st25{clip-path:url(#SVGID_10_);}
	.st26{fill:none;stroke:#B0C3C6;stroke-width:3;stroke-linejoin:round;stroke-miterlimit:10;}
	.st27{opacity:0.3;fill:none;stroke:#9FB1B3;stroke-width:3;stroke-miterlimit:10;}
	.st28{fill:#FFFFFF;stroke:#B0C3C6;stroke-width:3;stroke-linejoin:round;stroke-miterlimit:10;}
	.st29{clip-path:url(#SVGID_12_);fill:#2F3537;}
	.st30{clip-path:url(#SVGID_14_);fill:#B0C3C6;}
	.st31{fill:#33B8E8;}
	.st32{fill:#238DB4;}
	.st33{fill:#E2E7E8;}
	.st34{clip-path:url(#SVGID_16_);}
	.st35{fill:#FFFFFF;stroke:#B0C3C6;stroke-width:2;stroke-miterlimit:10;}
	.st36{fill:#B4CBCE;}
	.st37{fill:#003147;}
	.st38{fill:#FFD62B;}
	.st39{fill:#00B78E;}
	.st40{fill:#FF7824;}
	.st41{fill:#FF3223;}
	.st42{fill:#7955DF;}
	.st43{fill:none;stroke:#FF3223;stroke-width:2;stroke-miterlimit:10;}
	.st44{fill:none;stroke:#00A6E2;stroke-width:2;stroke-miterlimit:10;}
	.st45{clip-path:url(#SVGID_18_);fill:#303030;}
	.st46{fill:#F5C81F;}
	.st47{fill:#F49F90;}
	.st48{fill:#F3EEDE;}
	.st49{fill-rule:evenodd;clip-rule:evenodd;fill:#FFFFFF;}
	.st50{fill:#00131F;}
	.st51{clip-path:url(#SVGID_20_);fill:#303030;}
	.st52{fill:none;stroke:#FFFFFF;stroke-width:2;stroke-miterlimit:10;}
	.st53{clip-path:url(#SVGID_22_);fill:#303030;}
	.st54{clip-path:url(#SVGID_24_);fill:#303030;}
</style>
<g>
	<g>
		<g>
			<g>
				<g>
					<g>
						<g>
							<path class="st3" d="M125.5,113.6c-4.4,0-8.2-3-9.3-7.1c2.8,1,5.7,1.6,8.8,1.6c4.4,0,7.9-3.5,7.9-7.9c0-4.4-3.5-7.9-7.9-7.9
								c-5.3,0-9.9-4.3-9.9-9.6c0-0.7,0-2.1,0-2.1v-6.1c0-19.4-15.7-35.2-35.2-35.2c-19.4,0-35.2,15.7-35.2,35.2v6.1
								c0,0,0,1.3,0,2.1c0,5.3-4.6,9.6-9.9,9.6c-4.4,0-7.9,3.5-7.9,7.9c0,4.4,3.5,7.9,7.9,7.9c3.5,0,6.8-0.7,9.8-2
								c-1,4.3-4.8,7.5-9.4,7.5c-4.4,0-7.9,3.5-7.9,7.9c0,4.4,3.5,7.9,7.9,7.9c6.9,0,13.2-2.8,17.8-7.3v10.4c0,4.4,3.5,7.9,7.9,7.9
								c4.4,0,7.9-3.5,7.9-7.9v-14.8h3.1v18.7c0,4.4,3.5,7.9,7.9,7.9c4.4,0,7.9-3.5,7.9-7.9v-18.7H91v14.8c0,4.4,3.5,7.9,7.9,7.9
								c4.4,0,7.9-3.5,7.9-7.9v-11.4c4.7,5.1,11.3,8.2,18.7,8.2c4.4,0,7.9-3.5,7.9-7.9C133.5,117.1,129.9,113.6,125.5,113.6z"/>
							<g>
								<circle class="st13" cx="80" cy="77" r="17.5"/>
								<g>
									<defs>
										<circle id="SVGID_17_" cx="80" cy="77" r="17.5"/>
									</defs>
									<use xlink:href="#SVGID_17_"  style="overflow:visible;fill:#FFFFFF;"/>
									<clipPath id="SVGID_2_">
										<use xlink:href="#SVGID_17_"  style="overflow:visible;"/>
									</clipPath>
									<path style="clip-path:url(#SVGID_2_);fill:#303030;" d="M85.3,94.6c-6.7,0-12.2-5.5-12.2-12.2c0-6.7,5.5-12.2,12.2-12.2
										c6.7,0,12.2,5.5,12.2,12.2C97.5,89.1,92.1,94.6,85.3,94.6z"/>
								</g>
							</g>
						</g>
					</g>
				</g>
			</g>
			<g>
				<g>
					<ellipse class="st46" cx="79.7" cy="53.1" rx="41.8" ry="11.3"/>
					<path class="st38" d="M118.7,51.4H40.9c-3.2,0-1.7-2.6-1.7-5.7v-1.2c0,0,5.7-36.3,40.6-36.3s40.6,36.3,40.6,36.3v1.2
						C120.4,48.9,121.8,51.4,118.7,51.4z"/>
				</g>
			</g>
			<rect x="73.3" y="7" class="st46" width="12.9" height="28.8"/>
			<polygon class="st46" points="105.8,28.8 92.9,28.8 92.9,9 105.8,13 			"/>
			<polygon class="st46" points="66.9,28.8 54,28.8 54,13 66.9,9 			"/>
			<rect x="73.3" y="5" class="st38" width="12.9" height="28.8"/>
			<polygon class="st38" points="105.8,26.8 92.9,26.8 92.9,7 105.8,11 			"/>
			<polygon class="st38" points="66.9,26.8 54,26.8 54,11 66.9,7 			"/>
		</g>
		<g>
			<path class="st1" d="M39.1,126.4l-10.8-14.5c1.2-2,1.1-4.9-0.4-6.9c-1.5-2-4-2.8-6.4-2.2l3.2,4.2c0.4,0.5,0.3,1.2-0.2,1.6
				l-1.8,1.4c-0.5,0.4-1.2,0.3-1.6-0.2l-3.2-4.2c-1.4,2.1-1.4,4.7,0.2,6.7c1.5,2,4.3,2.9,6.6,2.3l10.8,14.5c-1.2,2-1.1,4.9,0.4,6.9
				c1.5,2,4,2.8,6.4,2.2l-3.2-4.2c-0.4-0.5-0.3-1.2,0.2-1.6l1.9-1.3c0.5-0.4,1.2-0.3,1.6,0.3l3.2,4.2c1.4-2.1,1.4-4.7-0.2-6.7
				C44.2,126.7,41.4,125.8,39.1,126.4z"/>
			<g>
				<polygon class="st38" points="137.6,77.8 131.9,103.2 122,100.9 127.6,75.7 134.9,67.3 				"/>
				<path class="st47" d="M122,100.9l-1.2,5.5c-0.1,0.6,0.2,1.2,0.9,1.4l7.7,1.7c0.6,0.1,1.2-0.2,1.4-0.9l1.2-5.5L122,100.9z"/>
				<polygon class="st46" points="127.7,75.6 130.2,77.8 124.7,101.5 122,100.9 				"/>
				<polyline class="st46" points="129.3,102.6 134.7,78.9 137.7,77.8 132.8,101.5 				"/>
				<polygon class="st48" points="130.2,77.8 132.9,76.1 134.6,78.8 137.7,77.8 134.9,67.3 127.7,75.6 				"/>
			</g>
			<ellipse transform="matrix(0.849 -0.5284 0.5284 0.849 -60.8578 34.8795)" class="st3" cx="30.6" cy="123.9" rx="3.4" ry="6"/>
			<ellipse transform="matrix(0.2148 -0.9766 0.9766 0.2148 5.0231 208.0708)" class="st3" cx="131.9" cy="100.9" rx="6" ry="3.4"/>
		</g>
		<polygon class="st9" points="131.8,71.2 136.3,71.9 135.2,67.3 		"/>
	</g>
</g>
</svg>
