<?xml version="1.0" encoding="utf-8"?>
<!-- Generator: Adobe Illustrator 19.2.1, SVG Export Plug-In . SVG Version: 6.00 Build 0)  -->
<svg version="1.1" id="Layer_1" xmlns="http://www.w3.org/2000/svg" xmlns:xlink="http://www.w3.org/1999/xlink" x="0px" y="0px"
	 viewBox="0 0 160 160" style="enable-background:new 0 0 160 160;" xml:space="preserve">
<style type="text/css">
	.st0{fill:none;stroke:#FFD62B;stroke-width:3;stroke-miterlimit:10;}
	.st1{fill:#B0C3C6;}
	.st2{fill:none;stroke:#DEE7E8;stroke-miterlimit:10;}
	.st3{fill:#00A6E2;}
	.st4{fill:none;stroke:#B0C3C6;stroke-width:2;stroke-miterlimit:10;}
	.st5{fill:#666666;}
	.st6{fill:none;stroke:#B0C3C6;stroke-width:2;stroke-linejoin:round;stroke-miterlimit:10;}
	.st7{fill:#00C9ED;}
	.st8{fill:#FFFFFF;stroke:#B0C3C6;stroke-width:2;stroke-linejoin:round;stroke-miterlimit:10;}
	.st9{fill:#303030;}
	.st10{opacity:0.4;fill:#F6F6F6;}
	.st11{fill:none;stroke:#999999;stroke-width:2;stroke-miterlimit:10;}
	.st12{fill:#999999;}
	.st13{fill:#FFFFFF;}
	.st14{clip-path:url(#SVGID_2_);fill:#2F3537;}
	.st15{opacity:0.3;fill:none;stroke:#9FB1B3;stroke-width:2;stroke-miterlimit:10;}
	.st16{fill:none;stroke:#FFFFFF;stroke-miterlimit:10;}
	.st17{fill:#FFFFFF;stroke:#FFFFFF;stroke-miterlimit:10;}
	.st18{fill:none;stroke:#303030;stroke-miterlimit:10;}
	.st19{opacity:0.8;fill:#B0C3C6;}
	.st20{opacity:0.7;}
	.st21{opacity:0.8;clip-path:url(#SVGID_4_);fill:#00A6E2;}
	.st22{opacity:0.8;fill:#00A6E2;}
	.st23{opacity:0.8;clip-path:url(#SVGID_6_);fill:#00A6E2;}
	.st24{clip-path:url(#SVGID_8_);}
	.st25{clip-path:url(#SVGID_10_);}
	.st26{fill:none;stroke:#B0C3C6;stroke-width:3;stroke-linejoin:round;stroke-miterlimit:10;}
	.st27{opacity:0.3;fill:none;stroke:#9FB1B3;stroke-width:3;stroke-miterlimit:10;}
	.st28{fill:#FFFFFF;stroke:#B0C3C6;stroke-width:3;stroke-linejoin:round;stroke-miterlimit:10;}
	.st29{clip-path:url(#SVGID_12_);fill:#2F3537;}
	.st30{clip-path:url(#SVGID_14_);fill:#B0C3C6;}
	.st31{fill:#33B8E8;}
	.st32{fill:#238DB4;}
	.st33{fill:#E2E7E8;}
	.st34{clip-path:url(#SVGID_16_);}
	.st35{fill:#FFFFFF;stroke:#B0C3C6;stroke-width:2;stroke-miterlimit:10;}
	.st36{fill:#B4CBCE;}
	.st37{fill:#003147;}
	.st38{fill:#FFD62B;}
	.st39{fill:#00B78E;}
	.st40{fill:#FF7824;}
	.st41{fill:#FF3223;}
	.st42{fill:#7955DF;}
	.st43{fill:none;stroke:#FF3223;stroke-width:2;stroke-miterlimit:10;}
	.st44{fill:none;stroke:#00A6E2;stroke-width:2;stroke-miterlimit:10;}
	.st45{clip-path:url(#SVGID_18_);fill:#303030;}
	.st46{fill:#F5C81F;}
	.st47{fill:#F49F90;}
	.st48{fill:#F3EEDE;}
	.st49{fill-rule:evenodd;clip-rule:evenodd;fill:#FFFFFF;}
	.st50{fill:#00131F;}
	.st51{clip-path:url(#SVGID_20_);fill:#303030;}
	.st52{fill:none;stroke:#FFFFFF;stroke-width:2;stroke-miterlimit:10;}
	.st53{clip-path:url(#SVGID_22_);fill:#303030;}
	.st54{clip-path:url(#SVGID_24_);fill:#303030;}
</style>
<g>
	<path class="st3" d="M126.2,113.6c-4.4,0-8.2-3-9.3-7.1c2.8,1,5.7,1.6,8.8,1.6c4.4,0,7.9-3.5,7.9-7.9c0-4.4-3.5-7.9-7.9-7.9
		c-5.3,0-9.9-4.3-9.9-9.6c0-0.7,0-2.1,0-2.1v-6.1c0-19.4-15.7-35.2-35.2-35.2c-19.4,0-35.2,15.7-35.2,35.2v6.1c0,0,0,1.3,0,2.1
		c0,5.3-4.6,9.6-9.9,9.6c-4.4,0-7.9,3.5-7.9,7.9c0,4.4,3.5,7.9,7.9,7.9c3.5,0,6.8-0.7,9.8-2c-1,4.3-4.8,7.5-9.4,7.5
		c-4.4,0-7.9,3.5-7.9,7.9c0,4.4,3.5,7.9,7.9,7.9c6.9,0,13.2-2.8,17.8-7.3v10.4c0,4.4,3.5,7.9,7.9,7.9c4.4,0,7.9-3.5,7.9-7.9v-14.8
		h3.1v18.7c0,4.4,3.5,7.9,7.9,7.9c4.4,0,7.9-3.5,7.9-7.9v-18.7h3.1v14.8c0,4.4,3.5,7.9,7.9,7.9c4.4,0,7.9-3.5,7.9-7.9v-11.4
		c4.7,5.1,11.3,8.2,18.7,8.2c4.4,0,7.9-3.5,7.9-7.9C134.1,117.1,130.5,113.6,126.2,113.6z"/>
	<circle class="st13" cx="80.7" cy="77.3" r="17.5"/>
	<path class="st50" d="M98,80.2c-1.1-5.5-6.1-9.7-11.9-9.7c-6.7,0-12.2,5.5-12.2,12.2c0,5.9,4.2,10.8,9.7,11.9
		C90.9,93.4,96.7,87.6,98,80.2z"/>
	<path class="st50" d="M106.9,48.5c0.7-0.4,0.9-1.2,0.6-2.6l4.5-8.8l-0.8-4.4c-1.3-6.9-32.4-13.5-39.3-12.2
		C65,21.6,36,39.7,37.3,46.6l0.9,5l9.9,4.7c0.1,0.3,0.1,0.6,0.2,0.9c-0.6,1.5-0.8,3-0.5,4.5c1.5,8.1,15.9,8.4,32.4,5.4
		c16.5-3,28.8-8.2,27.3-16.4C107.5,49.9,107.2,49.2,106.9,48.5z"/>
	<path class="st37" d="M108.3,42.2c-1.1-6-16.4-8.1-34-4.8c-17.7,3.3-31.1,10.9-30,16.8l2.2,6.4c0.4,1.2,0.8,1.4,1.8,1.3
		c-0.1-0.3-0.2-0.6-0.3-1.1c32.9-17.6,59-10.3,59-10.3c0.1,0.4,0.1,0.7,0.1,1c0.9,0.1,1.1-0.2,1.4-2.3L108.3,42.2z"/>
	<path class="st38" d="M81.1,30.7l0.3,1.6l1.1,5.9c0.7,3.8-5.6,8.2-5.6,8.2s-7.5-1.8-8.2-5.6l-1.1-5.9l-0.3-1.6l6.6-2.9L81.1,30.7z"
		/>
</g>
</svg>
