<?xml version="1.0" encoding="utf-8"?>
<!-- Generator: Adobe Illustrator 19.2.1, SVG Export Plug-In . SVG Version: 6.00 Build 0)  -->
<svg version="1.1" id="Layer_1" xmlns="http://www.w3.org/2000/svg" xmlns:xlink="http://www.w3.org/1999/xlink" x="0px" y="0px"
	 viewBox="0 0 100 72" style="enable-background:new 0 0 100 72;" xml:space="preserve">
<style type="text/css">
	.st0{fill:#B0C3C6;}
	.st1{fill:none;stroke:#DEE7E8;stroke-miterlimit:10;}
	.st2{fill:#00A6E2;}
	.st3{fill:none;stroke:#B0C3C6;stroke-width:2;stroke-miterlimit:10;}
	.st4{fill:#666666;}
	.st5{fill:none;stroke:#B0C3C6;stroke-width:2;stroke-linejoin:round;stroke-miterlimit:10;}
	.st6{fill:#00C9ED;}
	.st7{fill:#FFFFFF;stroke:#B0C3C6;stroke-width:2;stroke-linejoin:round;stroke-miterlimit:10;}
	.st8{fill:#303030;}
	.st9{opacity:0.4;fill:#F6F6F6;}
	.st10{fill:none;stroke:#999999;stroke-width:2;stroke-miterlimit:10;}
	.st11{fill:#999999;}
	.st12{fill:#FFFFFF;}
	.st13{clip-path:url(#SVGID_2_);fill:#2F3537;}
	.st14{opacity:0.3;fill:none;stroke:#9FB1B3;stroke-width:2;stroke-miterlimit:10;}
	.st15{fill:none;stroke:#FFFFFF;stroke-miterlimit:10;}
	.st16{fill:#FFFFFF;stroke:#FFFFFF;stroke-miterlimit:10;}
	.st17{fill:none;stroke:#303030;stroke-miterlimit:10;}
	.st18{opacity:0.8;fill:#B0C3C6;}
	.st19{opacity:0.7;}
	.st20{opacity:0.8;clip-path:url(#SVGID_4_);fill:#00A6E2;}
	.st21{opacity:0.8;fill:#00A6E2;}
	.st22{opacity:0.8;clip-path:url(#SVGID_6_);fill:#00A6E2;}
	.st23{clip-path:url(#SVGID_8_);}
	.st24{clip-path:url(#SVGID_10_);}
	.st25{fill:none;stroke:#B0C3C6;stroke-width:3;stroke-linejoin:round;stroke-miterlimit:10;}
	.st26{opacity:0.3;fill:none;stroke:#9FB1B3;stroke-width:3;stroke-miterlimit:10;}
	.st27{fill:#FFFFFF;stroke:#B0C3C6;stroke-width:3;stroke-linejoin:round;stroke-miterlimit:10;}
	.st28{clip-path:url(#SVGID_12_);fill:#2F3537;}
	.st29{clip-path:url(#SVGID_14_);fill:#B0C3C6;}
	.st30{fill:#33B8E8;}
	.st31{fill:#238DB4;}
	.st32{fill:#E2E7E8;}
	.st33{clip-path:url(#SVGID_16_);}
	.st34{fill:#FFFFFF;stroke:#B0C3C6;stroke-width:2;stroke-miterlimit:10;}
	.st35{fill:#B4CBCE;}
	.st36{fill:#003147;}
	.st37{fill:#FFD62B;}
	.st38{fill:#00B78E;}
	.st39{fill:#FF7824;}
	.st40{fill:#FF3223;}
	.st41{fill:#7955DF;}
	.st42{fill:none;stroke:#FF3223;stroke-width:2;stroke-miterlimit:10;}
	.st43{fill:none;stroke:#00A6E2;stroke-width:2;stroke-miterlimit:10;}
	.st44{clip-path:url(#SVGID_18_);fill:#303030;}
	.st45{fill:#F5C81F;}
	.st46{fill:#F49F90;}
	.st47{fill:#F3EEDE;}
</style>
<g>
	<g>
		<rect x="18.5" y="32" class="st0" width="18" height="6.6"/>
		<rect x="18.5" y="32" transform="matrix(4.486793e-11 1 -1 4.486793e-11 62.7807 7.813)" class="st0" width="18" height="6.6"/>
	</g>
	<g>
		<polygon class="st3" points="67.8,30.7 67.8,61 79.6,61 79.7,30.7 73.6,19.3 		"/>
		<path class="st3" d="M79.6,61l0,6.6c0,0.7-0.6,1.3-1.3,1.3h-9.2c-0.7,0-1.3-0.6-1.3-1.3V61"/>
		<polyline class="st3" points="76.4,61 76.2,32.5 79.6,30.6 		"/>
		<polyline class="st3" points="67.7,30.6 70.9,32.6 70.9,61 		"/>
		<polyline class="st3" points="70.9,32.5 73.6,29.9 76.2,32.5 		"/>
	</g>
	<g>
		<g>
			<g>
				<g>
					<path class="st34" d="M53.3,28.8v24.6c3,1.2,5.1,4.4,5.1,7.8c0,3.4-2.1,6.3-5.1,7.5l0-7.2c0-0.9-0.7-1.5-1.6-1.5h-3.1
						c-0.9,0-1.5,0.7-1.5,1.5v7.2c-3.2-1.1-5.3-4-5.3-7.5c0-3.4,2.3-6.6,5.3-7.9V28.8c-3-1.2-5.1-4.4-5.1-7.8c0-3.4,2.1-6.3,5.1-7.5
						l0,7.2c0,0.9,0.6,1.6,1.5,1.6l3.1-0.1c0.9,0,1.5-0.7,1.5-1.6l0-7.1c3.2,1.1,5.3,4,5.3,7.5C58.6,24.3,56.3,27.6,53.3,28.8z"/>
				</g>
			</g>
		</g>
	</g>
</g>
</svg>
