<?xml version="1.0" encoding="utf-8"?>
<!-- Generator: Adobe Illustrator 19.2.1, SVG Export Plug-In . SVG Version: 6.00 Build 0)  -->
<svg version="1.1" id="Layer_1" xmlns="http://www.w3.org/2000/svg" xmlns:xlink="http://www.w3.org/1999/xlink" x="0px" y="0px"
	 viewBox="0 0 100 72" style="enable-background:new 0 0 100 72;" xml:space="preserve">
<style type="text/css">
	.st0{fill:none;stroke:#FFD62B;stroke-width:3;stroke-miterlimit:10;}
	.st1{fill:#B0C3C6;}
	.st2{fill:none;stroke:#DEE7E8;stroke-miterlimit:10;}
	.st3{fill:#00A6E2;}
	.st4{fill:none;stroke:#B0C3C6;stroke-width:2;stroke-miterlimit:10;}
	.st5{fill:#666666;}
	.st6{fill:none;stroke:#B0C3C6;stroke-width:2;stroke-linejoin:round;stroke-miterlimit:10;}
	.st7{fill:#00C9ED;}
	.st8{fill:#FFFFFF;stroke:#B0C3C6;stroke-width:2;stroke-linejoin:round;stroke-miterlimit:10;}
	.st9{fill:#303030;}
	.st10{opacity:0.4;fill:#F6F6F6;}
	.st11{fill:none;stroke:#999999;stroke-width:2;stroke-miterlimit:10;}
	.st12{fill:#999999;}
	.st13{fill:#FFFFFF;}
	.st14{clip-path:url(#SVGID_2_);fill:#2F3537;}
	.st15{opacity:0.3;fill:none;stroke:#9FB1B3;stroke-width:2;stroke-miterlimit:10;}
	.st16{fill:none;stroke:#FFFFFF;stroke-miterlimit:10;}
	.st17{fill:#FFFFFF;stroke:#FFFFFF;stroke-miterlimit:10;}
	.st18{fill:none;stroke:#303030;stroke-miterlimit:10;}
	.st19{opacity:0.8;fill:#B0C3C6;}
	.st20{opacity:0.7;}
	.st21{opacity:0.8;clip-path:url(#SVGID_4_);fill:#00A6E2;}
	.st22{opacity:0.8;fill:#00A6E2;}
	.st23{opacity:0.8;clip-path:url(#SVGID_6_);fill:#00A6E2;}
	.st24{clip-path:url(#SVGID_8_);}
	.st25{clip-path:url(#SVGID_10_);}
	.st26{fill:none;stroke:#B0C3C6;stroke-width:3;stroke-linejoin:round;stroke-miterlimit:10;}
	.st27{opacity:0.3;fill:none;stroke:#9FB1B3;stroke-width:3;stroke-miterlimit:10;}
	.st28{fill:#FFFFFF;stroke:#B0C3C6;stroke-width:3;stroke-linejoin:round;stroke-miterlimit:10;}
	.st29{clip-path:url(#SVGID_12_);fill:#2F3537;}
	.st30{clip-path:url(#SVGID_14_);fill:#B0C3C6;}
	.st31{fill:#33B8E8;}
	.st32{fill:#238DB4;}
	.st33{fill:#E2E7E8;}
	.st34{clip-path:url(#SVGID_16_);}
	.st35{fill:#FFFFFF;stroke:#B0C3C6;stroke-width:2;stroke-miterlimit:10;}
	.st36{fill:#B4CBCE;}
	.st37{fill:#003147;}
	.st38{fill:#FFD62B;}
	.st39{fill:#00B78E;}
	.st40{fill:#FF7824;}
	.st41{fill:#FF3223;}
	.st42{fill:#7955DF;}
	.st43{fill:none;stroke:#FF3223;stroke-width:2;stroke-miterlimit:10;}
	.st44{fill:none;stroke:#00A6E2;stroke-width:2;stroke-miterlimit:10;}
	.st45{clip-path:url(#SVGID_18_);fill:#303030;}
	.st46{fill:#F5C81F;}
	.st47{fill:#F49F90;}
	.st48{fill:#F3EEDE;}
	.st49{fill-rule:evenodd;clip-rule:evenodd;fill:#FFFFFF;}
	.st50{fill:#00131F;}
	.st51{clip-path:url(#SVGID_20_);fill:#303030;}
	.st52{fill:none;stroke:#FFFFFF;stroke-width:2;stroke-miterlimit:10;}
	.st53{clip-path:url(#SVGID_22_);fill:#303030;}
	.st54{clip-path:url(#SVGID_24_);fill:#303030;}
	.st55{opacity:0.3;fill:#B0C3C6;stroke:#B0C3C6;stroke-width:3;stroke-miterlimit:10;}
	.st56{fill:#FBFFFF;stroke:#9FB1B3;stroke-width:2;stroke-miterlimit:10;}
</style>
<g>
	<polygon class="st1" points="41.9,16.4 24,16.4 31.8,24.2 24,32 41.9,32 34.1,24.2 	"/>
	<polygon class="st1" points="18.9,44.1 2.1,44.1 2.1,34 10.5,27.3 18.9,34 	"/>
	<g>
		<path class="st35" d="M46.7,61.8c-4.6,0-10.8,0-11.6,0c-4.5,0-8.1-3.6-8.1-8.1c0-3.3,1.9-6.1,4.7-7.4c-0.1-0.7-0.1-1.4-0.1-2.1
			c0-9.7,7.8-17.5,17.5-17.5c7.1,0,13.1,4.2,15.9,10.2c6.3,0.6,11.3,5.9,11.3,12.4c0,6.9-5.6,12.4-12.4,12.4c-0.8,0-4.5,0-8.2,0"/>
		<g>
			<path class="st4" d="M44.8,52.7l5.8-5.8c0.5-0.5,0.7-0.5,1.2,0l5.8,5.8"/>
		</g>
		<polyline class="st6" points="64.8,67.8 51.1,67.8 51.1,46 		"/>
	</g>
</g>
<g>
	<path class="st1" d="M89,53.8l3.4-3.4c-2-1.4-4.8-1.4-6.8,0L89,53.8z"/>
	<path class="st1" d="M93.9,58.7c1.4-2,1.4-4.8,0-6.8l-3.4,3.4L93.9,58.7z"/>
	<path class="st1" d="M89,56.9l-3.4,3.4c2,1.4,4.8,1.4,6.8,0L89,56.9z"/>
	<path class="st1" d="M84.1,51.9c-1.4,2-1.4,4.8,0,6.8l3.4-3.4L84.1,51.9z"/>
</g>
</svg>
