<?xml version="1.0" encoding="utf-8"?>
<!-- Generator: Adobe Illustrator 19.2.1, SVG Export Plug-In . SVG Version: 6.00 Build 0)  -->
<svg version="1.1" id="Layer_1" xmlns="http://www.w3.org/2000/svg" xmlns:xlink="http://www.w3.org/1999/xlink" x="0px" y="0px"
	 viewBox="0 0 42 42" style="enable-background:new 0 0 42 42;" xml:space="preserve">
<style type="text/css">
	.st0{fill:none;stroke:#DEE7E8;stroke-miterlimit:10;}
	.st1{fill:#00A6E2;}
	.st2{fill:none;stroke:#B0C3C6;stroke-width:2;stroke-miterlimit:10;}
	.st3{fill:#666666;}
	.st4{fill:none;stroke:#B0C3C6;stroke-width:2;stroke-linejoin:round;stroke-miterlimit:10;}
	.st5{fill:#00C9ED;}
	.st6{fill:#B0C3C6;}
	.st7{fill:#FFFFFF;stroke:#B0C3C6;stroke-width:2;stroke-linejoin:round;stroke-miterlimit:10;}
	.st8{fill:#303030;}
	.st9{opacity:0.4;fill:#F6F6F6;}
	.st10{fill:none;stroke:#999999;stroke-width:2;stroke-miterlimit:10;}
	.st11{fill:#999999;}
	.st12{fill:#FFFFFF;}
	.st13{clip-path:url(#SVGID_2_);fill:#2F3537;}
	.st14{opacity:0.3;fill:none;stroke:#9FB1B3;stroke-width:2;stroke-miterlimit:10;}
	.st15{fill:none;stroke:#FFFFFF;stroke-miterlimit:10;}
	.st16{fill:#FFFFFF;stroke:#FFFFFF;stroke-miterlimit:10;}
	.st17{fill:none;stroke:#303030;stroke-miterlimit:10;}
	.st18{opacity:0.8;fill:#B0C3C6;}
	.st19{opacity:0.7;}
	.st20{opacity:0.8;clip-path:url(#SVGID_4_);fill:#00A6E2;}
	.st21{opacity:0.8;fill:#00A6E2;}
	.st22{opacity:0.8;clip-path:url(#SVGID_6_);fill:#00A6E2;}
	.st23{clip-path:url(#SVGID_8_);}
	.st24{clip-path:url(#SVGID_10_);}
	.st25{fill:none;stroke:#B0C3C6;stroke-width:3;stroke-linejoin:round;stroke-miterlimit:10;}
	.st26{opacity:0.3;fill:none;stroke:#9FB1B3;stroke-width:3;stroke-miterlimit:10;}
	.st27{fill:#FFFFFF;stroke:#B0C3C6;stroke-width:3;stroke-linejoin:round;stroke-miterlimit:10;}
	.st28{clip-path:url(#SVGID_12_);fill:#2F3537;}
	.st29{clip-path:url(#SVGID_14_);}
	.st30{fill:#FFFFFF;stroke:#B0C3C6;stroke-width:2;stroke-miterlimit:10;}
	.st31{fill:#B4CBCE;}
</style>
<g>
	<path class="st2" d="M33.7,33.7c-7,7-18.4,7-25.5,0s-7-18.4,0-25.5s18.4-7,25.5,0S40.8,26.7,33.7,33.7z M26.4,26.4
		c3-3,3-7.8,0-10.8s-7.8-3-10.8,0s-3,7.8,0,10.8S23.4,29.4,26.4,26.4z"/>
	<g>
		<path class="st7" d="M7.3,34.6c-1.1-1.1-2-2.3-2.8-3.6c-0.3-0.4,9.1-5.5,9.1-5.5c0.3,0.6,0.8,1.1,1.2,1.6c0.5,0.5,1,0.9,1.6,1.3
			c0,0-5,9.4-5.4,9.2C9.7,36.7,8.4,35.7,7.3,34.6L7.3,34.6z"/>
		<path class="st7" d="M34.7,7.4c1.1,1.1,2,2.3,2.8,3.6c0.3,0.4-9.1,5.5-9.1,5.5c-0.3-0.6-0.8-1.1-1.2-1.6c-0.5-0.5-1-0.9-1.6-1.3
			c0,0,5-9.4,5.4-9.2C32.3,5.3,33.6,6.3,34.7,7.4L34.7,7.4z"/>
	</g>
	<g>
		<path class="st7" d="M7.4,7.3c1.1-1.1,2.3-2,3.6-2.8c0.4-0.3,5.5,9.1,5.5,9.1c-0.6,0.3-1.1,0.8-1.6,1.2c-0.5,0.5-0.9,1-1.3,1.6
			c0,0-9.4-5-9.2-5.4C5.3,9.7,6.3,8.4,7.4,7.3L7.4,7.3z"/>
		<path class="st7" d="M34.6,34.7c-1.1,1.1-2.3,2-3.6,2.8c-0.4,0.3-5.5-9.1-5.5-9.1c0.6-0.3,1.1-0.8,1.6-1.2c0.5-0.5,0.9-1,1.3-1.6
			c0,0,9.4,5,9.2,5.4C36.7,32.3,35.7,33.6,34.6,34.7L34.6,34.7z"/>
	</g>
</g>
</svg>
