<?xml version="1.0" encoding="utf-8"?>
<!-- Generator: Adobe Illustrator 19.2.1, SVG Export Plug-In . SVG Version: 6.00 Build 0)  -->
<svg version="1.1" id="Layer_1" xmlns="http://www.w3.org/2000/svg" xmlns:xlink="http://www.w3.org/1999/xlink" x="0px" y="0px"
	 viewBox="0 0 128 116" style="enable-background:new 0 0 128 116;" xml:space="preserve">
<style type="text/css">
	.st0{fill:#B0C3C6;}
	.st1{fill:none;stroke:#DEE7E8;stroke-miterlimit:10;}
	.st2{fill:#00A6E2;}
	.st3{fill:none;stroke:#B0C3C6;stroke-width:2;stroke-miterlimit:10;}
	.st4{fill:#666666;}
	.st5{fill:none;stroke:#B0C3C6;stroke-width:2;stroke-linejoin:round;stroke-miterlimit:10;}
	.st6{fill:#00C9ED;}
	.st7{fill:#FFFFFF;stroke:#B0C3C6;stroke-width:2;stroke-linejoin:round;stroke-miterlimit:10;}
	.st8{fill:#303030;}
	.st9{opacity:0.4;fill:#F6F6F6;}
	.st10{fill:none;stroke:#999999;stroke-width:2;stroke-miterlimit:10;}
	.st11{fill:#999999;}
	.st12{fill:#FFFFFF;}
	.st13{clip-path:url(#SVGID_2_);fill:#2F3537;}
	.st14{opacity:0.3;fill:none;stroke:#9FB1B3;stroke-width:2;stroke-miterlimit:10;}
	.st15{fill:none;stroke:#FFFFFF;stroke-miterlimit:10;}
	.st16{fill:#FFFFFF;stroke:#FFFFFF;stroke-miterlimit:10;}
	.st17{fill:none;stroke:#303030;stroke-miterlimit:10;}
	.st18{opacity:0.8;fill:#B0C3C6;}
	.st19{opacity:0.7;}
	.st20{opacity:0.8;clip-path:url(#SVGID_4_);fill:#00A6E2;}
	.st21{opacity:0.8;fill:#00A6E2;}
	.st22{opacity:0.8;clip-path:url(#SVGID_6_);fill:#00A6E2;}
	.st23{clip-path:url(#SVGID_8_);}
	.st24{clip-path:url(#SVGID_10_);}
	.st25{fill:none;stroke:#B0C3C6;stroke-width:3;stroke-linejoin:round;stroke-miterlimit:10;}
	.st26{opacity:0.3;fill:none;stroke:#9FB1B3;stroke-width:3;stroke-miterlimit:10;}
	.st27{fill:#FFFFFF;stroke:#B0C3C6;stroke-width:3;stroke-linejoin:round;stroke-miterlimit:10;}
	.st28{clip-path:url(#SVGID_12_);fill:#2F3537;}
	.st29{clip-path:url(#SVGID_14_);fill:#B0C3C6;}
	.st30{fill:#33B8E8;}
	.st31{fill:#238DB4;}
	.st32{fill:#E2E7E8;}
	.st33{clip-path:url(#SVGID_16_);}
	.st34{fill:#FFFFFF;stroke:#B0C3C6;stroke-width:2;stroke-miterlimit:10;}
	.st35{fill:#B4CBCE;}
</style>
<path class="st0" d="M68.2,19.3 M68.2,107.5c-13.3,0-25.3-5.7-33.6-14.8l1.9-2.4c7.8,8.7,19.1,14.2,31.7,14.2
	c20.5,0,37.7-14.6,41.7-34l2.8,1.2C108.2,92.1,90,107.5,68.2,107.5 M68.2,19.3c-3.3,0-6.5,0.4-9.6,1.1c-18.9,4.4-33,21.3-33,41.5
	c0,7.1,1.7,13.7,4.8,19.6l-2.2,2.3c-3.6-6.5-5.6-13.9-5.6-21.9c0-21.6,15.1-39.7,35.3-44.4c3.3-0.8,6.8-1.2,10.3-1.2V19.3z"/>
<g>
	<g>
		<defs>
			<path id="SVGID_13_" d="M68.2,17.8c-24.3,0-44.1,19.7-44.1,44.1S43.8,106,68.2,106c24.3,0,44.1-19.7,44.1-44.1
				S92.5,17.8,68.2,17.8"/>
		</defs>
		<clipPath id="SVGID_2_">
			<use xlink:href="#SVGID_13_"  style="overflow:visible;"/>
		</clipPath>
		<path style="clip-path:url(#SVGID_2_);fill:#B0C3C6;" d="M63,56.3c-0.1,0-0.2,0-0.3,0c-1.9-0.4-2.8-1.4-3.5-2.2
			c-0.5-0.6-0.9-1-1.7-1.3c-0.8-0.3-1.8-0.5-2.9-0.7c-2.3-0.5-4.9-1-6.6-2.6c-0.6-0.5-1-1.5-1.8-3.4c-0.6,0.4-1.5,0.3-2-0.3
			c-2.9-3.5-3.7-8.4-3.5-11.5c0.1-1.8,1.3-3,2.2-3.9c1.3-1.3,1.8-1.9,1.1-3.4c-0.7-1.7-3.4-1.6-6.9-1.3c-2.5,0.2-4.5,0.4-5.7-0.7
			c-0.4-0.3-0.8-1-0.8-1.9v0v0v0v0c0-0.3,0.1-0.6,0.3-0.9l0,0l0.1-0.1l0.1-0.1c0.6-0.6,1.2-0.8,1.8-0.6c0.2-0.1,0.4-0.1,0.5-0.2
			c-0.1-0.4,0-1,0.4-1.5c3.2-3.9,12.4-3.4,21.6-2.7c0.7,0.1,1.3,0.1,1.8,0.1c1.2,0.1,4.3,0,7.5-0.1c12.9-0.4,14.2-0.2,14.9,1.1
			c0.2,0.4,0.2,0.8,0.1,1.2c-0.2,0.7-0.4,0.7-2.5,1.6c-3.8,1.6-6.4,2.8-7.7,3.6c0.5,0.4,1,0.8,1.4,1.1c0.8,0.6,1.4,1,1.8,1.4
			c0.7,0,1.4-0.7,2.5-2c1.8-2,4.6-5.1,9.4-2.4c0.5,0.3,0.8,0.9,0.7,1.5c0.3,0.6,0.8,1.5,1.2,2.1c0.5,0.2,0.9,0.8,0.9,1.4
			c0,2-2,2.8-4.2,3.2c0.2,0.2,0.3,0.5,0.3,0.8c0,0.5-0.2,1-0.6,1.4c-1.9,1.4-3.6,1.8-5.2,2.2c-1.3,0.3-2.6,0.6-4.2,1.5
			c-0.7,0.4-3,2.8-7.2,8.4c-0.2,0.3-0.5,0.7-1.1,0.8c-0.8,0.1-1.4-0.4-2-1c-0.6-0.6-1.6-1.5-2.5-1.5c-0.3,0-0.7,0-1,0.1
			c-2.5,0.2-3.4,0.2-4.2,2.3c-0.2,0.6-0.4,1-0.4,1.3c0.6-0.1,1.6-0.5,2.1-0.7c1.4-0.6,2.4-1,3.3-0.5c0.4,0.2,0.6,0.5,0.7,0.9
			c0.2,0.7,0.4,1.5,0.1,2.5c1.5,0.7,1.7,2,1.9,2.9c0.1,0.8,0.3,1.4,0.9,2.1c0.4,0.5,0.5,1.2,0.2,1.7C64.1,56,63.6,56.3,63,56.3
			 M56.7,49.4c0.3,0.1,0.7,0.2,1,0.2c0-0.3,0.2-0.5,0.3-0.7C57.6,49.1,57.1,49.3,56.7,49.4 M50.1,47.2c0.6,0.5,1.4,0.9,2.3,1.2
			c-0.6-1.2-0.1-2.9,0.4-4.1c1.5-3.8,4.2-4,6.8-4.2c0.3,0,0.6,0,0.9-0.1c1.8-0.1,3.3,0.9,4.3,1.8c3.6-4.7,6.1-7.5,7.4-8.2
			c1.9-1,3.5-1.4,4.9-1.8c0.4-0.1,0.8-0.2,1.2-0.3l0,0c-0.3,0-0.6-0.1-0.9-0.2c-0.6-0.1-1.1-0.6-1.2-1.2c-0.1-0.6,0.2-1.2,0.7-1.6
			c0.8-0.5,1.9-0.6,3.8-0.8c0.9-0.1,2.5-0.3,3.4-0.6c-0.2-0.3-0.4-0.6-0.6-1c-0.3-0.5-0.6-1.1-0.8-1.6c-2.1-0.9-3.2,0.2-4.9,2.2
			c-1.4,1.5-3.1,3.5-5.7,2.9c-0.3-0.1-0.6-0.3-0.8-0.5c-0.3-0.3-1.2-0.9-1.9-1.4c-3.2-2.5-3.2-2.5-3.3-3.2c-0.2-1.5,1.2-2.7,6.5-5
			c-2.5,0-5.4,0.1-7.6,0.2c-3.5,0.1-6.4,0.2-7.9,0.1c-0.5,0-1.2-0.1-1.8-0.1c-4.1-0.3-12.9-1.1-17.1,0.4l0.1,0.2
			c0.2,0.6,0,1.3-0.6,1.7c-0.2,0.1-0.4,0.3-0.6,0.4c3.5-0.3,8.2-0.7,9.9,3.1c1.5,3.4-0.5,5.4-1.7,6.7c-0.8,0.9-1.3,1.4-1.4,2.1
			c-0.1,1.4,0.1,3.1,0.5,4.8c2.3-0.6,3.5,2.6,4.8,5.7C49.4,45.7,49.9,46.9,50.1,47.2"/>
		<path style="clip-path:url(#SVGID_2_);fill:#B0C3C6;" d="M75,93.7L75,93.7c-0.3,0-0.6-0.1-0.9-0.3c-3.7-2.6-5.1-9.1-5.3-10.4
			c-0.3-1.5-0.3-3.1-0.3-4.7c0-2.2,0-4.4-0.8-5.9c-0.5-1-1.4-1.6-2.4-2.3c-1.4-1-3-2.1-3.9-4.2c-1.5-3.4-1-7.4,1.1-10.6
			c1.7-2.4,4-3.9,6.3-3.9l0.1,0c4.7,0.1,9.4,3.1,12.8,5.3c0.9,0.6,1.8,1.3,1.8,2.4l0,0c0.4,0.1,0.9,0.2,1.2,0.3
			c2.4,0.5,3.9,0.8,4.7,1.5c5.1,4.1,2.9,8.9-0.3,13.4c-0.1,0.2-0.3,0.3-0.4,0.4c-0.7,0.5-4.2,3.7-4.5,3.9c-0.5,0.5-0.8,1-1.2,1.5
			c-0.7,1.1-1.4,2-3,2.3c0,1.1-0.2,2.6-1.4,3.6c-0.3,0.3-0.7,0.5-1.1,0.6c0.4,1.8,0.4,4-0.2,5.3C76.8,93.5,75.5,93.7,75,93.7
			 M68.8,54.4c-1.3,0-2.7,1-3.8,2.6c-1.2,1.8-2.1,4.8-0.9,7.7c0.6,1.3,1.6,2.1,2.9,3c1.2,0.8,2.5,1.8,3.4,3.4
			c1.2,2.2,1.2,4.8,1.1,7.3c0,1.5,0,2.9,0.2,4.1c0.5,2.6,1.6,5.7,3.1,7.5c0.2-1.2-0.1-3.3-0.5-3.8c-0.5-0.5-0.6-1.2-0.3-1.8
			c0.3-0.6,1-0.9,1.6-0.8c0.7,0.1,1,0.1,1.1,0c0.3-0.3,0.3-1.5,0.3-1.9c0-0.5,0-0.9,0.1-1.3c0.2-0.6,0.9-1,1.5-1
			c1.2,0.1,1.3,0,1.8-0.9c0.4-0.6,0.8-1.3,1.7-2.1c0.1-0.1,1.3-1.2,2.4-2.2c0.6-0.5,1.1-1,1.6-1.4c0.2-0.2,0.4-0.3,0.6-0.5
			c3.7-5.4,3.2-7.2,0.8-9.2c-0.4-0.3-2.4-0.7-3.4-0.9c-1.5-0.3-2.5-0.5-3.1-0.8c-0.3-0.2-1.3-0.6-1.3-1.7c0-0.3,0.1-0.5,0.2-0.7
			C76.8,57.1,72.7,54.5,68.8,54.4L68.8,54.4"/>
	</g>
	<path class="st30" d="M68.8,54.4c-0.6,0-1.2,0.2-1.9,0.6l1.3,4.9c0.2,0.7,0.7,1.2,1.4,1.4l19.8,5.5c0.2-1.6-0.6-2.6-1.9-3.7
		c-0.4-0.3-2.4-0.7-3.4-0.9c-1.5-0.3-2.5-0.5-3.1-0.8c-0.3-0.2-1.3-0.6-1.3-1.7c0-0.3,0.1-0.5,0.2-0.7
		C76.8,57.1,72.7,54.5,68.8,54.4L68.8,54.4 M85.4,22.9c0.2,0.3,0.2,0.6,0.2,0.9c0.3,0.6,0.8,1.5,1.2,2.1c0.5,0.2,0.9,0.8,0.9,1.4
		c0,2-2,2.8-4.2,3.2c0.2,0.2,0.3,0.5,0.3,0.8c0,0.5-0.2,1-0.6,1.4c-1.9,1.4-3.6,1.8-5.2,2.2c-1.3,0.3-2.6,0.6-4.2,1.5
		c-0.7,0.4-3,2.8-7.2,8.4c-0.2,0.3-0.5,0.7-1.1,0.8c-0.1,0-0.2,0-0.3,0c-0.2,0-0.4,0-0.6-0.1l1.7,6.6c0.9-0.4,1.8-0.6,2.6-0.6l0.1,0
		c4.7,0.1,9.4,3.1,12.8,5.3c0.9,0.6,1.8,1.3,1.8,2.4l0,0c0.4,0.1,0.9,0.2,1.2,0.3c2.4,0.5,3.9,0.8,4.7,1.5c2.6,2.1,3.3,4.4,2.9,6.8
		l17.1,4.8c0.9-3.4,1.3-6.9,1.3-10.5C110.8,44.5,100.3,29.5,85.4,22.9 M78.1,20.5c-0.2,0.1-0.4,0.2-0.7,0.3
		c-3.8,1.6-6.4,2.8-7.7,3.6c0.5,0.4,1,0.8,1.4,1.1c0.8,0.6,1.4,1,1.8,1.4c0.7,0,1.4-0.7,2.5-2c1.3-1.5,3.1-3.4,5.7-3.5
		C80.2,21,79.1,20.7,78.1,20.5 M72.5,19.6c-2.5,0-5.4,0.1-7.6,0.2c-1.4,0-2.7,0.1-3.8,0.1c-1,0.2-2.1,0.4-3.1,0.6l5.2,20.2
		c0.6,0.3,1.1,0.7,1.6,1.1c3.6-4.7,6.1-7.5,7.4-8.2c1.9-1,3.5-1.4,4.9-1.8c0.4-0.1,0.8-0.2,1.2-0.3l0,0c-0.3,0-0.6-0.1-0.9-0.2
		c-0.6-0.1-1.1-0.6-1.2-1.2c-0.1-0.6,0.2-1.2,0.7-1.6c0.8-0.5,1.9-0.6,3.8-0.8c0.9-0.1,2.5-0.3,3.4-0.6c-0.2-0.3-0.4-0.6-0.6-1
		c-0.3-0.5-0.6-1.1-0.8-1.6c-0.5-0.2-0.9-0.3-1.4-0.3c-1.3,0-2.2,1-3.6,2.5c-1.2,1.4-2.7,3-4.8,3c-0.3,0-0.6,0-0.9-0.1
		c-0.3-0.1-0.6-0.3-0.8-0.5c-0.3-0.3-1.2-0.9-1.9-1.4c-3.2-2.5-3.2-2.5-3.3-3.2C65.9,23.1,67.3,21.9,72.5,19.6 M68.5,11
		c-3.5,0-7,0.4-10.4,1.1c-1.1,0.2-1.8,1.4-1.5,2.5l0.8,3.1c3.5-0.9,7.1-1.3,10.9-1.3c25.1,0,45.6,20.5,45.6,45.6
		c0,3.9-0.5,7.7-1.4,11.3l2.3,0.7c0.2,0,0.4,0.1,0.5,0.1c0.9,0,1.7-0.6,2-1.6c6.1-26-9.4-52.3-35.3-59.5C77.4,11.6,72.9,11,68.5,11"
		/>
	<path class="st31" d="M68.2,19.3c-2.4,0-4.8,0.2-7,0.6c1.1,0,2.4-0.1,3.8-0.1c2.2-0.1,5.1-0.2,7.6-0.2c-5.2,2.3-6.6,3.5-6.5,5
		c0.1,0.7,0.1,0.7,3.3,3.2c0.7,0.5,1.6,1.2,1.9,1.4c0.2,0.2,0.5,0.4,0.8,0.5c0.3,0.1,0.6,0.1,0.9,0.1c2.1,0,3.6-1.7,4.8-3
		c1.3-1.5,2.3-2.5,3.6-2.5c0.4,0,0.9,0.1,1.4,0.3c0.2,0.5,0.5,1.1,0.8,1.6c0.2,0.4,0.4,0.7,0.6,1c-1,0.3-2.6,0.5-3.4,0.6
		c-1.9,0.2-3,0.4-3.8,0.8c-0.5,0.3-0.8,0.9-0.7,1.6c0.1,0.6,0.6,1.1,1.2,1.2c0.3,0.1,0.6,0.1,0.9,0.2l0,0c-0.4,0.1-0.8,0.2-1.2,0.3
		c-1.4,0.3-3,0.7-4.9,1.8c-1.3,0.7-3.8,3.5-7.4,8.2c-0.4-0.4-0.9-0.8-1.6-1.1l1.2,4.7c0.2,0.1,0.4,0.1,0.6,0.1c0.1,0,0.2,0,0.3,0
		c0.6-0.1,0.9-0.5,1.1-0.8c4.2-5.6,6.5-8,7.2-8.4c1.6-0.8,2.9-1.2,4.2-1.5c1.6-0.4,3.3-0.8,5.2-2.2c0.4-0.3,0.7-0.8,0.6-1.4
		c0-0.3-0.1-0.6-0.3-0.8c2.2-0.4,4.2-1.2,4.2-3.2c0-0.6-0.4-1.1-0.9-1.4c-0.4-0.5-0.9-1.5-1.2-2.1c0-0.3,0-0.7-0.2-0.9
		c-1.4-0.6-2.8-1.1-4.2-1.6c-2.6,0-4.4,2-5.7,3.5c-1.2,1.3-1.8,2-2.5,2c-0.4-0.4-1-0.8-1.8-1.4c-0.4-0.3-1-0.7-1.4-1.1
		c1.3-0.8,3.8-2,7.7-3.6c0.3-0.1,0.5-0.2,0.7-0.3C74.9,19.7,71.6,19.3,68.2,19.3"/>
	<path class="st31" d="M68.8,51.4c-0.9,0-1.8,0.2-2.6,0.6l0.8,3c0.6-0.4,1.3-0.6,1.9-0.6l0.1,0c3.8,0.1,7.9,2.7,11.1,4.7
		c-0.1,0.2-0.2,0.5-0.2,0.7c0,1.1,1,1.5,1.3,1.7c0.6,0.3,1.6,0.5,3.1,0.8c1,0.2,3,0.6,3.4,0.9c1.3,1.1,2.1,2.1,1.9,3.7l2.9,0.8
		c0.4-2.4-0.3-4.7-2.9-6.8c-0.8-0.7-2.3-1-4.7-1.5c-0.4-0.1-0.8-0.2-1.2-0.3l0,0c0-1.1-0.9-1.8-1.8-2.4c-3.4-2.2-8.1-5.2-12.8-5.3
		L68.8,51.4"/>
	<path class="st31" d="M68.2,16.3c-3.7,0-7.4,0.5-10.9,1.3l0.7,2.9c1-0.2,2-0.5,3.1-0.6c2.3-0.4,4.6-0.6,7-0.6
		c3.4,0,6.7,0.4,9.9,1.2c1.1,0.3,2.1,0.5,3.1,0.9c1.4,0.5,2.8,1,4.2,1.6c14.9,6.6,25.4,21.6,25.4,39c0,3.6-0.5,7.1-1.3,10.5l2.9,0.8
		c0.9-3.6,1.4-7.4,1.4-11.3C113.8,36.8,93.3,16.3,68.2,16.3"/>
	<polyline class="st32" points="93,3.4 90.2,4.3 92.9,13.3 95.7,12.4 93,3.4 	"/>
	<polyline class="st32" points="104.5,3.2 102.2,12.3 105.1,13 107.4,3.9 104.5,3.2 	"/>
	<polyline class="st32" points="117.3,9.5 110.7,16.2 112.8,18.3 119.5,11.7 117.3,9.5 	"/>
	<polyline class="st32" points="125.1,21.6 116,23.9 116.7,26.8 125.8,24.5 125.1,21.6 	"/>
	<polyline class="st32" points="116.6,33.3 115.7,36.1 124.7,38.8 125.6,36 116.6,33.3 	"/>
	<polygon class="st0" points="11.2,80.6 9.6,78.5 7.2,80.4 9,82.6 	"/>
	<polygon class="st0" points="27.6,101.1 31,105.4 28.7,107.2 25.1,102.7 	"/>
	<polygon class="st0" points="15.5,85.9 17.9,88.9 15.5,90.7 13,87.6 	"/>
	<polygon class="st0" points="24.2,91.7 27.2,89.4 29,91.7 25.9,94.2 	"/>
	<polygon class="st0" points="19.1,99.7 15.8,102.3 13.9,99.9 17.4,97.2 	"/>
	<path class="st0" d="M31.3,96.2c-0.4,0-0.9-0.2-1.2-0.6l-6.6-8.2c-0.2-0.3-0.4-0.7-0.3-1.1c0-0.4,0.2-0.8,0.6-1l9.1-7.3
		c0.6-0.5,1.6-0.4,2.1,0.2l6.6,8.2c0.2,0.3,0.4,0.7,0.3,1.1c0,0.4-0.2,0.8-0.6,1l-9.1,7.3C32,96.1,31.6,96.2,31.3,96.2z M26.8,86.7
		l4.7,5.9l6.8-5.4l-4.7-5.9L26.8,86.7z"/>
	<rect x="31.6" y="81.7" transform="matrix(0.7811 -0.6244 0.6244 0.7811 -47.1645 39.3835)" class="st0" width="2" height="10.5"/>
	<path class="st0" d="M9.1,113.9l-0.2,0c-0.4,0-0.8-0.2-1-0.6l-6.6-8.2c-0.5-0.6-0.4-1.6,0.2-2.1l9.1-7.3c0.3-0.2,0.7-0.4,1.1-0.3
		c0.4,0,0.8,0.2,1,0.6l6.6,8.2c0.2,0.3,0.4,0.7,0.3,1.1c0,0.4-0.2,0.8-0.6,1l-9.1,7.3C9.8,113.8,9.4,113.9,9.1,113.9z M4.7,104.5
		l4.7,5.9l6.8-5.4L11.5,99L4.7,104.5z"/>
	<rect x="9.4" y="99.4" transform="matrix(0.7811 -0.6244 0.6244 0.7811 -63.0974 29.4114)" class="st0" width="2" height="10.5"/>
	<path class="st0" d="M23.2,106.1c-0.4,0-0.9-0.2-1.2-0.6l-9.9-12.4c-0.2-0.3-0.4-0.7-0.3-1.1c0-0.4,0.2-0.8,0.6-1l6.5-5.2
		c0.6-0.5,1.6-0.4,2.1,0.2l9.9,12.4c0.5,0.6,0.4,1.6-0.2,2.1l-6.5,5.2C23.9,106,23.6,106.1,23.2,106.1z M15.4,92.4l8.1,10.1l4.1-3.3
		l-8.1-10.1L15.4,92.4z"/>
	<path class="st0" d="M10.4,89.8c-0.3,0-0.6,0-0.9,0c-2.1-0.2-3.9-1.3-5.2-2.9c-0.5-0.6-0.4-1.6,0.2-2.1l9.9-7.9
		c0.3-0.2,0.7-0.4,1.1-0.3c0.4,0,0.8,0.2,1,0.6c2.7,3.4,2.1,8.3-1.2,11C13.9,89.2,12.2,89.8,10.4,89.8z M7.7,86
		c0.6,0.4,1.3,0.7,2.1,0.8c1.3,0.1,2.5-0.2,3.5-1c1.7-1.3,2.2-3.6,1.5-5.5L7.7,86z"/>
</g>
</svg>
